<svg width="1512" height="1083" viewBox="0 0 1512 1083" fill="none" xmlns="http://www.w3.org/2000/svg">
<g clip-path="url(#clip0_2007_122)">
<path d="M1520 0H-2V1106H1520V0Z" fill="#AE527A"/>
<path d="M1519.95 388.025C1519.95 397.435 1519.95 406.856 1519.95 416.266C1516.79 416.961 1513.71 419.059 1511.03 420.724C1516.77 411.398 1493.29 424.338 1473.88 429.639C1424.65 432.326 1382.95 411.64 1378.03 411.798C1374.29 411.924 1349.25 423.927 1305.21 428.153C1273.39 431.198 1279.89 425.423 1278.45 425.181C1277.95 425.097 1274.68 429.586 1274 429.639C1243.11 432.326 1212.04 433.285 1181.11 435.582C1166.26 403.758 1124.46 410.333 1109.04 405.855C1107.44 405.391 1088.81 390.48 1080.8 388.014C1074.92 386.202 1074.19 391.544 1068.92 389.5C1067.39 388.91 1068.97 385.822 1067.43 385.042C1051.63 377.002 1042.71 364.156 1039.93 371.659C1030.85 363.577 1019.96 356.643 1010.21 349.361C897.952 265.585 765.843 241.97 630.499 280.981C575.734 296.767 543.652 318.412 497.484 347.875C496.673 348.392 495.377 346.305 495.251 346.39C482.955 354.251 471.482 369.868 456.616 373.145C449.662 386.644 445.342 379.131 440.264 380.574C435.66 381.892 438.283 388.404 438.03 388.752C433.363 395.264 428.137 391.049 425.398 392.472C422.311 394.073 423.902 398.668 420.941 399.901C419.003 400.712 412.46 399.089 410.542 399.901C408.762 400.649 400.291 411.292 374.878 411.787C352.574 439.702 325.528 431.746 300.569 451.926C248.206 453.201 260.396 462.443 253.01 466.795C243.222 472.559 219.137 467.027 212.879 469.767C211.973 470.167 205.167 483.993 206.189 486.121C203.523 483.75 191.586 471.653 190.585 471.253C178.869 466.563 96.1627 469.661 40.4806 426.656C35.1495 422.547 31.2196 416.308 26.3626 411.787C35.75 410.091 7.34534 387.824 -1.87354 379.088C-1.87354 372.65 -1.87354 366.211 -1.87354 359.762L184.643 361.248C149.716 358.129 112.799 340.53 108.848 340.436C108.216 340.425 98.0802 344.988 96.9634 344.893C84.2361 343.85 84.2887 340.499 83.5828 340.436C82.9507 340.372 79.7267 342.512 70.9503 341.921C69.4437 334.671 81.423 330.056 86.5539 324.081C163.729 295.144 229.346 245.152 302.044 208.143C304.077 207.111 326.319 200.978 336.222 196.257C365.206 182.442 392.61 160.101 426.873 154.632C533.001 97.475 646.756 89.1079 764.231 80.3088C858.011 94.008 955.12 93.6287 1043.63 130.848C1123.22 150.554 1213.28 191.905 1284.39 231.927C1290.13 235.163 1297.7 242.929 1299.25 243.814C1322.37 257.081 1384.26 291.076 1397.34 300.297C1428.44 322.216 1461.92 369.141 1519.95 387.993V388.025Z" fill="#AE527A"/>
<path d="M803.615 762.614C806.47 778.167 832.43 812.584 844.483 822.068C876.786 847.506 972.188 873.419 1013.91 891.934C1036.51 888.868 1000.36 883.946 1016.14 880.047C1183.01 932.557 1354.9 969.767 1519.95 1028.69C1519.86 1039.59 1520.11 1050.5 1519.95 1061.39C1425.46 1029.52 1332.62 992.665 1238.32 960.314C1220.47 954.192 1121.36 919.975 1114.97 918.69C1112.68 918.226 1106.64 917.162 1106.79 919.438C1151.96 939.175 1201.68 952.527 1248.72 969.229C1339.29 1001.4 1428.54 1037.45 1519.95 1067.34C1519.71 1080.21 1520.13 1093.11 1519.95 1105.98C1299.51 1106.05 1079.05 1105.88 858.612 1105.98C823.675 997.787 792.099 888.868 769.447 777.472C768.446 772.53 766.286 767.767 766.476 762.603C775.22 762.603 800.475 761.792 803.625 762.603L803.615 762.614Z" fill="#19486D"/>
<path d="M1005.73 0.0737715C1002.76 14.1102 1022.19 12.3609 1028.77 14.9427C1056.82 25.9442 1084.09 39.6855 1111.99 50.6133C1117.53 52.7841 1132.52 54.3226 1141.71 58.0425C1194 79.2446 1344.03 149.237 1382.47 181.42C1401.84 197.637 1431.6 237.091 1441.91 246.828C1451.23 255.627 1506.56 296.472 1519.93 295.882C1519.96 319.666 1519.91 343.45 1519.93 367.234C1500.38 362.85 1484.17 349.699 1465.68 341.964C1407.93 287.43 1338.92 247.534 1273.97 202.242C1205.16 167.425 1135.57 133.304 1059.96 116.032C1046.51 106.316 1027.96 105.716 1012.4 101.163C1001.91 98.0968 985.779 88.8868 969.301 84.8086C947.102 79.3184 918.824 77.9063 896.477 74.4078C894.602 74.1127 887.301 70.3507 884.593 69.9503C874.563 68.4855 860.392 69.6763 850.415 68.4644C844.557 67.7584 826.909 61.8993 817.722 61.0352C732.782 52.9843 597.154 64.8183 513.056 87.7908C441.592 125.527 368.262 156.129 294.595 190.356L96.932 304.807C74.9436 314.06 37.3095 319.191 24.8561 337.506C16.0903 339.224 7.09268 347.422 -1.89441 349.393C-1.87333 326.6 -1.92601 303.806 -1.89441 281.013C46.2439 273.9 70.9611 234.583 93.9609 218.587C94.4034 218.281 99.9136 218.45 104.36 215.615C106.751 214.087 109.438 209.64 111.788 208.186C133.344 194.824 190.016 170.534 205.42 159.132C207.453 157.625 240.504 128.414 243.317 125.685C247.7 121.428 251.177 110.331 261.892 99.6775C295.206 66.5571 345.526 58.7696 386.731 40.223L504.143 13.4674C510.306 9.09417 525.341 8.50405 524.203 0.0843094C684.717 -0.0210691 845.231 -0.0210691 1005.73 0.0737715Z" fill="#75557B"/>
<path d="M759.026 764.099C755.349 794.143 750.176 823.617 744.16 853.281C743.718 847.759 744.898 844.851 741.189 851.047C719.559 935.571 701.258 1020.92 681.746 1105.97C453.865 1105.87 225.985 1106.04 -1.88425 1105.97C-2.0739 1094.08 -1.62086 1082.17 -1.88425 1070.3C142.046 1014.81 287.915 964.877 433.563 914.222C489.456 894.779 626.064 854.577 669.124 828.011C691.302 814.323 711.109 789.348 721.887 766.323L718.916 765.575C727.587 762.108 748.459 764.552 759.047 764.089L759.026 764.099Z" fill="#19486D"/>
<path d="M1112.74 703.159C1110.9 700.746 1110.06 702.327 1108.28 700.925C1114.03 697.542 1120.32 693.675 1126.85 691.262C1142.91 683.137 1090.61 697.795 1088.22 698.691C1069.75 705.636 1050 721.021 1030.26 726.933C1026.83 729.767 1031.52 729.409 1038.44 728.418C1038.35 730.705 1040.44 729.567 1041.41 729.904C1052.85 733.877 1064.85 729.967 1076.33 729.904C1225.14 694.592 1375.55 665.391 1519.96 613.967C1519.93 661.039 1520 708.112 1519.96 755.174C1507.33 753.551 1512.58 761.233 1510.3 764.089C1504.46 763.847 1477.9 764.964 1475.37 761.855C1474.2 760.422 1483.25 759.589 1461.25 750.706C1441.46 755.458 1446.04 760.432 1444.9 761.107C1444.38 761.412 1439.55 755.163 1435.99 762.593C1409.93 763.847 1420.76 758.304 1418.15 756.649C1414.87 754.563 1416.53 765.069 1410.72 746.248C1400.8 756.375 1404.7 746.291 1400.32 747.734C1399.42 748.029 1398.21 753.467 1397.35 753.678C1396.98 753.772 1393.27 749.136 1392.9 749.22C1389.06 750.031 1378.82 754.025 1384.72 758.135C1372.7 755.511 1379.48 761.128 1375.06 762.593C1371.74 763.699 1368.09 756.744 1367.63 756.649C1365.98 756.323 1360.59 759.674 1360.2 759.621C1359.12 759.484 1354.65 752.929 1348.32 756.649C1346.72 757.598 1348.04 761.613 1347.57 761.855C1344.78 763.256 1320.12 766.081 1317.1 765.575C1316.36 765.448 1306.51 756.649 1305.22 756.66C1303.84 756.66 1292.25 767.303 1281.44 765.575C1280.67 765.448 1280.69 762.034 1278.47 761.117C1272.27 758.546 1278.12 770.106 1269.55 755.174C1265.94 762.319 1262.74 757.461 1256.17 765.575C1256.81 751.127 1245.54 773.868 1248.74 755.174C1240.84 757.935 1226 755.648 1226.45 762.603C1206.26 748.893 1200.07 770.338 1192.27 762.603C1174.43 774.795 1170.44 746.301 1162.55 764.089C1156.59 749.8 1157.17 770.38 1149.17 755.174C1140.77 758.103 1140.96 763.762 1140.26 764.089C1138.98 764.69 1113.28 764.711 1112.02 764.089C1108.22 762.224 1113.2 753.656 1100.14 756.66C1098.81 756.965 1098.09 759.6 1097.9 759.631C1094.6 758.651 1086.45 756.849 1083.78 756.66C1013.46 751.538 853.375 756.628 776.147 761.117C774.24 760.285 772.934 753.119 772.428 750.716C772.312 750.158 780.983 747.45 768.709 744.773C750.377 740.769 750.945 747.408 750.134 750.716C749.312 754.057 751.925 758.441 747.901 761.117C681.504 756.449 496.399 749.979 442.498 756.66C424.376 758.904 435.344 762.066 429.865 764.089C428.643 764.542 422.838 761.117 422.437 761.117C420.593 761.107 409.71 762.782 409.057 762.603C408.224 762.371 406.802 756.681 406.086 756.66C404.958 756.628 406.381 763.804 398.658 758.146C399.437 767.166 371.37 766.27 371.907 756.66C361.477 757.376 359.443 763.162 348.128 764.089C340.205 751.254 344.472 768.589 336.243 756.66C337.149 760.243 337.782 769.4 334.758 762.603C325.697 766.449 313.37 760.949 306.522 765.575C309.135 744.963 298.588 759.99 291.656 752.192C289.664 769.716 281.636 762.593 275.304 762.593C274.566 762.593 269.393 769.316 263.42 764.078C261.829 762.677 267.265 748.925 244.097 764.078C241.631 752.877 237.238 761.296 236.669 761.107C235.837 760.822 235.763 755.037 233.698 755.163C231.97 755.269 232.992 765.796 226.27 756.649C223.531 767.651 213.332 758.946 206.947 755.163C202.733 756.502 194.504 762.456 193.567 762.593C193.103 762.666 191.797 758.346 184.653 759.621C180.091 760.432 152.403 768.62 150.475 767.05C148.673 765.596 151.729 754.573 147.504 749.209C138.865 759.642 140.835 751.728 140.076 752.181C138.959 752.845 138.169 759.547 119.268 765.564V749.209C109.722 752.023 99.1022 748.503 97.722 757.387C111.408 769.379 102.179 762.603 101.441 762.593C92.3276 762.403 90.1678 765.585 89.5567 765.564C88.2924 765.533 72.8468 760.243 67.2628 762.593L69.4964 752.929C60.0036 754.51 59.4347 751.686 50.9217 752.181C47.624 772.435 33.0213 759.126 31.5989 759.61C28.7332 760.59 29.692 765.596 28.6278 765.554C27.0896 765.501 29.9132 757.197 22.6856 764.068C14.2885 759.547 7.28217 760.443 -1.83134 758.125C-1.87349 717.491 -1.79974 676.867 -1.83134 636.233C68.8748 647.593 146.914 677.478 212.921 692.716C270.626 706.036 330.417 711.178 388.291 723.929C369.884 713.939 349.687 706.7 331.818 695.688C296.66 674.022 268.709 639.774 254.538 630.279C240.715 621.017 185.876 600.52 154.226 571.562C156.344 567.084 223.52 612.144 239.682 619.868C251.841 625.685 286.251 635.148 290.212 637.708C296.544 641.797 327.351 695.077 412.08 722.433C420.435 725.131 460.83 735.816 468.553 737.302C495.609 742.497 468.953 732.423 462.61 728.387C410.458 695.224 376.912 667.099 341.49 616.159L345.209 615.41C360.982 630.627 390.545 670.734 400.196 679.323C407.961 686.235 486.548 734.172 504.227 741.749C508.968 742.297 509.147 740.031 505.713 737.291C488.139 736.975 472.841 721.2 458.902 710.536C482.397 719.609 505.428 729.683 529.492 737.291L533.211 735.057C489.688 720.62 458.881 687.036 421.004 662.968L423.975 659.996C481.701 687.11 487.233 722.865 556.243 734.32C574.048 737.27 584.953 739.757 576.303 734.32V729.862C579.011 730.99 615.981 741.253 611.229 735.805C589.504 718.787 565.714 717.322 557.728 713.507C553.114 711.305 527.28 688.28 513.889 682.294C513.404 681.209 512.603 680.471 512.403 679.323C527.754 686.183 544.99 689.618 560.699 695.677C568.148 698.544 586.649 711.621 588.198 712.032L587.45 716.489C607.879 733.603 710.045 763.162 626.833 725.405C643.227 720.104 734.952 746.248 740.525 744.731C742.137 744.288 743.992 738.071 746.468 737.302C773.397 728.903 873.804 721.801 910.69 717.975C910.69 718.218 913.777 721.147 913.661 721.695C913.113 724.235 892.031 735.826 888.396 739.536C910.205 741.496 936.124 722.37 933.722 731.358C991.205 722.37 999.592 707.827 1006.55 704.603C1033.92 691.915 1047.55 696.952 997.632 719.472V722.443C1028.3 717.164 1055.39 695.372 1058.56 694.202C1072.75 688.975 1115.5 692.337 1146.99 665.212C1143.08 659.659 1136.38 650.797 1133.61 645.148C1142.28 644.189 1164.75 649.037 1168.53 648.12C1170.77 647.582 1199.48 622.06 1203.46 618.393C1219.84 608.993 1259.95 589.572 1270.34 579.002C1274.34 574.945 1274.43 569.718 1274.8 569.339C1276.71 567.4 1278.8 565.303 1280.74 563.396C1326.7 530.307 1351.65 499.663 1291.14 564.144C1282.56 573.28 1274.49 588.423 1273.3 589.414C1270.38 591.837 1229.74 607.159 1222.04 613.935C1209.39 625.053 1217.39 636.275 1195.28 658.531C1175.62 678.332 1139.52 695.034 1112.8 703.127L1112.74 703.159Z" fill="#CC4485"/>
<path d="M1519.95 416.266C1519.95 428.153 1519.95 440.05 1519.95 451.937C1511.21 456.289 1515.22 462.633 1513.26 465.32C1511.11 468.281 1451.61 490.674 1446.38 495.047C1440.81 499.694 1437.76 525.185 1390.64 540.381C1413.98 518.957 1419.79 480.832 1421.85 477.955C1423.54 475.573 1471.26 458.565 1452.32 460.862C1436.18 468.565 1419.65 474.593 1404.76 484.646C1387.42 525.273 1370.09 565.904 1352.74 606.538C1324.65 625.168 1265.94 633.409 1262.09 636.265C1255.29 641.312 1253.75 668.426 1247.23 671.935C1244.41 673.453 1183.44 681.693 1192.24 692.748C1203.21 685.529 1244.31 678.543 1250.2 674.907C1256.66 670.924 1263.23 650.428 1268.03 646.666C1278.98 638.098 1366.47 611.29 1369.09 606.527C1370.5 603.987 1365.27 593.397 1365.38 592.406C1365.66 589.687 1391.86 553.448 1392.13 544.838C1397.01 541.298 1454.93 511.897 1454.54 519.569C1424.23 540.391 1409.25 544.08 1409.95 584.977C1426.08 619.562 1410.05 571.373 1420.35 550.792C1422.49 546.514 1455.44 529.011 1460.48 522.551C1474.12 505.09 1451.49 496.333 1519.93 468.292C1519.96 516.85 1519.96 565.408 1519.93 613.967C1375.52 665.402 1225.12 694.592 1076.3 729.904C1064.82 729.967 1052.82 733.877 1041.38 729.904C1067.39 728.302 1090.96 716.974 1114.94 707.606L1112.7 704.634C1112.47 704.297 1112.95 703.465 1112.7 703.149C1139.41 695.066 1175.53 678.353 1195.19 658.552C1217.29 636.296 1209.3 625.074 1221.94 613.956C1229.65 607.18 1270.29 591.848 1273.21 589.435C1274.4 588.444 1282.47 573.301 1291.05 564.165C1351.55 499.684 1326.6 530.338 1280.65 563.417C1293.66 550.56 1307.28 538.653 1319.28 524.774C1324.52 522.024 1346.17 493.972 1348.27 493.561C1350.06 493.203 1368.01 499.705 1369.07 499.505C1370.57 499.231 1379.55 485.858 1391.37 478.692C1407.23 469.082 1447.65 460.177 1511 420.724C1513.68 419.059 1516.77 416.962 1519.92 416.266H1519.95Z" fill="#19486D"/>
<path d="M1519.95 367.223C1519.95 374.157 1519.95 381.101 1519.95 388.035C1461.92 369.183 1428.44 322.258 1397.34 300.339C1384.26 291.119 1322.37 257.124 1299.25 243.856C1297.7 242.971 1290.14 235.205 1284.39 231.97C1213.28 191.947 1123.21 150.596 1043.63 130.891C955.12 93.671 858.011 94.0504 764.231 80.3512C646.767 89.1503 533 97.5068 426.873 154.675C392.61 160.133 365.196 182.484 336.222 196.299C326.318 201.02 304.077 207.153 302.044 208.186C229.336 245.205 163.729 295.186 86.5539 324.123C81.4124 330.088 69.4436 334.714 70.9503 341.964C57.3906 341.047 36.1293 335.304 24.877 337.506C37.3303 319.192 74.9644 314.06 96.9528 304.807L294.616 190.356C368.283 156.129 441.612 125.527 513.077 87.7909C597.164 64.8184 732.803 52.9844 817.743 61.0353C826.94 61.9099 844.578 67.7585 850.435 68.4645C860.413 69.6763 874.584 68.4856 884.614 69.9503C887.332 70.3508 894.633 74.1128 896.498 74.4078C918.845 77.9064 947.123 79.3185 969.322 84.8087C985.79 88.8868 1001.93 98.0969 1012.42 101.163C1027.99 105.705 1046.53 106.316 1059.98 116.032C1135.59 133.304 1205.18 167.425 1273.99 202.242C1338.95 247.534 1407.95 287.441 1465.7 341.964C1484.18 349.699 1500.4 362.85 1519.95 367.234V367.223Z" fill="#875479"/>
<path d="M1519.95 869.636C1519.92 885.991 1519.98 902.335 1519.95 918.69C1513.08 923.105 1495.03 966.626 1492.45 967.743C1486.05 970.504 1385.79 963.939 1368.36 963.286C1262.41 933.063 1154.94 908.067 1048.84 878.561L1051.07 872.618C1206.99 867.96 1363.72 870.131 1519.96 869.646L1519.95 869.636Z" fill="url(#paint0_linear_2007_122)"/>
<path d="M1264.33 0.0737394C1262.69 24.6269 1378.42 72.7744 1398.83 86.2839C1411.87 94.9144 1433.14 122.924 1447.87 133.852C1468.98 142.482 1498.78 162.82 1519.95 163.579C1520.03 197.269 1519.91 230.969 1519.95 264.658C1443.6 234.183 1397.11 162.114 1327.49 121.965C1322.76 115.084 1285.47 93.5655 1276.96 89.2661C1270.56 86.031 1226.89 70.3401 1208.59 61.0247C1192.07 52.6155 1176.93 42.1408 1161.03 32.7832C1150.83 26.7767 1115 13.3093 1115.71 0.0842773C1165.25 0.126429 1214.79 0.0105123 1264.33 0.0842773V0.0737394Z" fill="#4C587C"/>
<path d="M408.298 0.0738128C397.488 13.0881 366.218 17.7879 349.592 23.8577C308.492 38.8636 267.328 55.4397 232.18 81.8264C201.321 88.6339 179.101 118.614 174.223 121.965C154.7 135.359 132.48 144.938 113.294 159.122C104.602 165.55 97.9219 175.055 89.5143 181.42C82.8978 186.425 65.9878 195.814 59.7927 200.746C51.3956 207.427 41.8396 218.945 33.0421 226.016C29.9446 228.503 23.8022 229.936 21.1577 231.959C12.3075 238.693 13.5297 246.681 -1.87374 248.314C-1.83159 224.035 -1.92641 199.756 -1.87374 175.476C25.214 164.654 42.4717 134.726 51.6274 125.685C107.215 70.7722 151.971 63.2061 211.393 17.9144C220.38 14.8268 240.672 8.50409 243.348 0.0738128C298.335 -0.0104899 353.322 0.126502 408.308 0.0738128H408.298Z" fill="#4C587C"/>
<path d="M923.997 787.883C936.84 789.106 948.904 792.91 961.895 792.341V801.256C971.577 800.023 975.77 794.048 976.761 793.827C982.429 792.562 990.32 794.311 996.083 793.827C996.716 793.774 998.443 790.887 999.055 790.855C999.56 790.823 1001.51 793.848 1002.03 793.827C1022.37 793.015 1041.96 793.837 1062.22 793.827C1050.37 797.926 1051.75 803.827 1051.07 804.227C1049.81 804.976 1047.58 801.593 1045.13 802.742C1042.82 803.827 1043.03 806.841 1042.16 807.199C1030.56 811.941 1007.42 806.988 1035.47 821.32C1008.01 832.732 1071.08 834.303 1072.62 815.377C1072.65 814.934 1069.54 812.763 1069.64 812.405C1070.03 811.035 1085.54 806.135 1086 804.976C1086.14 796.25 1077.17 803.005 1072.62 795.312C1072.81 795.312 1073.79 792.33 1074.85 792.341C1089.78 792.53 1141.7 792.689 1149.9 793.827C1136.58 801.193 1148.44 803.711 1146.93 806.461C1125.85 801.424 1135.13 812.763 1135.04 813.891C1134.88 815.798 1131.13 812.436 1128.35 814.639C1112.77 826.958 1136.2 827.759 1151.38 830.994C1151.67 831.057 1153.78 835.24 1155.1 835.451C1172.51 838.223 1195.14 836.157 1213.06 835.451C1214.26 835.398 1216.48 831.004 1216.78 830.994C1244.62 830.119 1273.59 831.721 1301.49 832.479C1317.83 832.922 1346.11 840.035 1354.99 829.508C1367.77 832.1 1395.02 831.468 1411.46 832.479C1411.89 832.511 1419.1 835.43 1419.64 835.451C1432.1 835.957 1482.91 836.421 1489.49 835.451C1490.7 835.272 1491.53 832.511 1491.72 832.479C1499.64 830.899 1517.88 828.296 1516.99 820.593C1517.31 820.782 1518.78 820.487 1519.96 820.593C1519.94 834.471 1519.98 848.339 1519.96 862.217C1344.35 861.227 1168.73 860.236 993.112 859.246L992.364 863.703C964.929 855.621 937.494 846.758 910.627 836.947C903.874 819.16 890.988 803.89 886.848 784.922C898.859 788.073 911.86 786.745 923.997 787.894V787.883Z" fill="#EC99A8"/>
<path d="M1264.33 0.0736986C1349.53 0.200153 1434.74 -0.0211421 1519.95 0.0736986C1520.05 54.5755 1519.8 109.077 1519.95 163.579C1498.77 162.82 1468.98 142.472 1447.87 133.852C1433.14 122.924 1411.87 94.9143 1398.83 86.2838C1378.42 72.7743 1262.69 24.6269 1264.33 0.0736986Z" fill="#2C587E"/>
<path d="M524.214 0.0736526C525.341 8.49339 510.306 9.08351 504.153 13.4567L386.742 40.2123C345.536 58.7589 295.217 66.5464 261.902 99.6669C251.177 110.331 247.71 121.428 243.327 125.674C240.514 128.404 207.463 157.614 205.43 159.121C190.027 170.513 133.354 194.813 111.798 208.175C109.448 209.629 106.762 214.087 104.37 215.604C99.9238 218.439 94.4136 218.27 93.9711 218.576C70.9608 234.572 46.2542 273.9 -1.88418 281.002C-1.87365 270.106 -1.90525 259.199 -1.88418 248.303C13.5298 246.67 12.2971 238.693 21.1472 231.948C23.8022 229.925 29.9447 228.492 33.0317 226.005C41.8291 218.934 51.3851 207.416 59.7822 200.735C65.9878 195.804 82.8874 186.414 89.5039 181.409C97.9115 175.055 104.591 165.539 113.283 159.111C132.469 144.927 154.7 135.337 174.212 121.954C179.101 118.603 201.31 88.6232 232.17 81.8158C267.318 55.429 308.471 38.8529 349.582 23.847C366.207 17.7772 397.478 13.0774 408.287 0.0631148C446.922 0.0315012 485.568 0.0841905 524.203 0.0631148L524.214 0.0736526Z" fill="#5F567B"/>
<path d="M243.338 0.0737466C240.662 8.50403 220.38 14.8267 211.383 17.9143C151.96 63.206 107.204 70.7616 51.6169 125.685C42.4612 134.726 25.2035 164.654 -1.88423 175.476C-1.74727 117.002 -1.98959 58.5377 -1.88423 0.0737466C79.853 -0.0316319 161.59 0.200201 243.338 0.0737466Z" fill="#2C587E"/>
<path d="M417.211 792.341C414.293 798.495 432.931 798.621 434.301 798.284C436.292 797.799 430.834 790.75 469.964 792.341C456.373 809.075 478.456 804.027 471.45 808.695C450.094 808.558 456.784 814.207 455.098 814.639C453.708 814.997 427.505 813.901 429.096 821.33C430.371 827.284 452.707 825.651 456.594 826.536C459.934 827.295 456.995 830.793 458.08 830.994C464.222 832.121 485.737 832.89 497.463 833.965C498.959 834.102 502.362 836.916 502.668 836.937C526.437 838.981 560.32 836.832 585.891 838.423L592.581 842.88C573.795 849.256 555.084 854.967 536.109 860.721L4.06869 862.207C2.50938 856.653 1.64544 850.699 -1.87354 845.852C-1.87354 842.385 -1.87354 838.918 -1.87354 835.451C19.43 833.502 55.2308 840.509 59.0554 829.508C66.7149 830.709 119.963 827.052 132.617 828.022C132.912 828.043 136.336 830.867 137.821 830.994C137.969 831.004 137.326 833.86 138.569 833.965C150.538 835.019 185.991 837.538 189.837 829.508C193.862 830.256 255.77 831.552 271.574 832.479C272.459 832.532 278.243 836.305 288.663 836.937C307.301 838.064 357.568 838.981 345.884 830.994C370.404 831.492 394.925 831.988 419.445 832.479C424.365 819.434 395.539 824.112 391.209 808.695C385.446 817.99 380.336 803.648 377.828 816.125C354.618 808.074 373.604 810.487 362.225 793.089L417.211 792.341Z" fill="#EC99A8"/>
<path d="M1115.71 0.0736924C1115 13.2987 1150.83 26.7661 1161.03 32.7726C1176.92 42.1303 1192.07 52.6049 1208.59 61.0141C1226.88 70.3295 1270.56 86.0204 1276.96 89.2555C1285.47 93.5655 1322.76 115.084 1327.49 121.954C1397.1 162.104 1443.6 234.172 1519.95 264.647C1519.96 275.048 1519.94 285.46 1519.95 295.861C1506.57 296.451 1451.25 255.617 1441.93 246.807C1431.63 237.08 1401.85 197.616 1382.49 181.398C1344.04 149.216 1194.02 79.2235 1141.73 58.0213C1132.54 54.3015 1117.55 52.7629 1112.01 50.5921C1084.11 39.6539 1056.84 25.9125 1028.79 14.9215C1022.21 12.3397 1002.78 14.089 1005.76 0.0526167C1042.41 0.0736924 1079.07 0.0210032 1115.73 0.0526167L1115.71 0.0736924Z" fill="#5F567B"/>
<path d="M766.464 762.614C766.275 767.777 768.434 772.54 769.435 777.482C767.823 777.63 765.305 776.534 764.979 778.968C764.915 779.421 766.032 780.243 766.464 787.883C766.58 789.854 766.285 791.877 766.464 793.827C767.297 802.91 770.794 813.585 770.921 814.639C782.331 911.577 788.126 1008.75 796.186 1105.98C783.806 1105.98 771.416 1105.98 759.036 1105.98C757.035 995.553 764.578 884.399 761.27 774.5L741.21 1105.98C729.325 1105.98 717.43 1105.98 705.546 1105.98C708.591 1062.32 745.793 873.219 744.181 853.281C750.186 823.617 755.359 794.132 759.047 764.099C759.426 764.078 757.224 762.603 766.475 762.614H766.464Z" fill="#F09438"/>
<path d="M1519.95 755.184C1519.95 760.137 1519.95 765.09 1519.95 770.053C1507.48 773.615 1452.34 760.928 1465.7 781.94C1476.84 778.241 1485.96 781.782 1496.91 781.94C1497.45 781.94 1499.34 778.958 1499.88 778.968C1500.45 778.968 1502.29 781.94 1502.85 781.94C1510.9 781.919 1509.51 778.22 1519.94 781.94C1519.94 785.902 1519.94 789.864 1519.94 793.827C1439.18 790.96 1473.24 799.928 1467.92 806.462C1461.78 805.608 1448.49 811.678 1447.11 806.462C1445.52 800.476 1487.97 792.214 1404.76 793.827C1403.67 793.848 1402.71 796.798 1402.52 796.798C1400.01 796.84 1397.73 796.703 1395.1 796.798C1393.73 792.52 1386.75 792.32 1387.67 796.798C1384.58 796.967 1384.42 795.27 1383.21 795.312C1359.51 796.208 1357.81 796.904 1333.43 804.228L1329.71 800.508C1352.23 792.509 1304.39 789.907 1308.17 801.256C1295.27 801.077 1299.94 795.639 1297.77 793.827C1293.53 790.286 1291.16 797.062 1284.39 796.798C1282.66 796.735 1276.92 792.351 1276.21 792.341C1272.43 792.299 1270.43 795.449 1268.78 798.284L1264.33 793.827C1256.48 795.565 1263.81 791.666 1255.41 792.341C1254.31 792.425 1252.98 792.141 1252.44 792.341C1242.7 795.924 1247.75 797.136 1245.75 798.284C1245.6 798.368 1244.34 796.271 1243.52 796.798L1242.03 793.827C1236.93 786.914 1239.72 796.862 1234.6 796.798C1233.21 789.232 1228.56 795.376 1225.69 799.77C1223.89 799.918 1224.38 798.642 1224.21 798.284C1219.85 789.369 1221.06 794.195 1216.78 793.827C1216.28 793.785 1215.79 793.858 1215.29 793.827C1194.72 792.478 1193.47 796.798 1192.26 796.798C1191.79 796.798 1191.84 793.574 1183.35 793.827C1182.55 793.848 1179.87 796.798 1179.63 796.798C1178.11 796.84 1173.98 794.807 1164.76 795.312C1159.87 795.576 1163.51 794.48 1157.33 796.798C1156.75 797.02 1155.39 796.682 1154.36 796.798V795.312C1152.13 790.275 1151.4 794.037 1149.91 793.827C1141.7 792.689 1089.79 792.52 1074.86 792.341C1073.81 792.33 1072.82 795.312 1072.63 795.312C1060.44 795.165 1062.87 793.827 1062.23 793.827C1041.97 793.837 1022.38 793.015 1002.04 793.827C1001.52 793.848 999.57 790.823 999.065 790.855C998.453 790.887 996.726 793.774 996.093 793.827C990.33 794.311 982.449 792.562 976.771 793.827C975.78 794.048 971.598 800.023 961.905 801.256V792.341C948.914 792.91 936.85 789.095 924.007 787.883C923.343 781.666 941.412 786.945 955.214 784.163C944.078 784.49 933.416 781.719 922.521 780.444C936.885 779.945 951.253 779.45 965.624 778.958C966.804 782.583 967.151 784.617 970.828 786.387C982.766 784.374 978.425 780.612 979.004 780.444C983.187 779.242 1033.18 780.37 1045.89 780.444C1059.69 780.528 1075.68 782.541 1086.75 778.958C1107.01 786.092 1101.55 778.547 1103.11 777.472C1103.31 777.335 1102.77 779.579 1106.83 780.444C1109.25 780.96 1108.17 780.444 1109.8 780.444C1129.57 780.475 1127.34 778.947 1128.37 778.958C1129 778.958 1132.19 783.405 1132.83 783.415C1133.32 783.415 1141.18 779 1141.74 778.958C1143.79 778.789 1145.88 783.457 1146.2 783.415C1146.97 783.331 1148.35 777.672 1149.17 777.472C1149.59 777.367 1153.1 781.951 1153.63 781.929C1154.25 781.908 1151.19 779.99 1164.77 780.444C1168.57 780.57 1171.64 780.391 1175.17 780.444C1193.41 780.718 1189.91 777.472 1190.78 777.472C1191.4 777.472 1194.61 781.929 1195.23 781.929C1211.65 781.993 1209.25 778.958 1210.1 778.958C1216.24 778.979 1220.1 781.929 1221.98 781.929C1223.4 781.929 1224.49 777.472 1224.95 777.472C1226.14 777.472 1225.47 781.982 1247.25 781.929C1247.81 781.929 1249.66 778.958 1250.22 778.958C1257.08 778.905 1266.42 782.066 1273.25 781.929C1274.74 781.898 1276.22 781.961 1277.71 781.929C1284.29 781.803 1284.92 777.482 1285.88 777.472C1287 777.472 1293.75 785.228 1305.94 777.472C1307.54 779.432 1307.27 779.875 1308.18 781.929L1308.92 778.958C1311.12 780.433 1312.26 780.517 1314.87 780.444C1326.7 780.138 1324.6 775.185 1327.5 781.929C1351.65 778.146 1372.8 781.371 1395.87 780.444C1408.28 761.012 1380.17 776.271 1383.23 767.06C1387.42 761.644 1374.86 767.335 1384.72 758.146C1378.81 754.025 1389.06 750.031 1392.89 749.23C1393.27 749.146 1396.98 753.783 1397.35 753.688C1398.21 753.477 1399.42 748.04 1400.32 747.745C1404.7 746.301 1400.81 756.386 1410.72 746.259C1416.53 765.09 1414.88 754.584 1418.15 756.66C1420.75 758.314 1409.93 763.857 1435.99 762.603C1439.55 755.174 1444.38 761.423 1444.9 761.117C1446.04 760.432 1441.44 755.469 1461.25 750.716C1483.25 759.6 1474.2 760.422 1475.37 761.865C1477.9 764.974 1504.46 763.846 1510.3 764.099C1512.58 761.244 1507.33 753.562 1519.96 755.184H1519.95Z" fill="#562753"/>
<path d="M506.387 878.551C509.211 878.867 507.757 881.797 505.639 883.009C491.163 891.323 451.137 904.59 432.077 911.25C287.473 961.811 140.993 1007.2 -1.88411 1062.87C-2.04215 1052.96 -1.79982 1043.05 -1.88411 1033.14C165.046 973.623 337.697 932.041 506.387 878.551Z" fill="#19486D"/>
<path d="M442.476 756.67C441.001 762.814 448.039 762.234 452.875 762.614C450.115 766.312 453.212 765.469 458.817 770.043L455.098 778.958C449.377 767.176 448.766 780.233 440.98 771.529C440.58 771.086 441.77 768.199 440.232 767.071C437.809 771.518 441.012 771.307 440.98 771.529C440.359 775.512 438.631 777.356 436.523 780.444C431.097 780.233 433.837 778.958 433.552 778.958L434.3 770.043C427.431 776.46 420.72 763.309 419.434 774.5C406.981 769.41 418.149 781.972 403.083 771.529C396.055 791.624 412.597 772.171 418.686 781.929L417.201 792.33L362.214 793.078C373.593 810.476 354.607 808.074 377.818 816.114C380.325 803.627 385.435 817.979 391.198 808.685C395.528 824.102 424.355 819.423 419.434 832.469C394.914 831.97 370.393 831.475 345.873 830.983C330.796 816.873 343.987 793.911 339.183 792.341C322.315 797.41 306.637 784.785 322.093 800.518C315.245 812.732 314.95 803.595 312.432 804.238C311.547 804.459 310.483 809.676 309.461 810.181C304.867 812.447 303.845 807.136 303.519 807.21C302.023 807.547 285.955 822.827 295.343 792.341C297.85 790.181 296.228 788.884 297.577 787.883C301.064 785.291 304.825 795.481 299.81 780.454C294.216 763.709 290.718 773.731 287.178 773.025C283.901 772.361 286.735 768.631 285.692 768.567C284.575 768.504 279.887 774.448 275.293 768.567C272.111 776.65 257.804 763.952 256.718 780.454C255.307 780.454 255.149 778.968 253.747 778.968C251.798 762.234 244.939 774.542 244.086 774.511C238.544 774.268 239.714 764.205 233.687 777.482L228.482 775.248C231.685 763.878 226.47 775.428 224.763 775.997C221.729 777.008 208.654 765.301 213.616 780.454C212.183 780.454 211.994 782.066 210.645 781.94C211.003 768.188 208.717 779.053 206.926 778.968C201.489 778.705 190.153 762.793 184.632 777.482C180.734 775.08 166.942 769.042 168.28 777.482C165.878 761.802 141.119 778.336 117.75 770.053C114.274 773.099 112.514 774.648 115.517 778.968C114.337 778.926 112.346 786.303 106.603 778.968C111.861 773.91 107.562 772.656 102.884 770.053C92.4328 775.817 53.5554 764.616 64.9868 778.968C63.5013 778.968 62.0157 778.958 60.5302 778.968C41.5024 757.408 20.9996 786.387 9.26266 765.585C0.0964647 779.674 5.89119 758.388 -1.88428 771.529C-1.88428 767.071 -1.88428 762.614 -1.88428 758.146C7.22924 760.464 14.2356 759.579 22.6327 764.089C29.8708 757.229 27.0472 765.522 28.5749 765.575C29.639 765.617 28.6803 760.601 31.546 759.631C32.9684 759.147 47.5711 772.445 50.8688 752.202C59.3818 751.696 59.9507 754.52 69.4435 752.95L67.2099 762.614C72.7939 760.264 88.2395 765.554 89.5038 765.585C90.1149 765.596 92.2747 762.424 101.388 762.614C102.126 762.624 111.355 769.41 97.6691 757.408C99.0493 748.524 109.669 752.044 119.215 749.23V765.585C138.116 759.568 138.906 752.877 140.023 752.202C140.782 751.749 138.812 759.652 147.451 749.23C151.676 754.594 148.62 765.606 150.422 767.071C152.35 768.641 180.049 760.453 184.6 759.642C191.744 758.367 193.05 762.687 193.514 762.614C194.452 762.477 202.68 756.523 206.894 755.184C213.269 758.967 223.478 767.672 226.217 756.67C232.939 765.817 231.917 755.29 233.645 755.184C235.71 755.058 235.794 760.843 236.616 761.128C237.185 761.328 241.578 752.898 244.044 764.099C267.202 748.946 261.765 762.698 263.367 764.099C269.34 769.337 274.514 762.614 275.251 762.614C281.573 762.614 289.611 769.737 291.603 752.213C298.525 760.011 309.082 744.984 306.469 765.596C313.328 760.97 325.644 766.47 334.705 762.624C337.729 769.41 337.097 760.264 336.19 756.681C344.429 768.62 340.162 751.275 348.075 764.11C359.39 763.183 361.424 757.397 371.854 756.681C371.317 766.291 399.385 767.187 398.605 758.167C406.328 763.825 404.905 756.649 406.033 756.681C406.76 756.702 408.171 762.392 409.004 762.624C409.646 762.803 420.541 761.128 422.384 761.138C422.785 761.138 428.59 764.563 429.812 764.11C435.291 762.087 424.323 758.925 442.445 756.681L442.476 756.67Z" fill="#562753"/>
<path d="M910.616 836.937C937.483 846.748 964.918 855.61 992.354 863.693C1011.01 869.183 1030.08 873.345 1048.83 878.561C1154.93 908.067 1262.41 933.063 1368.35 963.286C1418.88 978.151 1469.41 993.017 1519.94 1007.88C1519.91 1014.82 1519.99 1021.76 1519.94 1028.69C1354.89 969.767 1182.99 932.568 1016.13 880.047C980.859 868.951 888.143 838.865 860.835 822.079C834.463 805.861 825.761 784.617 812.538 771.539C829.069 781.55 836.676 801.941 851.921 813.164C867.156 824.376 892.906 830.477 910.627 836.947L910.616 836.937Z" fill="#F3CBB5"/>
<path d="M60.5302 778.958C62.0158 778.947 63.5014 778.958 64.9869 778.958C70.6025 778.947 72.7308 781.929 73.1627 781.929C74.0688 781.929 80.1586 777.472 80.5905 777.472C81.9391 777.451 100.156 785.154 106.593 778.958C112.346 786.292 114.326 778.916 115.506 778.958C126.548 780.739 157.007 783.911 160.832 777.472C167.733 785.723 197.338 776.84 210.614 781.929C211.962 782.056 212.152 780.454 213.585 780.444C226.934 780.359 240.472 779 253.716 778.958C255.128 778.958 255.275 780.444 256.687 780.444C271.047 780.496 285.429 780.359 299.789 780.444C304.804 795.471 301.053 785.28 297.556 787.873C296.207 788.874 297.84 790.17 295.322 792.33C292.646 794.638 288.073 794.048 288.632 799.759C280.846 777.419 285.186 799.18 282.689 801.245L273.776 792.33C264.325 805.239 263.714 783.879 256.687 796.05C261.66 800.423 259.184 820.108 259.658 821.32C260.122 822.5 286.978 825.366 271.542 832.469C255.739 831.542 193.819 830.245 189.805 829.497C164.182 824.734 210.961 821.352 212.099 819.834C212.921 818.738 211.288 808.401 214.333 793.827C176.035 790.318 184.495 803.69 178.669 805.713C176.562 806.451 174.823 802.689 174.212 802.742C173.085 802.847 166.763 807.41 152.666 801.994C149.938 794.332 193.588 791.118 119.226 792.33C106.551 794.596 118.783 801.646 112.535 809.423C134.302 816.999 121.28 803.416 137.052 805.703C141.635 811.583 136.747 814.639 137.8 816.852C138.211 817.726 151.739 818.538 137.8 830.973C136.315 830.846 132.901 828.022 132.596 828.001C119.931 827.031 66.6832 830.699 59.0341 829.487C32.1361 825.251 60.4565 813.828 60.5197 807.937C60.5829 802.794 49.2674 802.794 57.5486 796.05C55.7575 793.447 53.8926 793.605 50.8583 793.816C41.9766 811.435 26.3203 785.755 -1.90527 795.302C-1.90527 789.854 -1.90527 784.406 -1.90527 778.947C4.18445 784.3 1.83496 779.832 7.75611 774.49C12.139 788.884 16.0373 777.778 18.155 777.461C22.7908 776.766 24.5608 781.887 25.5828 781.919C27.7321 781.993 31.4197 773.067 37.4672 783.405C35.7183 781.698 52.7758 777.472 53.8189 777.461C54.2298 777.461 52.4808 779.01 60.5092 778.947L60.5302 778.958Z" fill="#562753"/>
<path d="M638.654 832.469C600.451 849.751 547.182 865.611 506.387 878.551C337.708 932.041 165.046 973.634 -1.88408 1033.14C-1.93676 1026.7 -1.85247 1020.25 -1.88408 1013.81C48.4879 997.882 99.0284 982.654 149.706 967.733C277.917 929.997 408.288 899.427 536.109 860.71C555.094 854.957 573.795 849.256 592.581 842.87C597.017 841.363 601.568 839.972 605.961 838.412C616.35 834.724 626.843 832.132 637.169 828.011L638.654 832.469Z" fill="#F3CBB5"/>
<path d="M1519.95 468.292C1451.5 496.333 1474.14 505.09 1460.5 522.551C1455.46 529.011 1422.52 546.514 1420.37 550.792C1410.07 571.383 1426.1 619.562 1409.97 584.977C1409.26 544.09 1424.25 540.402 1454.56 519.569C1454.95 511.897 1397.03 541.298 1392.15 544.838C1391.88 553.448 1365.68 589.688 1365.4 592.406C1365.29 593.397 1370.51 603.987 1369.12 606.527C1366.49 611.29 1279 638.088 1268.06 646.666C1263.25 650.428 1256.68 670.924 1250.22 674.907C1244.33 678.543 1203.23 685.529 1192.26 692.748C1183.46 681.693 1244.43 673.453 1247.25 671.935C1253.77 668.426 1255.31 641.302 1262.11 636.265C1265.96 633.409 1324.69 625.168 1352.76 606.538C1370.1 565.911 1387.44 525.28 1404.78 484.646C1419.67 474.593 1436.19 468.565 1452.34 460.862C1471.28 458.565 1423.58 475.573 1421.87 477.955C1419.81 480.832 1414 518.957 1390.66 540.381C1437.78 525.185 1440.83 499.694 1446.4 495.047C1451.63 490.674 1511.12 468.281 1513.28 465.32C1515.23 462.633 1511.23 456.299 1519.97 451.937C1519.97 457.385 1519.97 462.833 1519.97 468.292H1519.95Z" fill="#AD397D"/>
<path d="M1519.95 862.207C1519.95 864.683 1519.95 867.16 1519.95 869.636C1363.71 870.121 1206.99 867.96 1051.06 872.608L1048.83 878.551C1030.08 873.335 1011 869.183 992.354 863.682L993.102 859.225C1168.71 860.215 1344.33 861.206 1519.95 862.196V862.207Z" fill="#E5819E"/>
<path d="M4.05797 862.207C20.6098 921.082 9.34697 964.645 13.7194 967.743C19.2612 971.674 133.08 964.529 149.706 967.743C99.0282 982.665 48.4877 997.892 -1.88425 1013.83C-2.17926 957.838 -1.79997 901.84 -1.88425 845.863C1.63472 850.71 2.49866 856.653 4.05797 862.217V862.207Z" fill="url(#paint1_linear_2007_122)"/>
<path d="M769.436 777.472C792.088 888.868 823.664 997.787 858.601 1105.98C854.64 1105.98 850.678 1105.98 846.717 1105.98C830.839 1044.51 813.961 983.413 799.158 921.661C796.081 908.816 794.88 908.963 794.701 908.278C794.659 907.762 797.093 905.644 793.953 897.877C791.677 901.618 793.816 904.917 794.701 908.278C795.312 915.866 796.935 918.363 797.672 923.147C807.218 984.572 822.611 1044.94 834.822 1105.98C831.355 1105.98 827.889 1105.98 824.423 1105.98C803.941 1009.37 789.317 911.882 772.407 814.639C770.564 804.059 770.627 792.531 766.465 793.827C766.286 791.877 766.581 789.843 766.465 787.883C769.247 785.765 768.962 777.567 764.979 778.968C765.306 776.534 767.824 777.63 769.436 777.483V777.472Z" fill="#F09438"/>
<path d="M824.422 1105.98C815.014 1105.98 805.594 1105.98 796.186 1105.98C788.126 1008.75 782.331 911.566 770.921 814.639H772.406C789.317 911.882 803.94 1009.37 824.422 1105.98Z" fill="#19486D"/>
<path d="M1519.95 1007.87C1469.42 993.006 1418.89 978.141 1368.36 963.275C1385.79 963.929 1486.05 970.494 1492.45 967.733C1495.03 966.616 1513.08 923.105 1519.95 918.679C1519.88 948.406 1520.09 978.134 1519.95 1007.86V1007.87Z" fill="#D86093"/>
<path d="M1519.95 793.827C1519.94 802.742 1519.96 811.667 1519.95 820.582C1518.76 820.477 1517.3 820.772 1516.98 820.582C1512.48 817.969 1499.23 805.935 1495.43 807.199C1494.7 807.442 1494.3 811.214 1492.46 811.657C1488.09 812.7 1478.77 809.317 1476.86 816.862C1485.72 822.563 1488.02 821.415 1491.72 832.469C1491.54 832.501 1490.7 835.261 1489.49 835.441C1482.91 836.41 1432.1 835.946 1419.63 835.441C1419.1 835.42 1411.89 832.49 1411.46 832.469C1429.3 823.807 1399.34 831.384 1418.89 813.891C1390.28 801.878 1412.54 806.809 1402.54 796.798C1402.72 796.798 1403.67 793.848 1404.77 793.827C1487.98 792.214 1445.54 800.476 1447.12 806.462C1448.5 811.678 1461.79 805.608 1467.93 806.462C1473.25 799.928 1439.19 790.96 1519.95 793.827Z" fill="#EC99A8"/>
<path d="M759.027 1105.98C753.084 1105.98 747.142 1105.98 741.189 1105.98L761.25 774.5C764.569 884.389 757.025 995.542 759.016 1105.98H759.027Z" fill="#19486D"/>
<path d="M70.9396 341.953C79.716 342.543 82.9399 340.404 83.5721 340.467C84.278 340.541 84.2148 343.882 96.9526 344.925C98.0694 345.02 108.205 340.446 108.837 340.467C112.788 340.552 149.706 358.15 184.632 361.28L-1.88428 359.783C-1.88428 356.316 -1.88428 352.849 -1.88428 349.382C7.10281 347.401 16.1004 339.213 24.8663 337.496C36.1186 335.293 57.3799 341.036 70.9396 341.953Z" fill="#EC99A8"/>
<path d="M432.078 911.25L433.563 914.222C287.915 964.888 142.046 1014.82 -1.88399 1070.31C-1.93667 1067.83 -1.84185 1065.36 -1.88399 1062.88C140.993 1007.21 287.473 961.821 432.078 911.261V911.25Z" fill="#C19036"/>
<path d="M1519.95 1061.38C1519.92 1063.36 1519.99 1065.34 1519.95 1067.33C1428.54 1037.44 1339.29 1001.4 1248.72 969.219C1201.68 952.506 1151.96 939.154 1106.79 919.427C1106.64 917.151 1112.68 918.226 1114.97 918.679C1121.35 919.965 1220.47 954.171 1238.32 960.304C1332.62 992.655 1425.46 1029.51 1519.95 1061.38Z" fill="#C19036"/>
<path d="M59.0447 829.497C55.2202 840.509 19.4193 833.491 -1.88417 835.441C-1.8947 826.526 -1.87363 817.6 -1.88417 808.685C11.1066 804.702 11.4753 801.804 -1.88417 798.284C-1.88417 797.294 -1.88417 796.303 -1.88417 795.312C26.3414 785.765 41.9977 811.446 50.8794 793.827C53.9138 793.605 55.7786 793.458 57.5697 796.061C49.299 802.805 60.604 802.815 60.5408 807.947C60.4671 813.849 32.1572 825.261 59.0553 829.497H59.0447Z" fill="#DF7A9B"/>
<path d="M705.525 1105.98C701.564 1105.98 697.602 1105.98 693.641 1105.98C707.674 1037.15 718.463 967.469 732.276 898.626C735.299 883.546 741.126 868.308 744.16 853.292C745.772 873.229 708.559 1062.33 705.525 1105.99V1105.98Z" fill="#19486D"/>
<path d="M744.17 853.281C741.126 868.298 735.31 883.536 732.286 898.615C718.474 967.47 707.674 1037.14 693.651 1105.97C689.69 1105.97 685.728 1105.97 681.767 1105.97C701.279 1020.92 719.59 935.571 741.21 851.047C744.929 844.851 743.739 847.76 744.181 853.281H744.17Z" fill="#D89437"/>
<path d="M846.716 1105.98C842.755 1105.98 838.794 1105.98 834.832 1105.98C822.61 1044.94 807.218 984.572 797.683 923.147L799.168 921.661C813.971 983.413 830.839 1044.51 846.727 1105.98H846.716Z" fill="#19486D"/>
<path d="M1519.95 770.043C1519.95 774.005 1519.95 777.967 1519.95 781.929C1509.52 778.21 1510.91 781.908 1502.86 781.929C1502.3 781.929 1500.46 778.968 1499.89 778.958C1499.35 778.958 1497.46 781.94 1496.92 781.929C1485.97 781.771 1476.86 778.231 1465.71 781.929C1452.34 760.917 1507.49 773.605 1519.96 770.043H1519.95Z" fill="#C56185"/>
<path d="M60.5302 778.958C52.5018 779.021 54.2508 777.461 53.8399 777.472C52.7968 777.493 35.7393 781.708 37.4882 783.415C31.4301 773.078 27.7531 781.993 25.6038 781.929C24.5818 781.898 22.8118 776.776 18.176 777.472C16.0478 777.788 12.16 788.895 7.77711 774.5C1.85595 779.843 4.20545 784.322 -1.88428 778.958C-1.88428 776.481 -1.88428 774.005 -1.88428 771.529C5.89119 758.388 0.0964649 779.664 9.26267 765.585C20.9996 786.376 41.5024 757.397 60.5302 778.968V778.958Z" fill="#C56185"/>
<path d="M26.3518 411.809C16.8379 402.957 7.19764 394.358 -1.88428 385.053C-1.88428 383.072 -1.88428 381.091 -1.88428 379.11C7.3346 387.845 35.7393 410.112 26.3518 411.809Z" fill="#92366F"/>
<path d="M-1.88428 808.696C-1.88428 805.229 -1.88428 801.762 -1.88428 798.295C11.4752 801.814 11.1064 804.712 -1.88428 808.696Z" fill="#432F4B"/>
<path d="M1181.1 435.593L1198.94 437.078C1201.42 441.287 1203.9 445.498 1206.37 449.713L1192.99 459.377L1276.21 462.348C1274.46 468.407 1280.16 466.068 1282.9 468.292C1291.44 475.236 1298.23 486.859 1299.25 487.618C1304.35 491.391 1324.17 496.796 1330.46 499.505C1331.31 499.873 1322.31 514.848 1337.15 499.505C1339.51 499.294 1321.82 521.876 1319.31 524.774C1307.3 538.653 1293.69 550.571 1280.68 563.417C1278.74 565.335 1276.64 567.421 1274.74 569.36C1251.86 575.082 1229.75 598.128 1230.9 587.201C1226.3 596.168 1213.09 609.488 1203.4 618.414C1199.41 622.081 1170.7 647.604 1168.47 648.141C1164.69 649.058 1142.22 644.21 1133.54 645.169C1133.05 644.158 1132.54 643.22 1132.06 642.198C1131.42 640.838 1128.12 639.068 1127.6 637.74C1127.43 637.308 1127.76 636.697 1127.6 636.254C1130.94 636.644 1143.71 627.539 1143.95 626.591C1145.13 621.912 1125.92 552.974 1118.69 533.689C1117.17 529.643 1115.92 525.828 1114.23 521.803C1107.24 505.121 1101.6 494.014 1091.94 478.692C1102.47 477.596 1114.45 481.769 1123.15 474.973C1100.14 437.184 1073.06 401.155 1039.92 371.67C1042.7 364.157 1051.62 377.013 1067.42 385.053C1068.96 385.833 1067.38 388.92 1068.91 389.511C1074.19 391.555 1074.92 386.212 1080.79 388.025C1088.8 390.491 1107.43 405.391 1109.03 405.865C1124.45 410.344 1166.25 403.768 1181.1 435.593Z" fill="#CC4485"/>
<path d="M497.463 347.897C486.21 357.497 475.58 367.55 464.77 377.624C426.936 412.862 397.182 445.572 377.091 494.309C383.191 503.541 392.831 497.134 402.356 501.001C400.312 504.9 398.236 508.894 396.413 512.888C389.681 514.447 379.208 509.358 374.119 512.14C361.287 519.189 363.858 569.897 344.398 568.622L348.854 570.856C343.639 569.76 330.375 572.026 327.309 570.856C323.495 569.402 320.292 552.362 316.91 550.044C316.193 549.549 308.818 550.529 300.558 544.101C293.878 538.906 292.161 528.368 272.322 523.289C265.2 522.561 283.943 537.23 292.382 544.101L289.411 545.587C277.316 526.439 261.017 530.37 250.776 527.746C251.398 517.05 229.251 509.558 217.335 499.505C210.16 493.445 207.116 486.944 206.188 486.122C205.166 484.003 211.962 470.167 212.879 469.767C219.126 467.027 243.211 472.559 253.01 466.795C260.395 462.454 248.205 453.201 300.569 451.926C325.528 431.757 352.574 439.713 374.878 411.788C400.291 411.292 408.761 400.649 410.542 399.901C412.459 399.089 419.002 400.712 420.941 399.901C423.901 398.668 422.321 394.063 425.398 392.472C428.137 391.049 433.363 395.275 438.03 388.752C438.272 388.404 435.659 381.892 440.264 380.574C445.342 379.12 449.662 386.634 456.615 373.145C471.481 369.868 482.955 354.251 495.25 346.39C495.377 346.305 496.673 348.392 497.484 347.876L497.463 347.897Z" fill="#CC4485"/>
<path d="M1473.87 429.649C1462.63 432.726 1465.97 432.8 1453.07 434.107C1393.07 440.187 1269.49 432.905 1198.93 437.078L1181.09 435.592C1212.02 433.295 1243.09 432.336 1273.98 429.649C1274.66 429.586 1277.94 425.107 1278.43 425.192C1279.87 425.444 1273.37 431.219 1305.18 428.163C1349.22 423.938 1374.26 411.935 1378.01 411.809C1382.93 411.65 1424.63 432.326 1473.86 429.649H1473.87Z" fill="#EC99A8"/>
<path d="M1511.02 420.734C1447.67 460.188 1407.26 469.092 1391.39 478.703C1379.57 485.858 1370.6 499.241 1369.1 499.515C1368.03 499.705 1350.08 493.214 1348.29 493.572C1346.2 493.993 1324.54 522.035 1319.3 524.785C1321.81 521.887 1339.49 499.304 1337.14 499.515C1341.88 494.615 1341.49 490.958 1343.83 489.114C1352.8 482.033 1382.1 473.834 1387.67 460.873C1402.42 459.208 1408.38 456.805 1421.85 451.958C1429.62 449.155 1456.28 439.049 1453.06 434.117C1465.96 432.811 1462.61 432.726 1473.86 429.66C1493.27 424.359 1516.76 411.419 1511.01 420.745L1511.02 420.734Z" fill="#CC4485"/>
<path d="M145.986 371.68C155.606 371.733 199.351 381.217 223.267 379.11V382.081C170.093 383.42 116.244 379.299 63.5012 384.315C109.648 394.263 46.7387 391.228 23.3701 387.287C49.8678 383.662 128.982 371.596 145.976 371.68H145.986Z" fill="#EC99A8"/>
<path d="M812.527 771.529C825.75 784.606 834.452 805.85 860.824 822.068C888.133 838.865 980.859 868.94 1016.12 880.037C1000.35 883.936 1036.49 888.857 1013.89 891.924C972.167 873.419 876.764 847.496 844.461 822.058C832.408 812.563 806.448 778.146 803.593 762.603C808.218 763.794 809.567 768.61 812.506 771.518L812.527 771.529Z" fill="#426363"/>
<path d="M433.563 914.232L432.077 911.26C451.137 904.6 491.173 891.333 505.639 883.019C507.746 881.807 509.21 878.878 506.387 878.561C547.181 865.621 600.451 849.762 638.654 832.479C684.264 811.846 675.824 811.825 705.535 780.454C709.476 776.302 714.459 767.366 718.916 765.585L721.887 766.333C711.109 789.359 691.312 814.333 669.124 828.022C626.063 854.588 489.455 894.8 433.563 914.232Z" fill="#426363"/>
<path d="M1384.7 758.156C1374.84 767.356 1387.4 761.655 1383.21 767.071C1370.3 778.125 1363.78 763.552 1355.71 775.986C1345.56 774.743 1338.57 764.437 1333.42 774.5C1328.46 764.3 1328.03 774.5 1327.48 774.5C1326.71 774.5 1325 766.745 1316.33 774.5C1309.64 768.273 1309.51 769.79 1308.9 778.958L1308.16 781.93C1307.26 779.875 1307.53 779.432 1305.92 777.472C1304.14 775.291 1301.68 774.395 1300.72 768.557C1295.82 782.13 1298.82 762.045 1293.29 777.472C1281.2 761.149 1281.51 775.691 1279.91 775.986C1274.71 763.583 1270.43 775.069 1277.67 781.93C1276.19 781.961 1274.7 781.898 1273.22 781.93C1274.23 778.505 1269.11 778.726 1267.28 775.238C1265.13 771.17 1269.12 759.632 1262.07 775.986C1257.93 772.14 1244.23 765.09 1245.72 778.958C1237.45 767.935 1235.13 787.262 1235.32 771.529C1227.7 777.535 1218.4 768.125 1217.48 768.557C1216.6 768.979 1211.7 787.104 1210.06 770.043C1202.87 767.925 1195.85 781.023 1193.7 767.071C1188 776.903 1161.96 766.787 1175.13 780.454C1171.6 780.402 1168.51 780.581 1164.73 780.454C1168.84 778.231 1168.04 773.689 1165.48 770.053C1156.51 777.915 1156.63 769.685 1155.08 770.053C1154.67 770.148 1153.74 776.64 1149.14 775.997C1145.04 775.428 1145.36 770.222 1144.68 770.053C1144.15 769.916 1134.82 773.067 1134.28 773.025C1133.97 773.004 1132.1 768.568 1129.83 768.568C1126.35 768.568 1116.58 773.152 1113.47 773.025C1112.81 773.004 1109.64 768.568 1109.02 768.568C1107.81 768.568 1103.26 780.95 1095.64 768.568C1080.95 774.743 1066.09 769.864 1051.05 770.053C1049.96 770.064 1049 773.025 1048.82 773.025C1047.46 773.046 1043.92 770.043 1043.61 770.053C1043.03 770.064 1041.22 773.004 1040.64 773.025C1031.85 773.31 986.843 770.633 984.167 771.539C983.566 771.739 978.488 783.584 977.477 775.997C977.508 775.776 980.616 775.934 978.225 771.539L977.477 775.997C977.424 776.345 972.599 780.149 978.962 780.454C978.383 780.623 982.724 784.385 970.786 786.398C967.109 784.627 966.762 782.594 965.582 778.969C965.529 778.789 968.743 777.662 968.553 776.734C966.846 768.504 930.002 772.814 922.48 775.249C939.716 778.41 899.901 776.671 896.477 773.015C882.854 779.295 910.553 779.053 922.48 780.444C933.374 781.708 944.036 784.48 955.172 784.164C941.37 786.946 923.301 781.666 923.965 787.883C911.828 786.735 898.827 788.052 886.816 784.912C885.341 778.168 885.783 770.928 884.582 764.1C939.179 759.4 1055.87 766.513 1097.85 759.642C1098.03 759.61 1098.74 756.976 1100.08 756.67C1113.15 753.667 1108.16 762.234 1111.97 764.1C1113.23 764.721 1138.93 764.7 1140.2 764.1C1140.92 763.762 1140.72 758.114 1149.12 755.185C1157.11 770.391 1156.53 749.81 1162.5 764.1C1170.4 746.312 1174.38 774.806 1192.22 762.614C1200.02 770.349 1206.21 748.904 1226.4 762.614C1225.94 755.648 1240.79 757.935 1248.69 755.185C1245.49 773.879 1256.76 751.138 1256.12 765.585C1262.68 757.471 1265.87 762.319 1269.5 755.185C1278.08 770.117 1272.22 758.557 1278.41 761.128C1280.64 762.045 1280.61 765.459 1281.38 765.585C1292.19 767.314 1303.78 756.67 1305.16 756.67C1306.46 756.67 1316.32 765.47 1317.05 765.585C1320.07 766.091 1344.73 763.278 1347.52 761.866C1347.99 761.634 1346.65 757.608 1348.27 756.66C1354.6 752.94 1359.06 759.495 1360.15 759.632C1360.55 759.684 1365.92 756.333 1367.58 756.66C1368.04 756.755 1371.69 763.71 1375.01 762.603C1379.43 761.128 1372.65 755.522 1384.67 758.146L1384.7 758.156Z" fill="#562753"/>
<path d="M1203.39 618.424C1213.08 609.499 1226.29 596.179 1230.89 587.211C1229.75 598.139 1251.85 575.093 1274.73 569.371C1274.36 569.75 1274.26 574.966 1270.27 579.034C1259.88 589.603 1219.78 609.025 1203.39 618.424Z" fill="#233266"/>
<path d="M1242.03 793.827C1235.78 804.312 1238.51 800.034 1243.52 796.799C1244.33 796.272 1245.6 798.369 1245.75 798.284C1247.75 797.136 1242.7 795.913 1252.44 792.341C1232.57 818.222 1247.07 795.555 1256.16 811.667C1255.91 805.225 1255.67 798.783 1255.41 792.341C1263.81 791.667 1256.49 795.566 1264.33 793.827C1258.4 827 1267.07 801.235 1268.78 798.284C1270.44 795.45 1272.43 792.299 1276.21 792.341L1273.24 812.405C1282.16 811.004 1280.47 807.789 1287.36 804.228C1293.19 831.942 1299.57 804.839 1307.42 827.263L1301.48 832.469C1273.57 831.71 1244.61 830.109 1216.77 830.983C1216.51 822.774 1206.01 828.043 1199.68 825.04C1198.31 824.387 1183.22 806.883 1174.41 811.657C1173.01 812.416 1176.6 822.542 1151.38 830.983C1136.19 827.748 1112.77 826.958 1128.35 814.629C1131.13 812.426 1134.88 815.798 1135.04 813.88C1135.14 812.753 1125.86 801.414 1146.92 806.451C1148.45 803.701 1136.58 801.182 1149.9 793.816C1151.4 794.027 1152.12 790.265 1154.35 795.302C1142.89 800.592 1158.67 807.811 1154.35 796.788C1155.37 796.672 1156.74 797.009 1157.32 796.788C1160.73 803.058 1166.09 803.522 1164.75 795.302C1173.96 794.796 1178.1 796.83 1179.62 796.788C1182.65 810.666 1198.23 805.903 1208.6 804.217C1209.55 804.059 1214.78 813.238 1215.29 793.816C1215.79 793.848 1216.28 793.774 1216.78 793.816C1219.26 797.547 1221.37 800.845 1224.21 798.274C1224.38 798.632 1223.89 799.907 1225.69 799.76C1218.37 810.972 1227.11 801.003 1229.41 801.245C1230.41 801.351 1243.79 816.178 1234.61 796.788C1239.74 796.841 1236.95 786.903 1242.04 793.816L1242.03 793.827Z" fill="#562753"/>
<path d="M1383.21 795.312C1367.46 803.595 1378.75 802.91 1378.01 811.667C1363.16 812.489 1357.85 824.397 1341.6 821.33C1340.02 829.128 1349.68 828.433 1354.98 829.508C1346.09 840.035 1317.82 832.922 1301.48 832.479L1307.42 827.274C1299.57 804.849 1293.19 831.953 1287.36 804.238C1280.47 807.8 1282.16 811.014 1273.24 812.415L1276.21 792.351C1276.92 792.351 1282.66 796.746 1284.39 796.809C1291.15 797.072 1293.53 790.296 1297.77 793.837C1299.94 795.66 1295.28 801.087 1308.17 801.266C1304.39 789.928 1352.23 792.52 1329.71 800.518L1333.43 804.238C1357.81 796.914 1359.52 796.219 1383.21 795.323V795.312Z" fill="#EC99A8"/>
<path d="M1387.67 796.798C1389.3 796.714 1392.52 796.893 1395.1 796.798C1397.73 796.704 1400.01 796.841 1402.52 796.798C1412.53 806.82 1390.26 801.878 1418.88 813.891C1399.33 831.384 1429.29 823.807 1411.45 832.469C1395.01 831.457 1367.76 832.09 1354.98 829.497C1349.69 828.422 1340.02 829.118 1341.6 821.32C1357.85 824.387 1363.16 812.489 1378.01 811.657C1378.73 802.9 1367.46 803.585 1383.21 795.302C1384.42 795.26 1384.58 796.956 1387.67 796.788V796.798Z" fill="#562753"/>
<path d="M1072.61 795.312C1077.16 803.005 1086.13 796.25 1085.99 804.976C1085.53 806.135 1070.03 811.035 1069.63 812.405C1069.53 812.763 1072.65 814.934 1072.61 815.377C1071.06 834.303 1008 832.743 1035.46 821.32C1007.4 806.988 1030.55 811.941 1042.15 807.199C1043.02 806.841 1042.81 803.817 1045.12 802.742C1047.57 801.593 1049.8 804.976 1051.06 804.228C1051.74 803.827 1050.36 797.926 1062.21 793.827C1062.86 793.827 1060.42 795.165 1072.61 795.312Z" fill="#562753"/>
<path d="M1216.77 830.983C1216.47 830.983 1214.26 835.399 1213.05 835.441C1195.12 836.147 1172.5 838.212 1155.09 835.441C1153.77 835.23 1151.66 831.046 1151.37 830.983C1176.59 822.542 1173 812.415 1174.4 811.657C1183.21 806.883 1198.3 824.387 1199.67 825.04C1206 828.043 1216.5 822.774 1216.76 830.983H1216.77Z" fill="#EC99A8"/>
<path d="M952.97 807.21C976.012 808.959 949.694 825.619 991.605 822.079C1005.26 840.246 950.652 817.01 957.427 832.479C939.39 827.506 927.01 826.589 942.561 814.639C944.615 813.069 949.072 819.455 952.96 807.21H952.97Z" fill="#542B44"/>
<path d="M1516.97 820.582C1517.87 828.296 1499.62 830.899 1491.7 832.469C1488.01 821.415 1485.71 822.563 1476.83 816.862C1478.75 809.328 1488.07 812.7 1492.44 811.657C1494.28 811.214 1494.68 807.442 1495.41 807.199C1499.22 805.935 1512.47 817.958 1516.96 820.582H1516.97Z" fill="#672C50"/>
<path d="M1106.05 825.04C1141.32 827.105 1097.23 838.56 1102.33 827.274L1106.05 825.04Z" fill="#432F4B"/>
<path d="M999.044 795.312C1023.22 798.231 988.203 808.422 992.354 799.032L999.044 795.312Z" fill="#562753"/>
<path d="M939.6 796.798C944.763 799.833 935.66 805.039 932.91 800.518L939.6 796.798Z" fill="#562753"/>
<path d="M536.109 860.721C408.287 899.448 277.917 930.007 149.706 967.743C133.08 964.529 19.2719 971.674 13.7195 967.743C9.34711 964.645 20.6099 921.082 4.05811 862.207L536.098 860.721H536.109Z" fill="url(#paint2_linear_2007_122)"/>
<path d="M634.197 781.94C626.411 783.795 614.106 791.139 617.846 796.809V798.295C609.343 801.066 612.725 804.797 611.904 807.21C609.322 814.807 606.025 830.224 605.961 838.423C601.578 839.982 597.016 841.373 592.581 842.88L585.891 838.423C560.32 836.821 526.426 838.981 502.668 836.937C502.373 836.916 498.959 834.102 497.463 833.965C509.326 823.449 487.475 820.171 473.684 813.901C490.941 794.501 495.219 810.118 492.258 793.837C497.316 796.335 547.909 789.843 543.526 796.071C521.769 804.017 544.495 801.783 560.615 802.763C556.274 786.092 570.761 794.891 573.247 795.334C575.755 795.776 588.451 804.164 597.027 793.1C582.35 783.521 578.484 783.289 599.261 780.465C601.694 796.451 600.757 779.632 606.688 780.465C608.353 780.696 609.048 784.827 609.659 784.922C610.976 785.143 611.682 775.501 634.176 781.95L634.197 781.94Z" fill="#EC99A8"/>
<path d="M567.316 778.958C561.711 793.932 571.93 787.662 573.258 795.313C570.771 794.87 556.285 786.071 560.625 802.742C544.495 801.772 521.78 803.996 543.536 796.05C547.919 789.822 497.326 796.314 492.269 793.816C495.219 810.097 490.952 794.491 473.694 813.88C487.485 820.15 509.337 823.428 497.473 833.944C485.747 832.859 464.233 832.1 458.09 830.973C457.005 830.772 459.945 827.274 456.605 826.515C452.717 825.63 430.381 827.263 429.106 821.309C427.515 813.891 453.718 814.976 455.109 814.618C456.794 814.186 450.104 808.527 471.46 808.675C478.467 804.017 456.384 809.054 469.975 792.32C430.845 790.729 436.292 797.789 434.311 798.263C432.941 798.59 414.303 798.474 417.222 792.32L418.707 781.919L420.941 777.461C431.35 785.923 430.95 778.968 433.573 778.947C433.858 778.947 431.119 780.222 436.545 780.433C441.697 780.633 448.271 778.947 449.177 778.947C450.073 778.947 453.075 785.807 464.781 780.433C479.204 776.798 508.115 782.477 522.001 780.433C523.602 780.201 524.561 775.839 524.972 775.976C526.458 776.45 524.993 780.127 526.458 780.433C532.589 781.729 557.854 779.39 567.326 778.947L567.316 778.958Z" fill="#562753"/>
<path d="M189.826 829.497C185.981 837.538 150.517 835.009 138.559 833.955C137.326 833.849 137.969 830.994 137.811 830.983C151.75 818.548 138.222 817.737 137.811 816.862C136.757 814.649 141.646 811.594 137.063 805.713C121.291 803.427 134.302 816.999 112.546 809.433C118.794 801.656 106.562 794.596 119.236 792.341C193.598 791.129 149.948 794.343 152.677 802.004C166.774 807.42 173.106 802.847 174.223 802.752C174.834 802.7 176.572 806.462 178.68 805.724C184.506 803.69 176.046 790.328 214.343 793.837C211.299 808.422 212.932 818.749 212.11 819.845C210.972 821.362 164.203 824.734 189.816 829.508L189.826 829.497Z" fill="#EC99A8"/>
<path d="M295.354 792.341C285.966 822.827 302.033 807.537 303.53 807.21C303.856 807.136 304.889 812.447 309.472 810.182C310.494 809.676 311.568 804.46 312.443 804.238C314.961 803.595 315.256 812.742 322.104 800.518C306.648 784.785 322.326 797.41 339.193 792.341C343.987 793.922 330.807 816.884 345.884 830.983C357.568 838.971 307.301 838.065 288.663 836.927C278.244 836.294 272.459 832.522 271.574 832.469C286.999 825.367 260.143 822.5 259.69 821.32C259.216 820.108 261.692 800.423 256.719 796.05C263.757 783.879 264.368 805.239 273.808 792.33L282.721 801.245C285.218 799.18 280.877 777.419 288.663 799.76C288.095 794.038 292.667 794.638 295.354 792.33V792.341Z" fill="#EC99A8"/>
<path d="M772.407 814.639H770.921C770.795 813.585 767.297 802.91 766.465 793.827C770.627 792.531 770.574 804.059 772.407 814.639Z" fill="#795C48"/>
<path d="M766.465 787.883C766.033 780.243 764.916 779.411 764.979 778.968C768.962 777.567 769.246 785.765 766.465 787.883Z" fill="#795C48"/>
<path d="M1164.75 780.444C1151.17 779.99 1154.23 781.908 1153.6 781.929C1153.08 781.951 1149.57 777.367 1149.15 777.472C1148.33 777.672 1146.94 783.331 1146.18 783.415C1145.86 783.447 1143.76 778.779 1141.72 778.958C1141.15 779.01 1133.3 783.426 1132.81 783.415C1132.16 783.415 1128.98 778.958 1128.35 778.958C1127.32 778.958 1129.55 780.475 1109.78 780.444C1108.3 776.945 1106.37 776.355 1106.8 780.444C1102.75 779.579 1103.29 777.335 1103.09 777.472C1101.54 778.547 1106.99 786.092 1086.73 778.958C1075.66 782.541 1059.67 780.528 1045.87 780.444C1046.96 777.166 1053.65 776.703 1048.84 773.014C1049.03 773.014 1049.98 770.053 1051.07 770.043C1066.1 769.853 1080.96 774.732 1095.66 768.557C1103.29 780.939 1107.82 768.557 1109.04 768.557C1109.67 768.557 1112.83 772.993 1113.49 773.014C1116.6 773.141 1126.36 768.546 1129.85 768.557C1132.12 768.557 1133.99 772.993 1134.3 773.014C1134.84 773.046 1144.18 769.906 1144.7 770.043C1145.38 770.222 1145.06 775.417 1149.16 775.986C1153.77 776.629 1154.69 770.138 1155.1 770.043C1156.66 769.674 1156.54 777.904 1165.5 770.043C1168.06 773.678 1168.87 778.22 1164.75 780.444Z" fill="#C56185"/>
<path d="M1273.24 781.94C1266.4 782.077 1257.06 778.916 1250.21 778.968C1249.64 778.968 1247.8 781.94 1247.24 781.94C1225.46 781.982 1226.13 777.482 1224.94 777.482C1224.48 777.482 1223.39 781.951 1221.97 781.94C1220.08 781.94 1216.22 778.989 1210.09 778.968C1209.26 778.968 1211.64 782.014 1195.22 781.94C1194.6 781.94 1191.39 777.482 1190.76 777.482C1189.9 777.482 1193.4 780.728 1175.16 780.454C1161.99 766.787 1188.04 776.903 1193.74 767.071C1195.87 781.034 1202.89 767.925 1210.09 770.043C1211.73 787.104 1216.63 768.978 1217.52 768.557C1218.42 768.125 1227.74 777.535 1235.35 771.529C1235.17 787.272 1237.49 767.935 1245.75 778.958C1244.27 765.09 1257.96 772.14 1262.1 775.986C1269.15 759.631 1265.16 771.17 1267.31 775.238C1269.14 778.715 1274.26 778.505 1273.25 781.929L1273.24 781.94Z" fill="#C56185"/>
<path d="M1383.21 767.071C1380.15 776.271 1408.26 761.012 1395.85 780.454C1372.79 781.381 1351.64 778.157 1327.48 781.94C1324.59 775.196 1326.68 780.138 1314.85 780.454C1317 777.893 1314.08 776.534 1316.33 774.511C1325 766.755 1326.71 774.511 1327.48 774.511C1328.03 774.511 1328.46 764.31 1333.42 774.511C1338.57 764.447 1345.56 774.753 1355.71 775.997C1363.78 763.562 1370.3 778.136 1383.21 767.082V767.071Z" fill="#C56185"/>
<path d="M1048.83 773.014C1053.64 776.703 1046.95 777.177 1045.85 780.444C1033.15 780.37 983.166 779.242 978.973 780.444C972.609 780.138 977.435 776.334 977.487 775.986C978.499 783.573 983.577 771.729 984.178 771.529C986.854 770.622 1031.86 773.299 1040.65 773.014C1041.24 772.993 1043.04 770.053 1043.62 770.043C1043.92 770.043 1047.47 773.035 1048.83 773.014Z" fill="#DF7A9B"/>
<path d="M1443.4 765.585C1446.53 781.276 1451.8 758.957 1459.01 778.22L1453.8 781.94C1425.88 776.555 1394.01 788.537 1406.24 770.053C1413.37 775.849 1420.91 769.21 1427.05 768.567C1428.12 768.452 1426.84 771.929 1430.02 771.539C1431.2 771.392 1430.34 768.683 1431.51 768.567C1432.82 768.43 1442.27 772.825 1443.39 765.596L1443.4 765.585Z" fill="#C56185"/>
<path d="M965.603 778.958C951.239 779.456 936.871 779.952 922.5 780.444C910.574 779.053 882.865 779.295 896.498 773.014C899.922 776.671 939.748 778.41 922.5 775.248C930.023 772.814 966.867 768.504 968.574 776.734C968.763 777.651 965.539 778.789 965.603 778.968V778.958Z" fill="#C56185"/>
<path d="M1215.28 793.827C1214.78 813.248 1209.54 804.08 1208.59 804.228C1198.23 805.914 1182.65 810.666 1179.61 796.798C1179.85 796.798 1182.52 793.848 1183.33 793.827C1191.82 793.574 1191.78 796.798 1192.24 796.798C1193.45 796.798 1194.71 792.478 1215.27 793.827H1215.28Z" fill="#EC99A8"/>
<path d="M1305.93 777.472C1293.74 785.228 1286.98 777.472 1285.87 777.472C1284.91 777.472 1284.29 781.803 1277.7 781.929C1270.44 775.069 1274.74 763.583 1279.93 775.986C1281.52 775.691 1281.22 761.149 1293.31 777.472C1298.84 762.034 1295.84 782.13 1300.74 768.557C1301.7 774.395 1304.15 775.301 1305.94 777.472H1305.93Z" fill="#DF7A9B"/>
<path d="M1255.4 792.341C1255.65 798.783 1255.9 805.225 1256.15 811.667C1247.07 795.566 1232.56 818.233 1252.43 792.341C1252.97 792.141 1254.3 792.425 1255.4 792.341Z" fill="#EC99A8"/>
<path d="M1234.6 796.798C1243.79 816.188 1230.41 801.361 1229.4 801.256C1227.1 801.014 1218.37 810.982 1225.68 799.77C1228.55 795.376 1233.2 789.232 1234.59 796.798H1234.6Z" fill="#EC99A8"/>
<path d="M1268.78 798.284C1267.07 801.235 1258.41 827 1264.33 793.827L1268.78 798.284Z" fill="#EC99A8"/>
<path d="M1316.34 774.5C1314.09 776.524 1317.01 777.893 1314.86 780.444C1312.25 780.507 1311.11 780.433 1308.91 778.958C1309.53 769.79 1309.65 768.272 1316.34 774.5Z" fill="#DF7A9B"/>
<path d="M1164.75 795.313C1166.09 803.543 1160.73 803.068 1157.32 796.798C1163.5 794.48 1159.86 795.576 1164.75 795.313Z" fill="#EC99A8"/>
<path d="M1154.34 795.312V796.798C1158.66 807.821 1142.88 800.592 1154.34 795.312Z" fill="#EC99A8"/>
<path d="M1395.11 796.798C1392.53 796.893 1389.31 796.714 1387.68 796.798C1386.76 792.32 1393.74 792.52 1395.11 796.798Z" fill="#DF7A9B"/>
<path d="M1224.2 798.284C1221.36 800.855 1219.25 797.557 1216.77 793.827C1221.05 794.195 1219.84 789.369 1224.2 798.284Z" fill="#CB87A5"/>
<path d="M1243.52 796.798C1238.51 800.023 1235.78 804.312 1242.03 793.827L1243.52 796.798Z" fill="#EC99A8"/>
<path d="M1109.77 780.444C1108.14 780.444 1109.22 780.96 1106.79 780.444C1106.36 776.355 1108.29 776.945 1109.77 780.444Z" fill="#8F405B"/>
<path d="M640.139 767.071C615.233 768.694 590.02 772.298 565.092 773.015C550.89 773.426 526.974 770.032 524.961 770.043C524.403 770.043 522.549 773.015 521.99 773.015C510.927 772.994 503.911 767.788 492.268 773.015C486.126 769.779 468.563 767.946 464.77 774.5C461.904 774.469 460.935 771.761 458.828 770.043C453.223 765.459 450.115 766.302 452.885 762.614C483.64 765.037 571.003 760.232 612.651 762.614C621.817 764.103 630.984 765.589 640.15 767.071H640.139Z" fill="#562753"/>
<path d="M210.635 781.94C197.349 776.85 167.754 785.734 160.853 777.482C157.028 783.921 126.559 780.749 115.528 778.968C112.514 774.648 114.284 773.099 117.761 770.053C141.13 778.347 165.889 761.802 168.291 777.482C166.953 769.042 180.745 775.08 184.643 777.482C190.164 762.793 201.5 778.705 206.937 778.968C208.728 779.053 211.014 768.188 210.656 781.94H210.635Z" fill="#C56185"/>
<path d="M386.752 768.557C398.342 778.852 388.175 762.614 399.385 775.248C390.693 787.114 387.416 774.7 377.839 781.94C365.902 780.739 365.344 777.503 364.459 777.482C362.151 777.43 332.819 789.106 346.621 770.053C352.068 779.622 353.333 770.032 354.049 770.053C358.569 770.169 362.467 774.448 362.962 774.511C365.512 774.827 366.85 771.465 367.419 771.539C368.863 771.718 367.388 775.143 368.905 775.997C373.288 778.473 372.065 770.949 374.847 770.053C380.926 768.093 381.579 782.109 386.731 768.567L386.752 768.557Z" fill="#C56185"/>
<path d="M106.604 778.958C100.156 785.154 81.9497 777.451 80.6011 777.472C80.1691 777.472 74.0794 781.929 73.1733 781.929C72.7413 781.929 70.6131 778.947 64.9975 778.958C53.566 764.605 92.4328 775.796 102.895 770.043C107.562 772.656 111.871 773.9 106.614 778.958H106.604Z" fill="#C56185"/>
<path d="M299.81 780.444C285.45 780.359 271.068 780.496 256.708 780.444C257.793 763.931 272.101 776.629 275.283 768.557C279.887 774.437 284.565 768.494 285.682 768.557C286.725 768.62 283.891 772.361 287.167 773.014C290.707 773.731 294.205 763.699 299.8 780.444H299.81Z" fill="#C56185"/>
<path d="M307.976 770.043C315.298 778.399 312.422 770.18 315.404 770.043C316.489 769.99 315.793 773.025 316.889 773.014C324.675 772.983 325.339 770.022 325.802 770.043C326.329 770.074 327.193 774.353 328.774 774.5C329.722 774.584 337.613 765.174 341.406 781.192C314.982 777.324 296.882 787.852 307.965 770.043H307.976Z" fill="#C56185"/>
<path d="M253.737 778.958C240.504 779 226.965 780.359 213.606 780.444C208.633 765.29 221.719 776.998 224.753 775.986C226.449 775.417 231.675 763.878 228.472 775.238L233.677 777.472C239.714 764.194 238.534 774.258 244.076 774.5C244.929 774.542 251.788 762.224 253.737 778.958Z" fill="#C56185"/>
<path d="M433.563 778.958C430.94 778.979 431.34 785.934 420.931 777.472L418.697 781.929C412.607 772.161 396.066 791.614 403.093 771.529C418.149 781.972 406.992 769.41 419.445 774.5C420.731 763.309 427.431 776.46 434.311 770.043L433.563 778.958Z" fill="#DF7A9B"/>
<path d="M464.77 774.5C463.106 777.377 462.737 777.409 464.77 780.444C453.065 785.807 450.062 778.958 449.167 778.958C448.261 778.958 441.686 780.644 436.534 780.444C438.652 777.345 440.369 775.512 440.991 771.529C448.777 780.233 449.388 767.176 455.109 778.958L458.828 770.043C460.935 771.76 461.915 774.469 464.77 774.5Z" fill="#C56185"/>
<path d="M357.02 789.369C366.26 804.976 353.385 794.29 346.621 805.724C338.024 776.65 347.759 805.545 357.02 789.369Z" fill="#DF7A9B"/>
<path d="M305.005 796.798H306.49C310.726 803.142 305.426 803.363 305.005 796.798Z" fill="#AE527A"/>
<path d="M440.99 771.529C441.022 771.307 437.83 771.529 440.242 767.071C441.781 768.199 440.59 771.086 440.99 771.529Z" fill="#DF7A9B"/>
<path d="M71.6774 793.827C87.0598 791.298 123.451 789.453 99.9135 811.667C93.0441 801.604 87.4285 808.822 86.533 808.696C86.101 808.632 83.9938 805.123 79.1052 804.238C78.6311 804.154 77.272 807.937 73.163 807.21C72.4571 807.083 68.2849 801.467 62.7641 804.238C58.0335 797.473 65.4086 794.859 71.6774 793.837V793.827Z" fill="#EC99A8"/>
<path d="M221.782 792.341C228.746 803.037 231.833 782.014 238.133 799.77C252.367 787.22 261.839 794.196 247.047 810.171C242.78 795.766 238.871 811.33 238.133 811.657C237.016 812.142 228.535 804.449 226.249 804.228C224.985 804.101 211.119 815.63 221.792 792.341H221.782Z" fill="#EC99A8"/>
<path d="M705.525 780.444C675.814 811.815 684.253 811.836 638.644 832.469L637.158 828.011C648.758 823.385 665.184 817.579 675.056 810.171C686.519 801.572 695.864 782.762 705.525 780.444Z" fill="#F0D4D1"/>
<path d="M799.158 921.661L797.672 923.147C796.935 918.374 795.312 915.866 794.701 908.278C794.88 908.963 796.081 908.805 799.158 921.661Z" fill="#5C553D"/>
<path d="M794.701 908.278C793.816 904.906 791.677 901.608 793.953 897.877C797.082 905.654 794.659 907.762 794.701 908.278Z" fill="#755A34"/>
<path d="M1453.07 434.107C1456.28 439.038 1429.63 449.144 1421.86 451.947C1394.52 450.535 1305.55 443.327 1290.33 444.518C1280.44 445.287 1228.59 460.894 1192.99 459.387L1206.37 449.724C1203.89 445.516 1201.41 441.304 1198.94 437.089C1269.5 432.916 1393.07 440.198 1453.08 434.117L1453.07 434.107Z" fill="#AE527A"/>
<path d="M1421.86 451.947C1408.39 456.805 1402.43 459.208 1387.68 460.862C1364.17 463.507 1305.09 462.443 1276.22 462.348L1193 459.376C1228.6 460.883 1280.45 445.277 1290.34 444.507C1305.55 443.327 1394.52 450.535 1421.87 451.937L1421.86 451.947Z" fill="#EC99A8"/>
<path d="M1387.67 460.862C1382.1 473.824 1352.8 482.022 1343.83 489.104C1341.49 490.948 1341.88 494.615 1337.14 499.505C1322.29 514.848 1331.3 499.873 1330.45 499.505C1324.16 496.786 1304.34 491.39 1299.24 487.618C1298.22 486.87 1291.43 475.236 1282.89 468.292C1280.16 466.068 1274.45 468.407 1276.2 462.348C1305.07 462.443 1364.15 463.507 1387.66 460.862H1387.67Z" fill="#AE527A"/>
<path d="M638.654 775.986C629.182 771.95 621.07 777.514 620.079 777.472C618.857 777.419 606.267 768.884 598.534 775.238C617.762 778.768 590.284 777.883 567.326 778.958C557.855 779.4 532.59 781.74 526.458 780.444C524.993 780.138 526.458 776.46 524.972 775.986C524.561 775.86 523.603 780.212 522.001 780.444C508.125 782.488 479.215 776.808 464.781 780.444C462.747 777.398 463.116 777.377 464.781 774.5C468.574 767.946 486.126 769.779 492.279 773.014C503.922 767.788 510.938 772.993 522.001 773.014C522.56 773.014 524.414 770.043 524.972 770.043C526.985 770.043 550.901 773.425 565.103 773.014C590.031 772.287 615.243 768.683 640.15 767.071C640.825 770.696 639.908 772.688 638.665 775.986H638.654Z" fill="#C56185"/>
<path d="M638.655 775.986C636.737 781.097 634.398 781.613 634.198 781.929C611.693 775.48 610.987 785.122 609.681 784.901C609.07 784.796 608.375 780.675 606.71 780.444C600.768 779.611 601.705 796.429 599.282 780.444C578.516 783.268 582.372 783.499 597.048 793.078C588.472 804.133 575.777 795.755 573.269 795.312C571.942 787.672 561.722 793.932 567.327 778.958C590.284 777.883 617.762 778.768 598.534 775.238C606.267 768.884 618.868 777.409 620.08 777.472C621.07 777.514 629.183 771.95 638.655 775.986Z" fill="#8F405B"/>
<path d="M617.846 796.798C614.095 791.129 626.412 783.795 634.198 781.929C629.657 789.042 630.932 796.703 617.846 796.798Z" fill="#672C50"/>
<path d="M611.904 807.21C612.726 804.797 609.344 801.066 617.846 798.295C626.844 799.686 617.319 806.462 611.904 807.21Z" fill="#3F222D"/>
<path d="M1242.77 768.557L1243.52 769.305V770.791L1242.77 771.539H1241.28L1240.54 770.791L1241.28 770.043L1242.03 769.295L1242.78 768.546L1242.77 768.557Z" fill="#AA6E8E"/>
<path d="M977.498 775.986L978.246 771.529C980.648 775.923 977.53 775.765 977.498 775.986Z" fill="#DF7A9B"/>
<path d="M1055.52 810.181C1056.03 809.834 1058.78 809.939 1059.23 810.93C1056.26 815.334 1052.86 811.994 1055.52 810.181Z" fill="#834468"/>
<path d="M547.255 822.068C549.173 821.836 585.585 823.501 583.667 828.76C569.05 829.006 554.437 829.255 539.827 829.508C533.537 824.639 543.346 822.542 547.255 822.079V822.068Z" fill="#361F34"/>
<path d="M514.553 798.284C522.075 797.926 524.825 804.238 510.096 802.742C506.967 800.676 514.236 798.295 514.553 798.284Z" fill="#562753"/>
<path d="M472.946 798.284C479.942 800.265 478.762 806.451 472.198 802.004L472.946 798.284Z" fill="#C56185"/>
<path d="M327.299 813.153L333.989 816.873C334.453 823.796 305.679 819.434 327.299 813.153Z" fill="#542B44"/>
<path d="M772.407 750.716C772.913 753.119 774.219 760.295 776.126 761.117C853.354 756.628 1013.44 751.538 1083.76 756.66C1086.43 756.849 1094.58 758.651 1097.88 759.631C1055.92 766.502 939.221 759.389 884.614 764.089C885.815 770.917 885.372 778.157 886.847 784.901C890.988 803.869 903.873 819.139 910.627 836.926C892.906 830.456 867.166 824.355 851.921 813.143C836.676 801.92 829.069 781.529 812.538 771.518C809.598 768.61 808.25 763.794 803.625 762.603C800.464 761.792 775.22 762.603 766.475 762.603C757.214 762.603 759.427 764.068 759.047 764.089C748.459 764.553 727.587 762.118 718.916 765.575C714.46 767.356 709.476 776.281 705.536 780.444C695.874 782.772 686.529 801.572 675.066 810.171C665.194 817.579 648.768 823.375 637.169 828.011C626.843 832.132 616.35 834.724 605.961 838.412C606.025 830.203 609.322 814.797 611.904 807.199C617.319 806.451 626.843 799.675 617.846 798.284V796.798C630.921 796.714 629.656 789.053 634.197 781.929C634.398 781.613 636.737 781.097 638.654 775.986C639.897 772.677 640.824 770.696 640.14 767.071C630.973 765.582 621.807 764.096 612.641 762.614C570.993 760.232 483.629 765.037 452.875 762.614C448.029 762.234 440.991 762.814 442.476 756.67C496.378 749.989 681.482 756.459 747.879 761.128C751.904 758.441 749.291 754.067 750.113 750.727H772.407V750.716Z" fill="#EC99A8"/>
<path d="M772.407 750.716H750.113C750.925 747.407 750.356 740.769 768.688 744.773C780.962 747.45 772.291 750.158 772.407 750.716Z" fill="#52436B"/>
<path d="M1127.59 636.265C1127.75 636.707 1127.42 637.319 1127.59 637.751C1097.21 649.838 1081.93 666.361 1079.3 667.478C1059.9 675.708 1011.09 661.587 1006.47 701.663C1026 683.685 1073.69 675.034 1086.72 668.964C1089.13 667.847 1118.46 644.379 1132.05 642.208C1132.53 643.23 1133.04 644.168 1133.53 645.18C1136.3 650.839 1143 659.69 1146.91 665.244C1115.42 692.358 1072.68 689.007 1058.49 694.234C1055.31 695.403 1028.23 717.196 997.558 722.475V719.503C1047.48 696.995 1033.85 691.947 1006.47 704.634C999.518 707.859 991.131 722.401 933.648 731.39C936.05 722.401 910.131 741.527 888.322 739.567C891.957 735.858 913.039 724.266 913.587 721.727C913.703 721.189 910.606 718.249 910.616 718.007C911.101 701.03 913.492 709.376 949.251 707.606C928.496 730.284 931.14 731.569 955.941 713.549C973.863 700.535 981.091 686.973 987.897 679.365C989.582 677.478 990.741 675.223 992.353 673.421C994.503 671.019 996.631 666.582 999.781 663.02C1010.36 651.071 1010.46 655.665 1014.65 651.871C1016.86 649.859 1013.5 648.426 1033.97 633.293C1049.59 621.744 1059.55 614.283 1077.07 608.023C1102.54 598.929 1120 603.144 1115.71 587.211C1120.53 587.643 1125.31 629.889 1127.59 636.265Z" fill="#19486D"/>
<path d="M1112.74 703.159C1112.98 703.475 1112.5 704.308 1112.74 704.645C1092.17 708.428 1053.45 726.269 1038.43 728.429C1031.5 729.419 1026.82 729.778 1030.25 726.943C1049.98 721.031 1069.74 705.646 1088.21 698.702C1090.6 697.806 1142.91 683.148 1126.84 691.272C1120.3 693.686 1114.02 697.553 1108.27 700.936C1110.05 702.337 1110.89 700.756 1112.73 703.17L1112.74 703.159Z" fill="#233266"/>
<path d="M1201.16 625.864C1200.48 655.897 1146 684.202 1143.94 680.123C1163.01 662.04 1182.09 643.954 1201.16 625.864Z" fill="#233266"/>
<path d="M1112.74 704.645L1114.97 707.617C1090.98 716.985 1067.42 728.313 1041.41 729.915C1040.44 729.578 1038.35 730.716 1038.44 728.429C1053.45 726.269 1092.18 708.428 1112.75 704.645H1112.74Z" fill="#AD397D"/>
<path d="M1132.06 642.208C1118.47 644.379 1089.13 667.847 1086.73 668.964C1073.7 675.034 1026.02 683.685 1006.48 701.663C1011.1 661.587 1059.91 675.708 1079.31 667.478C1081.94 666.361 1097.22 649.838 1127.6 637.751C1128.12 639.089 1131.42 640.849 1132.06 642.208Z" fill="#AD397D"/>
<path d="M987.897 679.375C981.101 686.983 973.863 700.546 955.942 713.56C931.14 731.58 928.506 730.294 949.252 707.617C953.771 702.685 961.694 693.749 965.603 689.776C965.867 689.512 969.112 690.598 971.545 685.318C979.384 682.947 980.733 678.774 987.897 679.375Z" fill="#CC4485"/>
<path d="M1115.71 587.211C1119.98 603.144 1102.54 598.929 1077.07 608.023C1077.37 601.121 1112.31 586.906 1115.71 587.211Z" fill="#CC4485"/>
<path d="M-1.88428 446.004C-1.88428 442.042 -1.88428 438.079 -1.88428 434.117C12.729 441.156 22.3482 449.671 -1.88428 446.004Z" fill="#233266"/>
<path d="M576.229 729.914C565.862 725.594 518.124 691.947 513.814 682.347C527.206 688.332 553.05 711.357 557.654 713.56C565.64 717.374 589.43 718.839 611.155 735.858C615.907 741.306 578.947 731.042 576.229 729.914Z" fill="#452D63"/>
<path d="M613.389 715.046C616.813 719.914 621.934 722.422 626.77 725.447C709.982 763.204 607.816 733.645 587.387 716.532L588.135 712.074C593.002 713.349 604.307 709.661 613.4 715.046H613.389Z" fill="#452D63"/>
<path d="M244.824 527.757C246.467 528.21 249.08 527.325 250.766 527.757C261.017 530.37 277.316 526.439 289.401 545.597C290.539 547.399 294.648 555.029 290.149 554.512C280.235 544.543 261.881 541.456 250.766 535.186C247.51 533.352 244.666 530.918 241.853 528.494L244.824 527.746V527.757Z" fill="#233266"/>
<path d="M244.823 527.756L241.852 528.505C244.676 530.928 247.521 533.363 250.766 535.196C244.349 539.485 236.152 519.59 238.881 535.944C279.644 571.636 269.783 566.82 227.734 544.122L224.015 546.356C262.914 563.859 255.033 590.256 261.165 599.867C263.725 603.882 291.508 616.264 306.49 627.371C316.33 634.652 325.022 645.222 334.726 652.641C355.534 668.553 382.675 685.002 365.933 668.995C352.7 656.339 337.897 644.358 324.317 631.839C318.869 626.812 301.959 617.254 299.8 614.746C292.688 606.495 279.518 558.337 256.697 543.395L258.931 541.161C296.27 553.89 293.71 570.93 319.86 594.672C323.337 583.323 298.24 575.345 323.579 577.579C319.681 558.126 302.602 552.457 292.372 544.132C283.933 537.262 265.189 522.603 272.311 523.32C292.161 528.399 293.868 538.937 300.548 544.132C308.797 550.56 316.172 549.591 316.899 550.076C320.281 552.394 323.495 569.434 327.298 570.888C330.375 572.058 343.639 569.792 348.844 570.888C354.07 571.984 369.631 578.644 374.109 581.289C378.566 583.923 382.938 592.786 385.256 593.175C393.4 594.566 398.51 581.91 406.802 591.69C409.162 594.461 410.3 601.311 413.492 603.576C414.588 604.356 433.468 608.887 438.757 612.491C447.871 618.698 464.517 650.048 471.45 655.602C478.878 661.545 489.129 660.66 498.948 671.956C502.531 676.077 506.956 687.321 510.833 692.02C527.532 712.211 554.799 720.905 576.229 734.383C584.879 739.82 573.974 737.333 556.169 734.383C487.148 722.928 481.627 687.173 423.901 660.059L420.93 663.031C458.807 687.099 489.614 720.694 533.137 735.12L529.418 737.354C505.354 729.746 482.323 719.672 458.828 710.599C458.596 710.42 460.25 708.533 455.109 706.141C447.533 705.962 455.288 709.229 458.828 710.599C472.777 721.263 488.075 737.038 505.639 737.354C509.073 740.094 508.894 742.36 504.153 741.812C486.474 734.235 407.887 686.298 400.122 679.386C390.471 670.797 360.908 630.68 345.135 615.473L341.416 616.222C376.838 667.162 410.384 695.277 462.536 728.45C468.879 732.486 495.535 742.57 468.479 737.365C460.756 735.879 420.361 725.204 412.007 722.496C327.288 695.129 296.481 641.86 290.138 637.772C286.177 635.211 251.767 625.748 239.608 619.931C223.457 612.207 156.27 567.136 154.152 571.626C185.812 600.573 240.641 621.08 254.464 630.342C268.634 639.826 296.586 674.085 331.744 695.751C349.613 706.763 369.81 714.002 388.217 723.992C330.343 711.231 270.552 706.099 212.847 692.779C146.84 677.541 68.8008 647.656 -1.9054 636.296C-1.94755 575.356 -1.94755 514.405 -1.9054 453.465C23.3701 442.748 1.52929 476.068 4.03682 489.883C5.19577 496.269 61.5942 590.604 86.5221 585.757C102.084 609.045 133.08 637.624 114.021 610.278C106.466 599.445 17.3436 507.924 15.9318 494.341C15.8159 493.266 21.421 480.926 21.874 473.529C23.6651 444.286 29.207 439.028 -1.9054 429.681C-1.9054 425.223 -1.9054 420.766 -1.9054 416.298C21.8705 428.929 45.65 441.564 69.4329 454.202C28.1218 444.729 71.8562 459.893 78.3463 466.089C80.1374 467.796 104.349 505.353 105.097 507.713C107.826 516.26 98.828 534.912 102.126 543.384C102.937 545.481 137.315 559.823 141.509 564.934C154.478 564.291 109.985 546.124 108.068 540.412C105.581 532.983 121.986 507.028 96.1835 479.472C114.242 459.829 125.104 473.898 155.627 485.415C145.523 486.817 171.968 522.814 186.097 529.263C196.59 528.568 156.902 489.609 160.094 485.415C164.919 485.331 184.716 475.678 186.097 475.752C192.313 476.1 223.351 521.887 244.802 527.778L244.823 527.756Z" fill="#09395E"/>
<path d="M26.3518 411.809C31.2089 416.329 35.1387 422.557 40.4699 426.677C96.1519 469.672 178.858 466.584 190.574 471.274C191.575 471.674 203.512 483.772 206.178 486.143C207.105 486.965 210.15 493.456 217.325 499.526C229.23 509.579 251.387 517.071 250.766 527.767C249.069 527.335 246.467 528.22 244.823 527.767C223.372 521.876 192.334 476.089 186.118 475.742C184.737 475.668 164.941 485.31 160.115 485.405C156.933 489.599 196.622 528.557 186.118 529.253C171.989 522.793 145.544 486.806 155.648 485.405C125.126 473.877 114.253 459.819 96.2046 479.462C122.017 507.018 105.613 532.983 108.089 540.402C109.996 546.124 154.489 564.281 141.53 564.924C137.337 559.802 102.958 545.46 102.147 543.374C98.8491 534.901 107.847 516.249 105.118 507.703C104.37 505.343 80.1585 467.796 78.3674 466.079C71.8773 459.882 28.1429 444.718 69.454 454.192C45.6711 441.546 21.8917 428.904 -1.88428 416.266C-1.88428 405.865 -1.88428 395.454 -1.88428 385.053C7.19763 394.358 16.8379 402.957 26.3518 411.809Z" fill="#CC4485"/>
<path d="M-1.88428 453.433C-1.88428 450.957 -1.88428 448.48 -1.88428 446.004C22.3482 449.66 12.729 441.156 -1.88428 434.117C-1.88428 432.631 -1.88428 431.146 -1.88428 429.66C29.2281 439.007 23.6863 444.265 21.8952 473.508C21.4421 480.905 15.837 493.245 15.9529 494.32C17.3647 507.903 106.488 599.435 114.042 610.257C133.101 637.592 102.105 609.014 86.5432 585.736C61.6154 590.583 5.22743 496.248 4.05795 489.862C1.53988 476.047 23.3913 442.727 -1.88428 453.444V453.433Z" fill="#AD397D"/>
<path d="M512.329 679.375C512.529 680.524 513.33 681.261 513.814 682.347C518.134 691.947 565.862 725.594 576.229 729.915V734.372C554.799 720.894 527.532 712.201 510.833 692.01C506.945 687.31 502.53 676.066 498.948 671.946C503.795 673.832 507.472 677.215 512.329 679.375Z" fill="#AD397D"/>
<path d="M358.506 584.239C363.163 581.573 399.438 654.854 406.802 665.254C425.377 691.473 456.289 708.776 422.406 689.776C401.861 673.843 368.504 610.858 358.506 584.239Z" fill="#AD397D"/>
<path d="M458.828 710.588C455.288 709.218 447.544 705.941 455.109 706.131C460.239 708.523 458.596 710.409 458.828 710.588Z" fill="#CC4485"/>
<path d="M250.766 535.186C261.881 541.445 280.234 544.533 290.149 554.512C294.658 555.028 290.549 547.399 289.401 545.597L292.372 544.111C302.602 552.436 319.691 558.106 323.579 577.558C298.251 575.324 323.337 583.301 319.86 594.651C293.71 570.909 296.27 553.869 258.931 541.14L256.697 543.374C279.518 558.316 292.688 606.474 299.8 614.725C301.959 617.233 318.88 626.791 324.317 631.818C337.887 644.337 352.7 656.329 365.933 668.974C382.675 684.981 355.534 668.532 334.726 652.619C325.022 645.201 316.33 634.631 306.49 627.35C291.508 616.253 263.725 603.861 261.165 599.846C255.033 590.235 262.903 563.838 224.015 546.335L227.734 544.101C269.783 566.799 279.644 571.615 238.881 535.923C236.152 519.579 244.36 539.475 250.766 535.175V535.186Z" fill="#CC4485"/>
<path d="M272.312 573.839C305.384 622.555 293.299 630.69 271.563 579.044L272.312 573.839Z" fill="#233266"/>
<path d="M965.603 689.776C961.694 693.749 953.771 702.674 949.251 707.616C913.482 709.387 911.101 701.051 910.616 718.017C873.73 721.843 773.323 728.935 746.394 737.344C743.918 738.113 742.053 744.341 740.452 744.773C734.878 746.301 643.153 720.146 626.759 725.446C621.923 722.422 616.803 719.904 613.379 715.046C613.115 714.666 612.557 711.969 608.922 706.868C648.948 696.836 895.592 709.45 909.868 704.634C910.953 704.265 910.174 699.344 912.839 698.691C928.643 694.792 945.311 693.728 961.136 689.776C962.411 689.46 964.181 689.966 965.592 689.776H965.603Z" fill="#EC99A8"/>
<path d="M1118.68 533.7C1125.9 552.984 1145.12 621.923 1143.94 626.601C1143.7 627.55 1130.94 636.655 1127.59 636.265C1125.31 629.889 1120.53 587.643 1115.71 587.211C1112.3 586.905 1077.37 601.121 1077.07 608.023C1059.55 614.283 1049.6 621.743 1033.97 633.293V628.835C1035.7 628.424 1048.66 619.351 1046.6 615.452C1021.59 615.221 996.557 615.579 971.556 615.452C972.378 610.658 970.207 609.098 970.07 608.023C969.649 604.651 971.092 588.465 969.322 587.211L554.683 582.753C551.059 585.23 552.713 590.72 552.45 596.137C552.376 597.78 552.924 599.224 550.964 599.108C503.132 595.863 454.593 592.701 407.55 587.221L406.802 591.679C398.5 581.9 393.401 594.556 385.256 593.165C382.938 592.775 378.566 583.913 374.109 581.278C377.723 571.067 380.094 560.487 383.023 550.065C444.415 550.655 505.997 544.438 567.305 544.122C626.201 543.816 685.549 546.198 744.16 550.813C718.147 557.6 571.973 549.675 563.597 553.047C560.531 554.28 557.212 569.697 559.14 570.888C694.463 568.601 829.575 575.272 964.866 576.831C966.362 575.978 958.734 549.254 957.438 548.59C947.482 543.468 761.882 552.13 733.772 543.384C797.935 537.978 862.573 536.608 926.968 535.207C990.9 533.826 1054.74 533.152 1118.68 533.721V533.7Z" fill="#DF7A9B"/>
<path d="M996.811 379.109C1032.71 405.549 1068.18 441.04 1091.93 478.703C1101.59 494.025 1107.23 505.132 1114.22 521.813C1075.45 523.099 1036.28 521.739 997.559 523.299C981.186 523.952 957.934 527.451 946.292 527.756C946.176 525.786 946.471 523.763 946.292 521.813C945.775 516.228 914.368 485.352 908.394 480.189C816.964 401.249 678.586 396.929 598.534 494.309C587.335 507.935 578.127 524.648 568.813 539.643C507.884 535.649 446.902 539.411 386.016 541.129C389.377 530.886 391.916 522.793 396.415 512.887C398.237 508.883 400.323 504.889 402.357 501.001C421.785 463.897 450.495 429.754 482.608 402.893C632.207 277.746 837.646 261.876 996.822 379.109H996.811Z" fill="url(#paint3_linear_2007_122)"/>
<path d="M1114.22 521.813C1115.91 525.849 1117.16 529.664 1118.68 533.7C1054.74 533.141 990.9 533.805 926.969 535.186V529.242C933.564 529.074 939.801 527.925 946.292 527.756C957.934 527.451 981.186 523.952 997.559 523.299C1036.28 521.739 1075.45 523.099 1114.22 521.813Z" fill="#EC99A8"/>
<path d="M1010.19 349.382C1008.64 356.105 1019.17 356.474 1019.1 362.017C1019.06 365.463 1003.72 383.725 996.81 379.11C837.645 261.876 632.196 277.746 482.597 402.893C466.677 402.767 467.151 391.007 464.76 377.624C475.58 367.55 486.211 357.496 497.453 347.896C543.621 318.433 575.692 296.798 630.468 281.002C765.812 241.981 897.921 265.606 1010.18 349.382H1010.19Z" fill="#CC4485"/>
<path d="M1039.91 371.68C1073.05 401.165 1100.14 437.205 1123.14 474.983C1114.43 481.769 1102.46 477.607 1091.93 478.703C1068.18 441.041 1032.72 405.549 996.811 379.11C1003.72 383.725 1019.06 365.463 1019.1 362.017C1019.17 356.474 1008.63 356.105 1010.19 349.382C1019.94 356.653 1030.83 363.598 1039.91 371.68Z" fill="#CC4485"/>
<path d="M396.403 512.888C391.894 522.793 389.355 530.886 386.005 541.129C385.035 544.08 384.298 545.534 383.033 550.044C380.104 560.466 377.734 571.046 374.12 581.257C369.642 578.612 354.081 571.942 348.855 570.856L344.398 568.622C363.858 569.897 361.287 519.189 374.12 512.139C379.209 509.347 389.682 514.447 396.414 512.888H396.403Z" fill="#CC4485"/>
<path d="M482.607 402.894C450.494 429.754 421.784 463.897 402.356 501.001C392.831 497.134 383.191 503.541 377.091 494.309C397.193 445.572 426.936 412.862 464.77 377.624C467.151 391.007 466.688 402.767 482.607 402.894Z" fill="#CC4485"/>
<path d="M561.374 610.995C690.323 624.346 759.048 624.525 885.352 625.864C911.681 626.138 1023.3 631.354 1033.97 628.835V633.293C1013.5 648.425 1016.86 649.869 1014.65 651.871C1010.48 655.665 1010.36 651.07 999.782 663.02C956.659 663.948 913.588 662.177 870.486 661.534C808.303 660.597 746.152 660.839 683.969 660.049L682.484 663.02C751.199 675.128 820.43 671.861 889.798 670.449C922.891 675.434 958.934 671.672 992.344 673.421C990.732 675.223 989.573 677.478 987.887 679.364C980.722 678.764 979.374 682.937 971.535 685.308C967.879 686.414 957.386 682.779 961.136 689.765C945.311 693.717 928.644 694.781 912.84 698.68C910.174 699.334 910.954 704.255 909.869 704.624C895.593 709.439 648.948 696.815 608.922 706.858C612.557 711.948 613.116 714.656 613.379 715.035C604.287 709.64 592.982 713.338 588.114 712.063C586.565 711.663 568.064 698.585 560.616 695.709C544.907 689.649 527.659 686.214 512.319 679.354C507.473 677.183 503.785 673.8 498.939 671.925C489.119 660.639 478.868 661.513 471.44 655.57C464.497 650.017 447.861 618.677 438.747 612.46C433.458 608.856 414.578 604.314 413.482 603.545C410.3 601.279 409.152 594.429 406.792 591.658C458.281 598.339 509.706 605.631 561.353 610.984L561.374 610.995Z" fill="#DF7A9B"/>
<path d="M536.847 667.478C636.864 670.081 737.112 674.454 836.307 687.542C736.564 689.302 635.062 686.941 536.847 667.478Z" fill="#EC99A8"/>
<path d="M870.496 661.534C872.108 670.323 882.813 669.396 889.819 670.449C820.44 671.862 751.22 675.128 682.505 663.02L683.99 660.049C746.173 660.839 808.314 660.597 870.507 661.534H870.496Z" fill="#F3A9AB"/>
<path d="M999.792 663.02C996.631 666.582 994.503 671.029 992.364 673.421C958.955 671.672 922.912 675.434 889.819 670.449C882.813 669.396 872.119 670.312 870.496 661.534C913.598 662.177 956.669 663.948 999.792 663.02Z" fill="#EC99A8"/>
<path d="M971.5 685C969.066 690.279 965.856 689.512 965.603 689.776C964.191 689.966 962.421 689.46 961.146 689.776C957.395 682.789 967.844 686.106 971.5 685Z" fill="#DF7A9B"/>
<path d="M976 683.5L968.5 686.5L964.5 691L973.5 687.5L976 683.5Z" fill="#CC4485"/>
<path d="M568.802 539.643C567.948 541.024 566.979 542.309 567.316 544.101C506.008 544.427 444.426 550.634 383.033 550.044C384.308 545.534 385.035 544.069 386.004 541.129C446.891 539.411 507.873 535.639 568.802 539.643Z" fill="#EC99A8"/>
<path d="M892.78 615.452C894.876 622.723 891.705 622.955 885.352 625.853C759.037 624.515 690.322 624.336 561.374 610.984V602.069C628.888 606.39 696.697 605.526 764.232 608.013C807.06 609.593 849.899 614.272 892.78 615.442V615.452Z" fill="#F3CBB5"/>
<path d="M1033.97 628.835C1023.3 631.354 911.681 626.138 885.352 625.864C891.705 622.966 894.876 622.723 892.779 615.463C918.972 616.179 945.332 615.336 971.546 615.463C996.547 615.589 1021.59 615.231 1046.59 615.463C1048.65 619.362 1035.69 628.435 1033.96 628.846L1033.97 628.835Z" fill="#F3A9AB"/>
<path d="M550.965 599.108C551.502 599.14 560.121 602.006 561.364 602.08V610.995C509.717 605.652 458.291 598.349 406.803 591.668L407.551 587.211C454.593 592.701 503.132 595.852 550.965 599.098V599.108Z" fill="#EC99A8"/>
<path d="M946.292 521.813C928.128 520.823 894.181 522.393 878.672 520.327C877.334 520.148 866.451 512.624 863.806 512.898C862.9 512.993 852.649 522.498 848.94 523.299C840.122 525.206 798.389 524.079 783.544 524.785C830.566 531.266 879.41 530.433 926.958 529.242V535.186C862.553 536.577 797.915 537.957 733.762 543.363C761.872 552.109 947.472 543.447 957.428 548.569C958.724 549.233 966.352 575.957 964.856 576.81C829.565 575.251 694.453 568.58 559.13 570.867C557.202 569.676 560.521 554.27 563.587 553.026C571.963 549.654 718.137 557.579 744.151 550.792C685.54 546.177 626.191 543.795 567.296 544.101C566.958 542.309 567.928 541.024 568.781 539.643C578.095 524.648 587.303 507.935 598.503 494.309C678.554 396.929 816.943 401.25 908.362 480.189C914.336 485.352 945.744 516.228 946.26 521.813H946.292Z" fill="#F3CBB5"/>
<path d="M970.061 608.023C830.777 606.601 691.619 601.933 552.451 596.137C552.704 590.72 551.06 585.241 554.684 582.754L969.323 587.211C971.083 588.465 969.639 604.651 970.071 608.023H970.061Z" fill="#F3CBB5"/>
<path d="M970.061 608.023C970.198 609.109 972.368 610.668 971.546 615.453C945.333 615.326 918.972 616.169 892.78 615.453C849.899 614.283 807.06 609.594 764.232 608.023C696.697 605.536 628.878 606.401 561.374 602.08C560.121 601.996 551.513 599.14 550.976 599.108C552.935 599.224 552.387 597.781 552.461 596.137C691.629 601.933 830.787 606.601 970.071 608.023H970.061Z" fill="#EC99A8"/>
<path d="M946.292 521.813C946.471 523.763 946.176 525.796 946.292 527.756C939.802 527.925 933.564 529.074 926.969 529.242C879.42 530.423 830.576 531.255 783.555 524.785C798.389 524.079 840.132 525.206 848.951 523.299C852.659 522.498 862.911 512.982 863.817 512.898C866.451 512.635 877.334 520.148 878.683 520.327C894.192 522.393 928.138 520.833 946.302 521.813H946.292Z" fill="#DF7A9B"/>
<path d="M631 729L634.5 722.5L638.5 717L646 713L650 711.5" stroke="black"/>
<path d="M642.5 715.5L643.5 718L641.5 722.5L638.5 726.5L635 728L631 730.5L628.5 730" stroke="black"/>
<path d="M642.5 715L647.5 712.5H648.5L653.5 713L660.5 717.5L659 721L652 722.5L639 723L633 728.5L630 732H624V731L627.5 728.5L630.5 724.5L634 721L638 718L642.5 715Z" fill="#2495A5" stroke="black"/>
</g>
<defs>
<linearGradient id="paint0_linear_2007_122" x1="1284.41" y1="883.24" x2="1284.55" y2="951.62" gradientUnits="userSpaceOnUse">
<stop stop-color="#E6839E"/>
<stop offset="1" stop-color="#D75F92"/>
</linearGradient>
<linearGradient id="paint1_linear_2007_122" x1="73.8536" y1="845.863" x2="73.8536" y2="1013.83" gradientUnits="userSpaceOnUse">
<stop stop-color="#E6829F"/>
<stop offset="1" stop-color="#D85F92"/>
</linearGradient>
<linearGradient id="paint2_linear_2007_122" x1="270.405" y1="875.411" x2="272.112" y2="948.227" gradientUnits="userSpaceOnUse">
<stop stop-color="#E5819E"/>
<stop offset="1" stop-color="#D75E91"/>
</linearGradient>
<linearGradient id="paint3_linear_2007_122" x1="746.353" y1="311.362" x2="749.905" y2="519.431" gradientUnits="userSpaceOnUse">
<stop stop-color="#C54192"/>
<stop offset="1" stop-color="#E17B9E"/>
</linearGradient>
<clipPath id="clip0_2007_122">
<rect width="1522" height="1106" fill="white" transform="translate(-2)"/>
</clipPath>
</defs>
</svg>
