<svg width="201" height="149" viewBox="0 0 201 149" fill="none" xmlns="http://www.w3.org/2000/svg">
<rect x="58" y="44" width="86" height="65" fill="#07D6E8"/>
<rect x="77" y="109" width="48" height="20" fill="#07D6E8"/>
<rect x="96" y="129" width="9" height="10" fill="#07D6E8"/>
<rect x="153" y="10" width="19" height="29" fill="white"/>
<rect x="163" y="29" width="19" height="10" fill="white"/>
<rect x="151" y="50" width="31" height="19" fill="#9AFDF8"/>
<rect x="143" y="69" width="20" height="20" fill="#9AFDF8"/>
<rect x="133" y="80" width="20" height="19" fill="#9AFDF8"/>
<rect x="115" y="99" width="20" height="20" fill="#9AFDF8"/>
<rect x="105" y="109" width="20" height="19" fill="#9AFDF8"/>
<rect x="19" y="20" width="29" height="19" fill="#07D6E8"/>
<rect x="29" y="10" width="19" height="19" fill="#07D6E8"/>
<rect x="19" y="50" width="30" height="20" fill="#14BAD4"/>
<rect x="39" y="70" width="29" height="20" fill="#14BAD4"/>
<rect x="58" y="89" width="20" height="20" fill="#14BAD4"/>
<rect x="77" y="109" width="19" height="20" fill="#14BAD4"/>
<rect x="124" y="20" width="29" height="19" fill="#07D6E8"/>
<rect x="115" y="10" width="29" height="19" fill="#07D6E8"/>
<rect x="58" y="30" width="9" height="9" fill="#14BAD4"/>
<rect x="58" y="10" width="29" height="20" fill="#14BAD4"/>
<rect x="77" y="20" width="48" height="20" fill="#9AFDF8"/>
<rect x="95" y="10" width="12" height="20" fill="#9AFDF8"/>
<rect x="38" width="125" height="10" fill="black"/>
<rect x="29" y="10" width="9" height="10" fill="black"/>
<path d="M19 20H29V30H19V20Z" fill="black"/>
<rect x="10" y="30" width="9" height="10" fill="black"/>
<rect y="40" width="10" height="10" fill="black"/>
<rect x="191" y="39" width="10" height="10" fill="black"/>
<rect x="182" y="29" width="9" height="10" fill="black"/>
<rect x="172" y="20" width="10" height="9" fill="black"/>
<rect x="163" y="10" width="9" height="10" fill="black"/>
<rect x="10" y="50" width="9" height="10" fill="black"/>
<rect x="19" y="60" width="10" height="10" fill="black"/>
<rect x="29" y="70" width="10" height="10" fill="black"/>
<rect x="39" y="80" width="9" height="10" fill="black"/>
<rect x="48" y="90" width="10" height="9" fill="black"/>
<rect x="58" y="99" width="9" height="10" fill="black"/>
<rect x="67" y="109" width="10" height="10" fill="black"/>
<rect x="77" y="119" width="10" height="10" fill="black"/>
<rect x="87" y="129" width="9" height="10" fill="black"/>
<rect x="96" y="139" width="9" height="10" fill="black"/>
<rect x="105" y="129" width="10" height="10" fill="black"/>
<rect x="115" y="119" width="10" height="10" fill="black"/>
<rect x="125" y="109" width="10" height="10" fill="black"/>
<rect x="135" y="99" width="9" height="10" fill="black"/>
<rect x="144" y="89" width="9" height="10" fill="black"/>
<rect x="153" y="79" width="10" height="10" fill="black"/>
<rect x="163" y="69" width="9" height="10" fill="black"/>
<rect x="172" y="59" width="10" height="10" fill="black"/>
<rect x="182" y="49" width="9" height="10" fill="black"/>
<rect x="48" y="10" width="10" height="60" fill="#19829F"/>
<rect x="10" y="39" width="181" height="11" fill="#19829F"/>
<rect x="58" y="70" width="10" height="10" fill="#19829F"/>
<rect x="67" y="30" width="10" height="10" fill="#19829F"/>
<rect x="77" y="20" width="10" height="10" fill="#19829F"/>
<rect x="87" y="10" width="10" height="10" fill="#19829F"/>
<rect x="105" y="10" width="10" height="10" fill="#19829F"/>
<rect x="115" y="20" width="10" height="10" fill="#19829F"/>
<rect x="125" y="30" width="10" height="10" fill="#19829F"/>
<rect x="78" y="99" width="10" height="10" fill="#19829F"/>
<rect x="114" y="99" width="10" height="10" fill="#19829F"/>
<rect x="105" y="109" width="10" height="20" fill="#19829F"/>
<rect x="86" y="109" width="10" height="20" fill="#19829F"/>
<rect x="68" y="80" width="10" height="19" fill="#19829F"/>
<rect x="134" y="70" width="9" height="10" fill="#19829F"/>
<rect x="124" y="80" width="10" height="19" fill="#19829F"/>
<rect x="143" y="10" width="10" height="60" fill="#19829F"/>
</svg>
