<svg xmlns="http://www.w3.org/2000/svg" xmlns:xlink="http://www.w3.org/1999/xlink" width="1728" zoomAndPan="magnify" viewBox="0 0 1296 1727.999927" height="2304" preserveAspectRatio="xMidYMid meet" version="1.0"><defs><clipPath id="6debc5b43b"><path d="M 378.003906 548 L 516 548 L 516 774 L 378.003906 774 Z M 378.003906 548 " clip-rule="nonzero"/></clipPath><clipPath id="94f9a44404"><path d="M 546 1112 L 645 1112 L 645 1250.5625 L 546 1250.5625 Z M 546 1112 " clip-rule="nonzero"/></clipPath></defs><path fill="#ffbb14" d="M 401.460938 750.664062 L 517.695312 762.285156 C 528.511719 712.738281 563.613281 620.769531 617.46875 649.238281 C 684.789062 684.820312 669.535156 780.679688 586.953125 812.875 C 520.894531 838.632812 542.640625 992.410156 561.769531 1066.078125 L 681.398438 1066.078125 C 657.34375 1013.308594 633.5 899.632812 730.558594 867.097656 C 851.882812 826.429688 917.992188 588.71875 730.558594 533.042969 C 543.125 477.367188 420.105469 570.324219 401.460938 750.664062 Z M 401.460938 750.664062 " fill-opacity="1" fill-rule="nonzero"/><path fill="#ffbb14" d="M 627.640625 1238.1875 C 663.886719 1238.1875 700.289062 1200.101562 700.289062 1163.875 C 700.289062 1127.644531 672.117188 1098.03125 635.871094 1098.03125 C 599.628906 1098.03125 570.246094 1137.085938 570.246094 1173.316406 C 570.246094 1209.542969 591.394531 1238.1875 627.640625 1238.1875 Z M 627.640625 1238.1875 " fill-opacity="1" fill-rule="nonzero"/><g clip-path="url(#6debc5b43b)"><path fill="#0f102e" d="M 515.273438 761.980469 L 401.578125 750.617188 C 411.3125 656.46875 449.503906 586.132812 510.457031 548.332031 C 435.777344 581.632812 388.9375 657.339844 378 763.101562 L 501.84375 773.792969 Z M 515.273438 761.980469 " fill-opacity="1" fill-rule="nonzero"/></g><path fill="#0f102e" d="M 569.074219 655.808594 C 576.25 654.921875 584.5 656.625 594.058594 661.671875 C 653.742188 693.214844 648.535156 772.113281 589.0625 812.054688 C 669.945312 779.121094 684.433594 684.492188 617.632812 649.191406 C 599.167969 639.433594 582.90625 643.824219 569.074219 655.808594 Z M 569.074219 655.808594 " fill-opacity="1" fill-rule="nonzero"/><path fill="#0f102e" d="M 573.167969 821.132812 C 570.066406 822.621094 566.859375 824.019531 563.539062 825.3125 C 497.460938 851.070312 519.210938 1004.851562 538.347656 1078.519531 L 654.53125 1078.519531 L 675.261719 1066.039062 L 561.921875 1066.039062 C 544.285156 998.132812 524.425781 862.167969 573.167969 821.132812 Z M 573.167969 821.132812 " fill-opacity="1" fill-rule="nonzero"/><path fill="#0f102e" d="M 671.152344 917.679688 C 680.6875 909.019531 693.71875 901.539062 711.113281 895.707031 C 743.171875 884.964844 771.101562 859.335938 791.390625 826.417969 C 773.925781 845.140625 753.289062 859.5 730.746094 867.054688 C 700.089844 877.332031 681.492188 895.695312 671.152344 917.679688 Z M 671.152344 917.679688 " fill-opacity="1" fill-rule="nonzero"/><g clip-path="url(#94f9a44404)"><path fill="#0f102e" d="M 644.707031 1235.503906 C 639.160156 1237.21875 633.480469 1238.152344 627.804688 1238.152344 C 591.554688 1238.152344 570.402344 1209.507812 570.402344 1173.277344 C 570.402344 1150.585938 581.929688 1126.785156 599.449219 1112.167969 C 569.433594 1120.03125 546.824219 1153.980469 546.824219 1185.757812 C 546.824219 1221.988281 567.976562 1250.636719 604.226562 1250.636719 C 618.429688 1250.636719 632.65625 1244.792969 644.707031 1235.503906 Z M 644.707031 1235.503906 " fill-opacity="1" fill-rule="nonzero"/></g></svg>