<svg width="2213" height="3743" viewBox="0 0 2213 3743" fill="none" xmlns="http://www.w3.org/2000/svg">
<path d="M444.323 1365.93L493.15 1370.25L407.859 1509.37L346.823 1444.19L305.867 1515.91L234.279 1457.32L201.702 1506.68L181.258 1492.81L230.562 1419.82L298.79 1479.11L344.54 1398.27L403.773 1459.78L444.323 1365.93Z" fill="#FFBA15"/>
<ellipse cx="1293.5" cy="1530.5" rx="105.5" ry="99.5" fill="#CC4485" fill-opacity="0.82"/>
<path d="M1929.55 1727.46L1594 1587.24L1723.07 1822.7L1929.55 1727.46Z" fill="#141975"/>
<path d="M833.078 1672.55C832.565 1670.42 832.929 1668.11 833.116 1666.01C833.945 1656.74 834.92 1647.52 836.126 1638.32C836.819 1633.02 837.437 1627.73 838.661 1622.57C838.969 1621.27 839.595 1619.81 839.583 1618.45" stroke="#FFBA15" stroke-width="6" stroke-linecap="round"/>
<path d="M839.583 1618.45C843.108 1617.39 846.723 1616.9 850.36 1616.31C857.387 1615.16 864.118 1613.06 870.903 1611.04C873.731 1610.19 876.559 1609.35 879.387 1608.5" stroke="#FFBA15" stroke-width="6" stroke-linecap="round"/>
<path d="M879.569 1607.58C881.046 1610.5 885.099 1612.53 887.543 1614.24C894.716 1619.27 900.954 1624.73 906.595 1631.74C909.872 1635.81 912.461 1640.05 914.931 1644.67C915.277 1645.31 915.389 1646.43 916.056 1646.57" stroke="#FFBA15" stroke-width="5" stroke-linecap="round"/>
<path d="M916.056 1646.57C911.59 1654.68 907.003 1662.05 901.021 1668.99C896.805 1673.89 892.204 1678.38 887.722 1682.98C885.393 1685.37 882.949 1686.16 879.851 1687.09C879.027 1687.33 879.343 1687.55 878.926 1686.51C877.773 1683.63 875.599 1682.26 873.298 1680.56C868.428 1676.95 863.57 1673.58 858.344 1670.64C856.656 1669.69 853.684 1668.47 852.509 1666.75" stroke="#FFBA15" stroke-width="5" stroke-linecap="round"/>
<path d="M852.508 1666.75C852.099 1665.24 852.061 1663.8 852.216 1662.28C852.68 1657.76 853.384 1653.27 853.904 1648.75C854.265 1645.62 854.043 1641.01 855.364 1638.18" stroke="#FFBA15" stroke-width="6" stroke-linecap="round"/>
<path d="M855.364 1638.18C860.615 1636.61 865.866 1635.04 871.117 1633.47C872.729 1632.99 874.418 1632.61 875.739 1631.49C876.094 1631.2 876.625 1630.18 877.119 1630.16C877.509 1630.14 878.408 1632.04 878.558 1632.3C879.618 1634.19 880.764 1635.55 882.22 1637.1C884.849 1639.91 887.427 1643.1 889.503 1646.39C890.181 1647.46 891.043 1648.83 891.528 1649.94C892.207 1651.49 893.032 1650.69 891.41 1652.35C889.186 1654.64 887.622 1658.25 884.826 1659.77C883.381 1660.56 881.56 1660.84 879.985 1661.31" stroke="#FFBA15" stroke-width="6" stroke-linecap="round"/>
<path d="M1473 1852.31L1757.69 1673.09L1495.17 1649L1473 1852.31Z" fill="#FE77DD" fill-opacity="0.88"/>
<path d="M457.078 1800.55C456.565 1798.42 456.929 1796.11 457.116 1794.01C457.945 1784.74 458.92 1775.52 460.126 1766.32C460.819 1761.02 461.437 1755.73 462.661 1750.57C462.969 1749.27 463.595 1747.81 463.583 1746.45" stroke="#FFBA15" stroke-width="6" stroke-linecap="round"/>
<path d="M463.583 1746.45C467.108 1745.39 470.723 1744.9 474.36 1744.31C481.387 1743.16 488.118 1741.06 494.903 1739.04C497.731 1738.19 500.559 1737.35 503.387 1736.5" stroke="#FFBA15" stroke-width="6" stroke-linecap="round"/>
<path d="M503.569 1735.58C505.046 1738.5 509.099 1740.53 511.543 1742.24C518.716 1747.27 524.954 1752.73 530.595 1759.74C533.872 1763.81 536.461 1768.05 538.931 1772.67C539.277 1773.31 539.389 1774.43 540.056 1774.57" stroke="#FFBA15" stroke-width="5" stroke-linecap="round"/>
<path d="M540.056 1774.57C535.59 1782.68 531.003 1790.05 525.021 1796.99C520.805 1801.89 516.204 1806.38 511.722 1810.98C509.393 1813.37 506.949 1814.16 503.851 1815.09C503.027 1815.33 503.343 1815.55 502.926 1814.51C501.773 1811.63 499.599 1810.26 497.298 1808.56C492.428 1804.95 487.57 1801.58 482.344 1798.64C480.656 1797.69 477.684 1796.47 476.509 1794.75" stroke="#FFBA15" stroke-width="5" stroke-linecap="round"/>
<path d="M476.508 1794.75C476.099 1793.24 476.061 1791.8 476.216 1790.28C476.68 1785.76 477.384 1781.27 477.904 1776.75C478.265 1773.62 478.043 1769.01 479.364 1766.18" stroke="#FFBA15" stroke-width="6" stroke-linecap="round"/>
<path d="M479.364 1766.18C484.615 1764.61 489.866 1763.04 495.117 1761.47C496.729 1760.99 498.418 1760.61 499.739 1759.49C500.094 1759.2 500.625 1758.18 501.119 1758.16C501.509 1758.14 502.408 1760.04 502.558 1760.3C503.618 1762.19 504.764 1763.55 506.22 1765.1C508.849 1767.91 511.427 1771.1 513.503 1774.39C514.181 1775.46 515.043 1776.83 515.528 1777.94C516.207 1779.49 517.032 1778.69 515.41 1780.35C513.186 1782.64 511.622 1786.25 508.826 1787.77C507.381 1788.56 505.56 1788.84 503.985 1789.31" stroke="#FFBA15" stroke-width="6" stroke-linecap="round"/>
<ellipse cx="9.82376" cy="10.5826" rx="9.82376" ry="10.5826" transform="matrix(0.865326 -0.50121 0.566977 0.823734 1446.67 1794.39)" fill="#F34529"/>
<ellipse cx="9.82376" cy="10.5826" rx="9.82376" ry="10.5826" transform="matrix(0.865326 -0.50121 0.566977 0.823734 1446.67 1794.39)" fill="#F34529"/>
<ellipse cx="9.82376" cy="10.5826" rx="9.82376" ry="10.5826" transform="matrix(0.865326 -0.50121 0.566977 0.823734 1446.67 1794.39)" fill="#F34529"/>
<ellipse cx="9.82376" cy="10.5826" rx="9.82376" ry="10.5826" transform="matrix(0.865326 -0.50121 0.566977 0.823734 1446.67 1794.39)" fill="#F34529"/>
<ellipse cx="9.82376" cy="10.5826" rx="9.82376" ry="10.5826" transform="matrix(0.865326 -0.50121 0.566977 0.823734 1446.67 1794.39)" fill="#FFBA15"/>
<ellipse cx="9.82376" cy="10.5826" rx="9.82376" ry="10.5826" transform="matrix(0.865326 -0.50121 0.566977 0.823734 1486.34 1909.6)" fill="#F34529"/>
<ellipse cx="9.82376" cy="10.5826" rx="9.82376" ry="10.5826" transform="matrix(0.865326 -0.50121 0.566977 0.823734 1486.34 1909.6)" fill="#F34529"/>
<ellipse cx="9.82376" cy="10.5826" rx="9.82376" ry="10.5826" transform="matrix(0.865326 -0.50121 0.566977 0.823734 1486.34 1909.6)" fill="#F34529"/>
<ellipse cx="9.82376" cy="10.5826" rx="9.82376" ry="10.5826" transform="matrix(0.865326 -0.50121 0.566977 0.823734 1486.34 1909.6)" fill="#F34529"/>
<ellipse cx="9.82376" cy="10.5826" rx="9.82376" ry="10.5826" transform="matrix(0.865326 -0.50121 0.566977 0.823734 1486.34 1909.6)" fill="#FFBA15"/>
<ellipse cx="9.82376" cy="10.5826" rx="9.82376" ry="10.5826" transform="matrix(0.865326 -0.50121 0.566977 0.823734 1527.67 1877.53)" fill="#F34529"/>
<ellipse cx="9.82376" cy="10.5826" rx="9.82376" ry="10.5826" transform="matrix(0.865326 -0.50121 0.566977 0.823734 1527.67 1877.53)" fill="#F34529"/>
<ellipse cx="9.82376" cy="10.5826" rx="9.82376" ry="10.5826" transform="matrix(0.865326 -0.50121 0.566977 0.823734 1527.67 1877.53)" fill="#F34529"/>
<ellipse cx="9.82376" cy="10.5826" rx="9.82376" ry="10.5826" transform="matrix(0.865326 -0.50121 0.566977 0.823734 1527.67 1877.53)" fill="#F34529"/>
<ellipse cx="9.82376" cy="10.5826" rx="9.82376" ry="10.5826" transform="matrix(0.865326 -0.50121 0.566977 0.823734 1527.67 1877.53)" fill="#FFBA15"/>
<ellipse cx="9.82376" cy="10.5826" rx="9.82376" ry="10.5826" transform="matrix(0.865326 -0.50121 0.566977 0.823734 1561.68 1857.83)" fill="#F34529"/>
<ellipse cx="9.82376" cy="10.5826" rx="9.82376" ry="10.5826" transform="matrix(0.865326 -0.50121 0.566977 0.823734 1561.68 1857.83)" fill="#F34529"/>
<ellipse cx="9.82376" cy="10.5826" rx="9.82376" ry="10.5826" transform="matrix(0.865326 -0.50121 0.566977 0.823734 1561.68 1857.83)" fill="#F34529"/>
<ellipse cx="9.82376" cy="10.5826" rx="9.82376" ry="10.5826" transform="matrix(0.865326 -0.50121 0.566977 0.823734 1561.68 1857.83)" fill="#F34529"/>
<ellipse cx="9.82376" cy="10.5826" rx="9.82376" ry="10.5826" transform="matrix(0.865326 -0.50121 0.566977 0.823734 1561.68 1857.83)" fill="#FFBA15"/>
<path d="M1464 1934.73C1467.32 1939.54 1466.2 1945.65 1461.5 1948.37C1456.81 1951.09 1450.32 1949.39 1447 1944.58C1443.69 1939.76 1444.81 1933.65 1449.5 1930.94C1454.2 1928.22 1460.69 1929.91 1464 1934.73Z" fill="#F34529"/>
<path d="M1464 1934.73C1467.32 1939.54 1466.2 1945.65 1461.5 1948.37C1456.81 1951.09 1450.32 1949.39 1447 1944.58C1443.69 1939.76 1444.81 1933.65 1449.5 1930.94C1454.2 1928.22 1460.69 1929.91 1464 1934.73Z" fill="#F34529"/>
<path d="M1464 1934.73C1467.32 1939.54 1466.2 1945.65 1461.5 1948.37C1456.81 1951.09 1450.32 1949.39 1447 1944.58C1443.69 1939.76 1444.81 1933.65 1449.5 1930.94C1454.2 1928.22 1460.69 1929.91 1464 1934.73Z" fill="#F34529"/>
<path d="M1464 1934.73C1467.32 1939.54 1466.2 1945.65 1461.5 1948.37C1456.81 1951.09 1450.32 1949.39 1447 1944.58C1443.69 1939.76 1444.81 1933.65 1449.5 1930.94C1454.2 1928.22 1460.69 1929.91 1464 1934.73Z" fill="#F34529"/>
<path d="M1464 1934.73C1467.32 1939.54 1466.2 1945.65 1461.5 1948.37C1456.81 1951.09 1450.32 1949.39 1447 1944.58C1443.69 1939.76 1444.81 1933.65 1449.5 1930.94C1454.2 1928.22 1460.69 1929.91 1464 1934.73Z" fill="#FFBA15"/>
<ellipse cx="9.82376" cy="10.5826" rx="9.82376" ry="10.5826" transform="matrix(0.865326 -0.50121 0.566977 0.823734 1483.67 1813.6)" fill="#F34529"/>
<ellipse cx="9.82376" cy="10.5826" rx="9.82376" ry="10.5826" transform="matrix(0.865326 -0.50121 0.566977 0.823734 1483.67 1813.6)" fill="#F34529"/>
<ellipse cx="9.82376" cy="10.5826" rx="9.82376" ry="10.5826" transform="matrix(0.865326 -0.50121 0.566977 0.823734 1483.67 1813.6)" fill="#F34529"/>
<ellipse cx="9.82376" cy="10.5826" rx="9.82376" ry="10.5826" transform="matrix(0.865326 -0.50121 0.566977 0.823734 1483.67 1813.6)" fill="#F34529"/>
<ellipse cx="9.82376" cy="10.5826" rx="9.82376" ry="10.5826" transform="matrix(0.865326 -0.50121 0.566977 0.823734 1483.67 1813.6)" fill="#FFBA15"/>
<ellipse cx="9.82376" cy="10.5826" rx="9.82376" ry="10.5826" transform="matrix(0.865326 -0.50121 0.566977 0.823734 1524.67 1838.62)" fill="#F34529"/>
<ellipse cx="9.82376" cy="10.5826" rx="9.82376" ry="10.5826" transform="matrix(0.865326 -0.50121 0.566977 0.823734 1524.67 1838.62)" fill="#F34529"/>
<ellipse cx="9.82376" cy="10.5826" rx="9.82376" ry="10.5826" transform="matrix(0.865326 -0.50121 0.566977 0.823734 1524.67 1838.62)" fill="#F34529"/>
<ellipse cx="9.82376" cy="10.5826" rx="9.82376" ry="10.5826" transform="matrix(0.865326 -0.50121 0.566977 0.823734 1524.67 1838.62)" fill="#F34529"/>
<ellipse cx="9.82376" cy="10.5826" rx="9.82376" ry="10.5826" transform="matrix(0.865326 -0.50121 0.566977 0.823734 1524.67 1838.62)" fill="#FFBA15"/>
<ellipse cx="9.82376" cy="10.5826" rx="9.82376" ry="10.5826" transform="matrix(0.865326 -0.50121 0.566977 0.823734 1490.67 1858.32)" fill="#F34529"/>
<ellipse cx="9.82376" cy="10.5826" rx="9.82376" ry="10.5826" transform="matrix(0.865326 -0.50121 0.566977 0.823734 1490.67 1858.32)" fill="#F34529"/>
<ellipse cx="9.82376" cy="10.5826" rx="9.82376" ry="10.5826" transform="matrix(0.865326 -0.50121 0.566977 0.823734 1490.67 1858.32)" fill="#F34529"/>
<ellipse cx="9.82376" cy="10.5826" rx="9.82376" ry="10.5826" transform="matrix(0.865326 -0.50121 0.566977 0.823734 1490.67 1858.32)" fill="#F34529"/>
<ellipse cx="9.82376" cy="10.5826" rx="9.82376" ry="10.5826" transform="matrix(0.865326 -0.50121 0.566977 0.823734 1490.67 1858.32)" fill="#FFBA15"/>
<ellipse cx="9.82376" cy="10.5826" rx="9.82376" ry="10.5826" transform="matrix(0.865326 -0.50121 0.566977 0.823734 1449.33 1890.39)" fill="#F34529"/>
<ellipse cx="9.82376" cy="10.5826" rx="9.82376" ry="10.5826" transform="matrix(0.865326 -0.50121 0.566977 0.823734 1449.33 1890.39)" fill="#F34529"/>
<ellipse cx="9.82376" cy="10.5826" rx="9.82376" ry="10.5826" transform="matrix(0.865326 -0.50121 0.566977 0.823734 1449.33 1890.39)" fill="#F34529"/>
<ellipse cx="9.82376" cy="10.5826" rx="9.82376" ry="10.5826" transform="matrix(0.865326 -0.50121 0.566977 0.823734 1449.33 1890.39)" fill="#F34529"/>
<ellipse cx="9.82376" cy="10.5826" rx="9.82376" ry="10.5826" transform="matrix(0.865326 -0.50121 0.566977 0.823734 1449.33 1890.39)" fill="#FFBA15"/>
<ellipse cx="9.82376" cy="10.5826" rx="9.82376" ry="10.5826" transform="matrix(0.865326 -0.50121 0.566977 0.823734 1448 1842.39)" fill="#F34529"/>
<ellipse cx="9.82376" cy="10.5826" rx="9.82376" ry="10.5826" transform="matrix(0.865326 -0.50121 0.566977 0.823734 1448 1842.39)" fill="#F34529"/>
<ellipse cx="9.82376" cy="10.5826" rx="9.82376" ry="10.5826" transform="matrix(0.865326 -0.50121 0.566977 0.823734 1448 1842.39)" fill="#F34529"/>
<ellipse cx="9.82376" cy="10.5826" rx="9.82376" ry="10.5826" transform="matrix(0.865326 -0.50121 0.566977 0.823734 1448 1842.39)" fill="#F34529"/>
<ellipse cx="9.82376" cy="10.5826" rx="9.82376" ry="10.5826" transform="matrix(0.865326 -0.50121 0.566977 0.823734 1448 1842.39)" fill="#FFBA15"/>
<ellipse cx="909.5" cy="3212.5" rx="87.5" ry="82.5" fill="#FE77DD" fill-opacity="0.76"/>
<ellipse cx="1649.5" cy="3282.5" rx="127.5" ry="120.5" fill="#CC4485" fill-opacity="0.82"/>
<rect width="40.2127" height="46.6037" transform="matrix(0.937697 0.347454 -0.402988 0.915205 1774.78 3314)" fill="#2FD2CB" fill-opacity="0.95"/>
<path d="M517.547 342.459L182 202.244L311.065 437.703L517.547 342.459Z" fill="#141975"/>
<ellipse cx="9.96287" cy="10.4189" rx="9.96287" ry="10.4189" transform="matrix(0.950261 -0.311454 0.362928 0.931817 1635.05 159.824)" fill="#F34529"/>
<ellipse cx="9.96287" cy="10.4189" rx="9.96287" ry="10.4189" transform="matrix(0.950261 -0.311454 0.362928 0.931817 1635.05 159.824)" fill="#F34529"/>
<ellipse cx="9.96287" cy="10.4189" rx="9.96287" ry="10.4189" transform="matrix(0.950261 -0.311454 0.362928 0.931817 1635.05 159.824)" fill="#F34529"/>
<ellipse cx="9.96287" cy="10.4189" rx="9.96287" ry="10.4189" transform="matrix(0.950261 -0.311454 0.362928 0.931817 1635.05 159.824)" fill="#F34529"/>
<ellipse cx="9.96287" cy="10.4189" rx="9.96287" ry="10.4189" transform="matrix(0.950261 -0.311454 0.362928 0.931817 1635.05 159.824)" fill="#FFBA15"/>
<ellipse cx="9.96287" cy="10.4189" rx="9.96287" ry="10.4189" transform="matrix(0.950261 -0.311454 0.362928 0.931817 1646.35 280.195)" fill="#F34529"/>
<ellipse cx="9.96287" cy="10.4189" rx="9.96287" ry="10.4189" transform="matrix(0.950261 -0.311454 0.362928 0.931817 1646.35 280.195)" fill="#F34529"/>
<ellipse cx="9.96287" cy="10.4189" rx="9.96287" ry="10.4189" transform="matrix(0.950261 -0.311454 0.362928 0.931817 1646.35 280.195)" fill="#F34529"/>
<ellipse cx="9.96287" cy="10.4189" rx="9.96287" ry="10.4189" transform="matrix(0.950261 -0.311454 0.362928 0.931817 1646.35 280.195)" fill="#F34529"/>
<ellipse cx="9.96287" cy="10.4189" rx="9.96287" ry="10.4189" transform="matrix(0.950261 -0.311454 0.362928 0.931817 1646.35 280.195)" fill="#FFBA15"/>
<ellipse cx="9.96287" cy="10.4189" rx="9.96287" ry="10.4189" transform="matrix(0.950261 -0.311454 0.362928 0.931817 1694.32 257.174)" fill="#F34529"/>
<ellipse cx="9.96287" cy="10.4189" rx="9.96287" ry="10.4189" transform="matrix(0.950261 -0.311454 0.362928 0.931817 1694.32 257.174)" fill="#F34529"/>
<ellipse cx="9.96287" cy="10.4189" rx="9.96287" ry="10.4189" transform="matrix(0.950261 -0.311454 0.362928 0.931817 1694.32 257.174)" fill="#F34529"/>
<ellipse cx="9.96287" cy="10.4189" rx="9.96287" ry="10.4189" transform="matrix(0.950261 -0.311454 0.362928 0.931817 1694.32 257.174)" fill="#F34529"/>
<ellipse cx="9.96287" cy="10.4189" rx="9.96287" ry="10.4189" transform="matrix(0.950261 -0.311454 0.362928 0.931817 1694.32 257.174)" fill="#FFBA15"/>
<ellipse cx="9.96287" cy="10.4189" rx="9.96287" ry="10.4189" transform="matrix(0.950261 -0.311454 0.362928 0.931817 1732.19 244.763)" fill="#F34529"/>
<ellipse cx="9.96287" cy="10.4189" rx="9.96287" ry="10.4189" transform="matrix(0.950261 -0.311454 0.362928 0.931817 1732.19 244.763)" fill="#F34529"/>
<ellipse cx="9.96287" cy="10.4189" rx="9.96287" ry="10.4189" transform="matrix(0.950261 -0.311454 0.362928 0.931817 1732.19 244.763)" fill="#F34529"/>
<ellipse cx="9.96287" cy="10.4189" rx="9.96287" ry="10.4189" transform="matrix(0.950261 -0.311454 0.362928 0.931817 1732.19 244.763)" fill="#F34529"/>
<ellipse cx="9.96287" cy="10.4189" rx="9.96287" ry="10.4189" transform="matrix(0.950261 -0.311454 0.362928 0.931817 1732.19 244.763)" fill="#FFBA15"/>
<path d="M1618.57 300.248C1620.66 305.61 1618.11 311.346 1612.88 313.06C1607.66 314.773 1601.72 311.816 1599.64 306.454C1597.55 301.092 1600.09 295.356 1605.32 293.643C1610.55 291.929 1616.48 294.886 1618.57 300.248Z" fill="#F34529"/>
<path d="M1618.57 300.248C1620.66 305.61 1618.11 311.346 1612.88 313.06C1607.66 314.773 1601.72 311.816 1599.64 306.454C1597.55 301.092 1600.09 295.356 1605.32 293.643C1610.55 291.929 1616.48 294.886 1618.57 300.248Z" fill="#F34529"/>
<path d="M1618.57 300.248C1620.66 305.61 1618.11 311.346 1612.88 313.06C1607.66 314.773 1601.72 311.816 1599.64 306.454C1597.55 301.092 1600.09 295.356 1605.32 293.643C1610.55 291.929 1616.48 294.886 1618.57 300.248Z" fill="#F34529"/>
<path d="M1618.57 300.248C1620.66 305.61 1618.11 311.346 1612.88 313.06C1607.66 314.773 1601.72 311.816 1599.64 306.454C1597.55 301.092 1600.09 295.356 1605.32 293.643C1610.55 291.929 1616.48 294.886 1618.57 300.248Z" fill="#F34529"/>
<path d="M1618.57 300.248C1620.66 305.61 1618.11 311.346 1612.88 313.06C1607.66 314.773 1601.72 311.816 1599.64 306.454C1597.55 301.092 1600.09 295.356 1605.32 293.643C1610.55 291.929 1616.48 294.886 1618.57 300.248Z" fill="#FFBA15"/>
<ellipse cx="9.96287" cy="10.4189" rx="9.96287" ry="10.4189" transform="matrix(0.950261 -0.311454 0.362928 0.931817 1666.59 185.979)" fill="#F34529"/>
<ellipse cx="9.96287" cy="10.4189" rx="9.96287" ry="10.4189" transform="matrix(0.950261 -0.311454 0.362928 0.931817 1666.59 185.979)" fill="#F34529"/>
<ellipse cx="9.96287" cy="10.4189" rx="9.96287" ry="10.4189" transform="matrix(0.950261 -0.311454 0.362928 0.931817 1666.59 185.979)" fill="#F34529"/>
<ellipse cx="9.96287" cy="10.4189" rx="9.96287" ry="10.4189" transform="matrix(0.950261 -0.311454 0.362928 0.931817 1666.59 185.979)" fill="#F34529"/>
<ellipse cx="9.96287" cy="10.4189" rx="9.96287" ry="10.4189" transform="matrix(0.950261 -0.311454 0.362928 0.931817 1666.59 185.979)" fill="#FFBA15"/>
<ellipse cx="9.96287" cy="10.4189" rx="9.96287" ry="10.4189" transform="matrix(0.950261 -0.311454 0.362928 0.931817 1700.65 218.608)" fill="#F34529"/>
<ellipse cx="9.96287" cy="10.4189" rx="9.96287" ry="10.4189" transform="matrix(0.950261 -0.311454 0.362928 0.931817 1700.65 218.608)" fill="#F34529"/>
<ellipse cx="9.96287" cy="10.4189" rx="9.96287" ry="10.4189" transform="matrix(0.950261 -0.311454 0.362928 0.931817 1700.65 218.608)" fill="#F34529"/>
<ellipse cx="9.96287" cy="10.4189" rx="9.96287" ry="10.4189" transform="matrix(0.950261 -0.311454 0.362928 0.931817 1700.65 218.608)" fill="#F34529"/>
<ellipse cx="9.96287" cy="10.4189" rx="9.96287" ry="10.4189" transform="matrix(0.950261 -0.311454 0.362928 0.931817 1700.65 218.608)" fill="#FFBA15"/>
<ellipse cx="9.96287" cy="10.4189" rx="9.96287" ry="10.4189" transform="matrix(0.950261 -0.311454 0.362928 0.931817 1662.78 231.019)" fill="#F34529"/>
<ellipse cx="9.96287" cy="10.4189" rx="9.96287" ry="10.4189" transform="matrix(0.950261 -0.311454 0.362928 0.931817 1662.78 231.019)" fill="#F34529"/>
<ellipse cx="9.96287" cy="10.4189" rx="9.96287" ry="10.4189" transform="matrix(0.950261 -0.311454 0.362928 0.931817 1662.78 231.019)" fill="#F34529"/>
<ellipse cx="9.96287" cy="10.4189" rx="9.96287" ry="10.4189" transform="matrix(0.950261 -0.311454 0.362928 0.931817 1662.78 231.019)" fill="#F34529"/>
<ellipse cx="9.96287" cy="10.4189" rx="9.96287" ry="10.4189" transform="matrix(0.950261 -0.311454 0.362928 0.931817 1662.78 231.019)" fill="#FFBA15"/>
<ellipse cx="9.96287" cy="10.4189" rx="9.96287" ry="10.4189" transform="matrix(0.950261 -0.311454 0.362928 0.931817 1614.81 254.041)" fill="#F34529"/>
<ellipse cx="9.96287" cy="10.4189" rx="9.96287" ry="10.4189" transform="matrix(0.950261 -0.311454 0.362928 0.931817 1614.81 254.041)" fill="#F34529"/>
<ellipse cx="9.96287" cy="10.4189" rx="9.96287" ry="10.4189" transform="matrix(0.950261 -0.311454 0.362928 0.931817 1614.81 254.041)" fill="#F34529"/>
<ellipse cx="9.96287" cy="10.4189" rx="9.96287" ry="10.4189" transform="matrix(0.950261 -0.311454 0.362928 0.931817 1614.81 254.041)" fill="#F34529"/>
<ellipse cx="9.96287" cy="10.4189" rx="9.96287" ry="10.4189" transform="matrix(0.950261 -0.311454 0.362928 0.931817 1614.81 254.041)" fill="#FFBA15"/>
<ellipse cx="9.96287" cy="10.4189" rx="9.96287" ry="10.4189" transform="matrix(0.950261 -0.311454 0.362928 0.931817 1624.93 206.932)" fill="#F34529"/>
<ellipse cx="9.96287" cy="10.4189" rx="9.96287" ry="10.4189" transform="matrix(0.950261 -0.311454 0.362928 0.931817 1624.93 206.932)" fill="#F34529"/>
<ellipse cx="9.96287" cy="10.4189" rx="9.96287" ry="10.4189" transform="matrix(0.950261 -0.311454 0.362928 0.931817 1624.93 206.932)" fill="#F34529"/>
<ellipse cx="9.96287" cy="10.4189" rx="9.96287" ry="10.4189" transform="matrix(0.950261 -0.311454 0.362928 0.931817 1624.93 206.932)" fill="#F34529"/>
<ellipse cx="9.96287" cy="10.4189" rx="9.96287" ry="10.4189" transform="matrix(0.950261 -0.311454 0.362928 0.931817 1624.93 206.932)" fill="#FFBA15"/>
<ellipse cx="1830.5" cy="653.5" rx="127.5" ry="120.5" fill="#CC4485" fill-opacity="0.82"/>
<rect width="34.3847" height="33.5137" transform="matrix(0.972686 -0.232125 0.272829 0.962062 375 565.981)" fill="#2FD2CB"/>
<ellipse cx="9.82376" cy="10.5826" rx="9.82376" ry="10.5826" transform="matrix(0.865326 -0.50121 0.566977 0.823734 449.675 700.39)" fill="#F34529"/>
<ellipse cx="9.82376" cy="10.5826" rx="9.82376" ry="10.5826" transform="matrix(0.865326 -0.50121 0.566977 0.823734 449.675 700.39)" fill="#F34529"/>
<ellipse cx="9.82376" cy="10.5826" rx="9.82376" ry="10.5826" transform="matrix(0.865326 -0.50121 0.566977 0.823734 449.675 700.39)" fill="#F34529"/>
<ellipse cx="9.82376" cy="10.5826" rx="9.82376" ry="10.5826" transform="matrix(0.865326 -0.50121 0.566977 0.823734 449.675 700.39)" fill="#F34529"/>
<ellipse cx="9.82376" cy="10.5826" rx="9.82376" ry="10.5826" transform="matrix(0.865326 -0.50121 0.566977 0.823734 449.675 700.39)" fill="#FFBA15"/>
<ellipse cx="9.82376" cy="10.5826" rx="9.82376" ry="10.5826" transform="matrix(0.865326 -0.50121 0.566977 0.823734 489.341 815.597)" fill="#F34529"/>
<ellipse cx="9.82376" cy="10.5826" rx="9.82376" ry="10.5826" transform="matrix(0.865326 -0.50121 0.566977 0.823734 489.341 815.597)" fill="#F34529"/>
<ellipse cx="9.82376" cy="10.5826" rx="9.82376" ry="10.5826" transform="matrix(0.865326 -0.50121 0.566977 0.823734 489.341 815.597)" fill="#F34529"/>
<ellipse cx="9.82376" cy="10.5826" rx="9.82376" ry="10.5826" transform="matrix(0.865326 -0.50121 0.566977 0.823734 489.341 815.597)" fill="#F34529"/>
<ellipse cx="9.82376" cy="10.5826" rx="9.82376" ry="10.5826" transform="matrix(0.865326 -0.50121 0.566977 0.823734 489.341 815.597)" fill="#FFBA15"/>
<ellipse cx="9.82376" cy="10.5826" rx="9.82376" ry="10.5826" transform="matrix(0.865326 -0.50121 0.566977 0.823734 530.675 783.527)" fill="#F34529"/>
<ellipse cx="9.82376" cy="10.5826" rx="9.82376" ry="10.5826" transform="matrix(0.865326 -0.50121 0.566977 0.823734 530.675 783.527)" fill="#F34529"/>
<ellipse cx="9.82376" cy="10.5826" rx="9.82376" ry="10.5826" transform="matrix(0.865326 -0.50121 0.566977 0.823734 530.675 783.527)" fill="#F34529"/>
<ellipse cx="9.82376" cy="10.5826" rx="9.82376" ry="10.5826" transform="matrix(0.865326 -0.50121 0.566977 0.823734 530.675 783.527)" fill="#F34529"/>
<ellipse cx="9.82376" cy="10.5826" rx="9.82376" ry="10.5826" transform="matrix(0.865326 -0.50121 0.566977 0.823734 530.675 783.527)" fill="#FFBA15"/>
<ellipse cx="9.82376" cy="10.5826" rx="9.82376" ry="10.5826" transform="matrix(0.865326 -0.50121 0.566977 0.823734 564.68 763.833)" fill="#F34529"/>
<ellipse cx="9.82376" cy="10.5826" rx="9.82376" ry="10.5826" transform="matrix(0.865326 -0.50121 0.566977 0.823734 564.68 763.833)" fill="#F34529"/>
<ellipse cx="9.82376" cy="10.5826" rx="9.82376" ry="10.5826" transform="matrix(0.865326 -0.50121 0.566977 0.823734 564.68 763.833)" fill="#F34529"/>
<ellipse cx="9.82376" cy="10.5826" rx="9.82376" ry="10.5826" transform="matrix(0.865326 -0.50121 0.566977 0.823734 564.68 763.833)" fill="#F34529"/>
<ellipse cx="9.82376" cy="10.5826" rx="9.82376" ry="10.5826" transform="matrix(0.865326 -0.50121 0.566977 0.823734 564.68 763.833)" fill="#FFBA15"/>
<path d="M467.004 840.73C470.317 845.544 469.198 851.651 464.503 854.371C459.808 857.09 453.316 855.392 450.002 850.577C446.688 845.763 447.808 839.655 452.503 836.936C457.198 834.217 463.69 835.915 467.004 840.73Z" fill="#F34529"/>
<path d="M467.004 840.73C470.317 845.544 469.198 851.651 464.503 854.371C459.808 857.09 453.316 855.392 450.002 850.577C446.688 845.763 447.808 839.655 452.503 836.936C457.198 834.217 463.69 835.915 467.004 840.73Z" fill="#F34529"/>
<path d="M467.004 840.73C470.317 845.544 469.198 851.651 464.503 854.371C459.808 857.09 453.316 855.392 450.002 850.577C446.688 845.763 447.808 839.655 452.503 836.936C457.198 834.217 463.69 835.915 467.004 840.73Z" fill="#F34529"/>
<path d="M467.004 840.73C470.317 845.544 469.198 851.651 464.503 854.371C459.808 857.09 453.316 855.392 450.002 850.577C446.688 845.763 447.808 839.655 452.503 836.936C457.198 834.217 463.69 835.915 467.004 840.73Z" fill="#F34529"/>
<path d="M467.004 840.73C470.317 845.544 469.198 851.651 464.503 854.371C459.808 857.09 453.316 855.392 450.002 850.577C446.688 845.763 447.808 839.655 452.503 836.936C457.198 834.217 463.69 835.915 467.004 840.73Z" fill="#FFBA15"/>
<ellipse cx="9.82376" cy="10.5826" rx="9.82376" ry="10.5826" transform="matrix(0.865326 -0.50121 0.566977 0.823734 486.675 719.601)" fill="#F34529"/>
<ellipse cx="9.82376" cy="10.5826" rx="9.82376" ry="10.5826" transform="matrix(0.865326 -0.50121 0.566977 0.823734 486.675 719.601)" fill="#F34529"/>
<ellipse cx="9.82376" cy="10.5826" rx="9.82376" ry="10.5826" transform="matrix(0.865326 -0.50121 0.566977 0.823734 486.675 719.601)" fill="#F34529"/>
<ellipse cx="9.82376" cy="10.5826" rx="9.82376" ry="10.5826" transform="matrix(0.865326 -0.50121 0.566977 0.823734 486.675 719.601)" fill="#F34529"/>
<ellipse cx="9.82376" cy="10.5826" rx="9.82376" ry="10.5826" transform="matrix(0.865326 -0.50121 0.566977 0.823734 486.675 719.601)" fill="#FFBA15"/>
<ellipse cx="9.82376" cy="10.5826" rx="9.82376" ry="10.5826" transform="matrix(0.865326 -0.50121 0.566977 0.823734 527.675 744.624)" fill="#F34529"/>
<ellipse cx="9.82376" cy="10.5826" rx="9.82376" ry="10.5826" transform="matrix(0.865326 -0.50121 0.566977 0.823734 527.675 744.624)" fill="#F34529"/>
<ellipse cx="9.82376" cy="10.5826" rx="9.82376" ry="10.5826" transform="matrix(0.865326 -0.50121 0.566977 0.823734 527.675 744.624)" fill="#F34529"/>
<ellipse cx="9.82376" cy="10.5826" rx="9.82376" ry="10.5826" transform="matrix(0.865326 -0.50121 0.566977 0.823734 527.675 744.624)" fill="#F34529"/>
<ellipse cx="9.82376" cy="10.5826" rx="9.82376" ry="10.5826" transform="matrix(0.865326 -0.50121 0.566977 0.823734 527.675 744.624)" fill="#FFBA15"/>
<ellipse cx="9.82376" cy="10.5826" rx="9.82376" ry="10.5826" transform="matrix(0.865326 -0.50121 0.566977 0.823734 493.675 764.317)" fill="#F34529"/>
<ellipse cx="9.82376" cy="10.5826" rx="9.82376" ry="10.5826" transform="matrix(0.865326 -0.50121 0.566977 0.823734 493.675 764.317)" fill="#F34529"/>
<ellipse cx="9.82376" cy="10.5826" rx="9.82376" ry="10.5826" transform="matrix(0.865326 -0.50121 0.566977 0.823734 493.675 764.317)" fill="#F34529"/>
<ellipse cx="9.82376" cy="10.5826" rx="9.82376" ry="10.5826" transform="matrix(0.865326 -0.50121 0.566977 0.823734 493.675 764.317)" fill="#F34529"/>
<ellipse cx="9.82376" cy="10.5826" rx="9.82376" ry="10.5826" transform="matrix(0.865326 -0.50121 0.566977 0.823734 493.675 764.317)" fill="#FFBA15"/>
<ellipse cx="9.82376" cy="10.5826" rx="9.82376" ry="10.5826" transform="matrix(0.865326 -0.50121 0.566977 0.823734 452.334 796.39)" fill="#F34529"/>
<ellipse cx="9.82376" cy="10.5826" rx="9.82376" ry="10.5826" transform="matrix(0.865326 -0.50121 0.566977 0.823734 452.334 796.39)" fill="#F34529"/>
<ellipse cx="9.82376" cy="10.5826" rx="9.82376" ry="10.5826" transform="matrix(0.865326 -0.50121 0.566977 0.823734 452.334 796.39)" fill="#F34529"/>
<ellipse cx="9.82376" cy="10.5826" rx="9.82376" ry="10.5826" transform="matrix(0.865326 -0.50121 0.566977 0.823734 452.334 796.39)" fill="#F34529"/>
<ellipse cx="9.82376" cy="10.5826" rx="9.82376" ry="10.5826" transform="matrix(0.865326 -0.50121 0.566977 0.823734 452.334 796.39)" fill="#FFBA15"/>
<ellipse cx="9.82376" cy="10.5826" rx="9.82376" ry="10.5826" transform="matrix(0.865326 -0.50121 0.566977 0.823734 451.005 748.39)" fill="#F34529"/>
<ellipse cx="9.82376" cy="10.5826" rx="9.82376" ry="10.5826" transform="matrix(0.865326 -0.50121 0.566977 0.823734 451.005 748.39)" fill="#F34529"/>
<ellipse cx="9.82376" cy="10.5826" rx="9.82376" ry="10.5826" transform="matrix(0.865326 -0.50121 0.566977 0.823734 451.005 748.39)" fill="#F34529"/>
<ellipse cx="9.82376" cy="10.5826" rx="9.82376" ry="10.5826" transform="matrix(0.865326 -0.50121 0.566977 0.823734 451.005 748.39)" fill="#F34529"/>
<ellipse cx="9.82376" cy="10.5826" rx="9.82376" ry="10.5826" transform="matrix(0.865326 -0.50121 0.566977 0.823734 451.005 748.39)" fill="#FFBA15"/>
<path d="M1860.68 706.001L1739.24 908.766L1920.92 840.071L1860.68 706.001Z" fill="#277BFF" fill-opacity="0.73"/>
<path d="M364.108 961.348C366.275 961.689 368.273 962.909 370.139 963.884C378.393 968.196 386.537 972.622 394.58 977.254C399.208 979.92 403.86 982.514 408.159 985.617C409.243 986.399 410.35 987.535 411.618 988.046" stroke="#FFBA15" stroke-width="6" stroke-linecap="round"/>
<path d="M411.618 988.046C411.244 991.705 410.317 995.234 409.474 998.822C407.846 1005.75 407.212 1012.78 406.491 1019.82C406.191 1022.76 405.89 1025.69 405.59 1028.63" stroke="#FFBA15" stroke-width="6" stroke-linecap="round"/>
<path d="M406.367 1029.15C403.111 1029.4 399.684 1032.37 397.165 1033.97C389.772 1038.67 382.348 1042.35 373.716 1044.89C368.702 1046.36 363.791 1047.13 358.581 1047.64C357.852 1047.72 356.774 1047.39 356.388 1047.95" stroke="#FFBA15" stroke-width="5" stroke-linecap="round"/>
<path d="M356.387 1047.95C350.601 1040.73 345.546 1033.67 341.419 1025.49C338.511 1019.72 336.121 1013.76 333.584 1007.85C332.266 1004.79 332.465 1002.23 332.794 999.009C332.881 998.154 332.565 998.365 333.685 998.377C336.78 998.41 338.881 996.926 341.336 995.452C346.534 992.332 351.505 989.132 356.219 985.427C357.743 984.23 360.001 981.948 362.043 981.521" stroke="#FFBA15" stroke-width="5" stroke-linecap="round"/>
<path d="M362.044 981.521C363.592 981.719 364.938 982.235 366.283 982.96C370.286 985.118 374.164 987.485 378.137 989.692C380.893 991.222 385.244 992.783 387.352 995.085" stroke="#FFBA15" stroke-width="6" stroke-linecap="round"/>
<path d="M387.353 995.085C386.795 1000.54 386.237 1005.99 385.679 1011.44C385.508 1013.11 385.213 1014.82 385.737 1016.47C385.878 1016.91 386.61 1017.79 386.444 1018.25C386.313 1018.62 384.217 1018.73 383.913 1018.76C381.764 1019.02 380.069 1019.56 378.076 1020.31C374.476 1021.67 370.548 1022.83 366.712 1023.49C365.459 1023.7 363.864 1023.98 362.655 1024C360.961 1024.04 361.391 1025.11 360.472 1022.97C359.213 1020.04 356.471 1017.22 356.131 1014.05C355.955 1012.41 356.397 1010.63 356.564 1008.99" stroke="#FFBA15" stroke-width="6" stroke-linecap="round"/>
<path d="M1667.08 1120.55C1666.57 1118.42 1666.93 1116.11 1667.12 1114.01C1667.94 1104.74 1668.92 1095.52 1670.13 1086.32C1670.82 1081.02 1671.44 1075.73 1672.66 1070.57C1672.97 1069.27 1673.6 1067.81 1673.58 1066.45" stroke="#FFBA15" stroke-width="6" stroke-linecap="round"/>
<path d="M1673.58 1066.45C1677.11 1065.39 1680.72 1064.9 1684.36 1064.31C1691.39 1063.16 1698.12 1061.06 1704.9 1059.04C1707.73 1058.19 1710.56 1057.35 1713.39 1056.5" stroke="#FFBA15" stroke-width="6" stroke-linecap="round"/>
<path d="M1713.57 1055.58C1715.05 1058.5 1719.1 1060.53 1721.54 1062.24C1728.72 1067.27 1734.95 1072.73 1740.6 1079.74C1743.87 1083.81 1746.46 1088.05 1748.93 1092.67C1749.28 1093.31 1749.39 1094.43 1750.06 1094.57" stroke="#FFBA15" stroke-width="5" stroke-linecap="round"/>
<path d="M1750.06 1094.57C1745.59 1102.68 1741 1110.05 1735.02 1117C1730.81 1121.89 1726.2 1126.38 1721.72 1130.98C1719.39 1133.37 1716.95 1134.16 1713.85 1135.09C1713.03 1135.34 1713.34 1135.55 1712.93 1134.51C1711.77 1131.64 1709.6 1130.26 1707.3 1128.56C1702.43 1124.95 1697.57 1121.58 1692.34 1118.64C1690.66 1117.69 1687.68 1116.47 1686.51 1114.75" stroke="#FFBA15" stroke-width="5" stroke-linecap="round"/>
<path d="M1686.51 1114.75C1686.1 1113.24 1686.06 1111.8 1686.22 1110.28C1686.68 1105.76 1687.38 1101.27 1687.9 1096.75C1688.26 1093.62 1688.04 1089.01 1689.36 1086.18" stroke="#FFBA15" stroke-width="6" stroke-linecap="round"/>
<path d="M1689.36 1086.18C1694.62 1084.61 1699.87 1083.04 1705.12 1081.47C1706.73 1080.99 1708.42 1080.61 1709.74 1079.49C1710.09 1079.2 1710.63 1078.18 1711.12 1078.16C1711.51 1078.14 1712.41 1080.04 1712.56 1080.3C1713.62 1082.19 1714.76 1083.55 1716.22 1085.1C1718.85 1087.91 1721.43 1091.1 1723.5 1094.39C1724.18 1095.46 1725.04 1096.83 1725.53 1097.94C1726.21 1099.49 1727.03 1098.69 1725.41 1100.35C1723.19 1102.64 1721.62 1106.25 1718.83 1107.77C1717.38 1108.56 1715.56 1108.84 1713.99 1109.31" stroke="#FFBA15" stroke-width="6" stroke-linecap="round"/>
<ellipse cx="499.238" cy="1872.5" rx="87.5" ry="82.5" fill="#FE77DD" fill-opacity="0.76"/>
<rect width="40.3773" height="46.3868" transform="matrix(0.960969 -0.276655 0.323694 0.946162 743 1840.17)" fill="#2FD2CB" fill-opacity="0.95"/>
<path d="M423.679 1853.47L302.241 2056.24L483.92 1987.54L423.679 1853.47Z" fill="#277BFF" fill-opacity="0.73"/>
<rect width="34.3847" height="33.5137" transform="matrix(0.972686 -0.232125 0.272829 0.962062 422 2193.98)" fill="#2FD2CB"/>
<path d="M1866.11 2190.35C1868.28 2190.69 1870.27 2191.91 1872.14 2192.88C1880.39 2197.2 1888.54 2201.62 1896.58 2206.25C1901.21 2208.92 1905.86 2211.51 1910.16 2214.62C1911.24 2215.4 1912.35 2216.53 1913.62 2217.05" stroke="#FFBA15" stroke-width="6" stroke-linecap="round"/>
<path d="M1913.62 2217.05C1913.24 2220.71 1912.32 2224.23 1911.47 2227.82C1909.85 2234.75 1909.21 2241.78 1908.49 2248.82C1908.19 2251.76 1907.89 2254.69 1907.59 2257.63" stroke="#FFBA15" stroke-width="6" stroke-linecap="round"/>
<path d="M1908.37 2258.15C1905.11 2258.4 1901.68 2261.37 1899.17 2262.97C1891.77 2267.67 1884.35 2271.35 1875.72 2273.89C1870.7 2275.36 1865.79 2276.13 1860.58 2276.64C1859.85 2276.72 1858.77 2276.39 1858.39 2276.95" stroke="#FFBA15" stroke-width="5" stroke-linecap="round"/>
<path d="M1858.39 2276.95C1852.6 2269.73 1847.55 2262.67 1843.42 2254.49C1840.51 2248.72 1838.12 2242.76 1835.58 2236.85C1834.27 2233.79 1834.46 2231.23 1834.79 2228.01C1834.88 2227.15 1834.56 2227.36 1835.68 2227.38C1838.78 2227.41 1840.88 2225.93 1843.34 2224.45C1848.53 2221.33 1853.51 2218.13 1858.22 2214.43C1859.74 2213.23 1862 2210.95 1864.04 2210.52" stroke="#FFBA15" stroke-width="5" stroke-linecap="round"/>
<path d="M1864.04 2210.52C1865.59 2210.72 1866.94 2211.23 1868.28 2211.96C1872.29 2214.12 1876.16 2216.49 1880.14 2218.69C1882.89 2220.22 1887.24 2221.78 1889.35 2224.08" stroke="#FFBA15" stroke-width="6" stroke-linecap="round"/>
<path d="M1889.35 2224.08C1888.8 2229.54 1888.24 2234.99 1887.68 2240.44C1887.51 2242.11 1887.21 2243.82 1887.74 2245.47C1887.88 2245.91 1888.61 2246.79 1888.44 2247.25C1888.31 2247.62 1886.22 2247.73 1885.91 2247.76C1883.76 2248.02 1882.07 2248.56 1880.08 2249.31C1876.48 2250.67 1872.55 2251.83 1868.71 2252.49C1867.46 2252.7 1865.86 2252.98 1864.65 2253C1862.96 2253.04 1863.39 2254.11 1862.47 2251.97C1861.21 2249.04 1858.47 2246.22 1858.13 2243.05C1857.95 2241.41 1858.4 2239.63 1858.56 2237.99" stroke="#FFBA15" stroke-width="6" stroke-linecap="round"/>
<path d="M1776.71 2618.81C1776.2 2616.68 1776.56 2614.36 1776.75 2612.27C1777.58 2602.99 1778.55 2593.77 1779.76 2584.57C1780.45 2579.28 1781.07 2573.99 1782.29 2568.83C1782.6 2567.53 1783.23 2566.07 1783.21 2564.7" stroke="#FFBA15" stroke-width="6" stroke-linecap="round"/>
<path d="M1783.21 2564.7C1786.74 2563.65 1790.35 2563.16 1793.99 2562.56C1801.02 2561.42 1807.75 2559.32 1814.53 2557.29C1817.36 2556.45 1820.19 2555.6 1823.02 2554.76" stroke="#FFBA15" stroke-width="6" stroke-linecap="round"/>
<path d="M1823.2 2553.84C1824.68 2556.75 1828.73 2558.78 1831.17 2560.5C1838.35 2565.53 1844.58 2570.98 1850.23 2577.99C1853.5 2582.06 1856.09 2586.31 1858.56 2590.92C1858.91 2591.57 1859.02 2592.69 1859.69 2592.83" stroke="#FFBA15" stroke-width="5" stroke-linecap="round"/>
<path d="M1859.69 2592.83C1855.22 2600.94 1850.63 2608.31 1844.65 2615.25C1840.44 2620.14 1835.84 2624.63 1831.35 2629.23C1829.02 2631.62 1826.58 2632.42 1823.48 2633.34C1822.66 2633.59 1822.97 2633.8 1822.56 2632.76C1821.4 2629.89 1819.23 2628.52 1816.93 2626.81C1812.06 2623.2 1807.2 2619.83 1801.98 2616.89C1800.29 2615.94 1797.31 2614.73 1796.14 2613" stroke="#FFBA15" stroke-width="5" stroke-linecap="round"/>
<path d="M1796.14 2613C1795.73 2611.5 1795.69 2610.06 1795.85 2608.54C1796.31 2604.01 1797.02 2599.52 1797.54 2595.01C1797.9 2591.88 1797.67 2587.26 1798.99 2584.43" stroke="#FFBA15" stroke-width="6" stroke-linecap="round"/>
<path d="M1798.99 2584.43C1804.25 2582.86 1809.5 2581.29 1814.75 2579.73C1816.36 2579.24 1818.05 2578.86 1819.37 2577.75C1819.73 2577.45 1820.26 2576.44 1820.75 2576.41C1821.14 2576.39 1822.04 2578.29 1822.19 2578.56C1823.25 2580.45 1824.4 2581.8 1825.85 2583.36C1828.48 2586.17 1831.06 2589.35 1833.13 2592.64C1833.81 2593.72 1834.67 2595.09 1835.16 2596.2C1835.84 2597.75 1836.66 2596.94 1835.04 2598.61C1832.82 2600.89 1831.25 2604.51 1828.46 2606.03C1827.01 2606.82 1825.19 2607.09 1823.62 2607.57" stroke="#FFBA15" stroke-width="6" stroke-linecap="round"/>
<rect width="40.2127" height="46.6037" transform="matrix(0.937697 0.347454 -0.402988 0.915205 505.361 2788)" fill="#2FD2CB" fill-opacity="0.95"/>
<path d="M480.29 2886.86C459.311 2881.96 434.46 2899.85 424.657 2909.41L441.177 2922.13C444.436 2917.3 453.8 2907.25 465.178 2905.73C479.402 2903.82 474.661 2932.6 469.18 2959.27C463.699 2985.94 495.85 3028.34 553.039 2995.59C610.227 2962.83 612.655 2989.19 615.71 2997.85C620.007 3010.02 624.847 3032.39 622.823 3043.97L642.009 3044.77C652.157 2997.23 642.238 2976.27 631.562 2964.84C618.672 2951.05 578.892 2963.33 541.778 2979.92C504.665 2996.5 504.145 2954.45 506.219 2934.35C508.293 2914.26 506.514 2892.99 480.29 2886.86Z" fill="#CC4485" fill-opacity="0.8"/>
<rect width="40.2127" height="46.6037" transform="matrix(0.984886 -0.173206 0.113911 0.993491 1794 2941.96)" fill="#2FD2CB" fill-opacity="0.95"/>
<path d="M1757.01 3016.48L1769.85 2994.94L1656.04 2977.96L1677.23 3027.15L1619.51 3017.16L1633.23 3068.2L1592.12 3063.12L1594.25 3076.63L1655.41 3083.68L1640.18 3033.75L1705.1 3045.17L1685.63 2998.09L1757.01 3016.48Z" fill="#FFBA15"/>
<path d="M550.323 2963.93L599.15 2968.25L513.859 3107.37L452.823 3042.19L411.867 3113.91L340.279 3055.32L307.702 3104.68L287.258 3090.81L336.562 3017.82L404.79 3077.11L450.54 2996.27L509.773 3057.78L550.323 2963.93Z" fill="#FFBA15"/>
<ellipse cx="9.96287" cy="10.4189" rx="9.96287" ry="10.4189" transform="matrix(0.950261 -0.311454 0.362928 0.931817 1126.05 3034.82)" fill="#F34529"/>
<ellipse cx="9.96287" cy="10.4189" rx="9.96287" ry="10.4189" transform="matrix(0.950261 -0.311454 0.362928 0.931817 1126.05 3034.82)" fill="#F34529"/>
<ellipse cx="9.96287" cy="10.4189" rx="9.96287" ry="10.4189" transform="matrix(0.950261 -0.311454 0.362928 0.931817 1126.05 3034.82)" fill="#F34529"/>
<ellipse cx="9.96287" cy="10.4189" rx="9.96287" ry="10.4189" transform="matrix(0.950261 -0.311454 0.362928 0.931817 1126.05 3034.82)" fill="#F34529"/>
<ellipse cx="9.96287" cy="10.4189" rx="9.96287" ry="10.4189" transform="matrix(0.950261 -0.311454 0.362928 0.931817 1126.05 3034.82)" fill="#FFBA15"/>
<ellipse cx="9.96287" cy="10.4189" rx="9.96287" ry="10.4189" transform="matrix(0.950261 -0.311454 0.362928 0.931817 1137.35 3155.2)" fill="#F34529"/>
<ellipse cx="9.96287" cy="10.4189" rx="9.96287" ry="10.4189" transform="matrix(0.950261 -0.311454 0.362928 0.931817 1137.35 3155.2)" fill="#F34529"/>
<ellipse cx="9.96287" cy="10.4189" rx="9.96287" ry="10.4189" transform="matrix(0.950261 -0.311454 0.362928 0.931817 1137.35 3155.2)" fill="#F34529"/>
<ellipse cx="9.96287" cy="10.4189" rx="9.96287" ry="10.4189" transform="matrix(0.950261 -0.311454 0.362928 0.931817 1137.35 3155.2)" fill="#F34529"/>
<ellipse cx="9.96287" cy="10.4189" rx="9.96287" ry="10.4189" transform="matrix(0.950261 -0.311454 0.362928 0.931817 1137.35 3155.2)" fill="#FFBA15"/>
<ellipse cx="9.96287" cy="10.4189" rx="9.96287" ry="10.4189" transform="matrix(0.950261 -0.311454 0.362928 0.931817 1185.32 3132.17)" fill="#F34529"/>
<ellipse cx="9.96287" cy="10.4189" rx="9.96287" ry="10.4189" transform="matrix(0.950261 -0.311454 0.362928 0.931817 1185.32 3132.17)" fill="#F34529"/>
<ellipse cx="9.96287" cy="10.4189" rx="9.96287" ry="10.4189" transform="matrix(0.950261 -0.311454 0.362928 0.931817 1185.32 3132.17)" fill="#F34529"/>
<ellipse cx="9.96287" cy="10.4189" rx="9.96287" ry="10.4189" transform="matrix(0.950261 -0.311454 0.362928 0.931817 1185.32 3132.17)" fill="#F34529"/>
<ellipse cx="9.96287" cy="10.4189" rx="9.96287" ry="10.4189" transform="matrix(0.950261 -0.311454 0.362928 0.931817 1185.32 3132.17)" fill="#FFBA15"/>
<ellipse cx="9.96287" cy="10.4189" rx="9.96287" ry="10.4189" transform="matrix(0.950261 -0.311454 0.362928 0.931817 1223.19 3119.76)" fill="#F34529"/>
<ellipse cx="9.96287" cy="10.4189" rx="9.96287" ry="10.4189" transform="matrix(0.950261 -0.311454 0.362928 0.931817 1223.19 3119.76)" fill="#F34529"/>
<ellipse cx="9.96287" cy="10.4189" rx="9.96287" ry="10.4189" transform="matrix(0.950261 -0.311454 0.362928 0.931817 1223.19 3119.76)" fill="#F34529"/>
<ellipse cx="9.96287" cy="10.4189" rx="9.96287" ry="10.4189" transform="matrix(0.950261 -0.311454 0.362928 0.931817 1223.19 3119.76)" fill="#F34529"/>
<ellipse cx="9.96287" cy="10.4189" rx="9.96287" ry="10.4189" transform="matrix(0.950261 -0.311454 0.362928 0.931817 1223.19 3119.76)" fill="#FFBA15"/>
<path d="M1109.57 3175.25C1111.66 3180.61 1109.11 3186.35 1103.88 3188.06C1098.66 3189.77 1092.72 3186.82 1090.64 3181.45C1088.55 3176.09 1091.09 3170.36 1096.32 3168.64C1101.55 3166.93 1107.48 3169.89 1109.57 3175.25Z" fill="#F34529"/>
<path d="M1109.57 3175.25C1111.66 3180.61 1109.11 3186.35 1103.88 3188.06C1098.66 3189.77 1092.72 3186.82 1090.64 3181.45C1088.55 3176.09 1091.09 3170.36 1096.32 3168.64C1101.55 3166.93 1107.48 3169.89 1109.57 3175.25Z" fill="#F34529"/>
<path d="M1109.57 3175.25C1111.66 3180.61 1109.11 3186.35 1103.88 3188.06C1098.66 3189.77 1092.72 3186.82 1090.64 3181.45C1088.55 3176.09 1091.09 3170.36 1096.32 3168.64C1101.55 3166.93 1107.48 3169.89 1109.57 3175.25Z" fill="#F34529"/>
<path d="M1109.57 3175.25C1111.66 3180.61 1109.11 3186.35 1103.88 3188.06C1098.66 3189.77 1092.72 3186.82 1090.64 3181.45C1088.55 3176.09 1091.09 3170.36 1096.32 3168.64C1101.55 3166.93 1107.48 3169.89 1109.57 3175.25Z" fill="#F34529"/>
<path d="M1109.57 3175.25C1111.66 3180.61 1109.11 3186.35 1103.88 3188.06C1098.66 3189.77 1092.72 3186.82 1090.64 3181.45C1088.55 3176.09 1091.09 3170.36 1096.32 3168.64C1101.55 3166.93 1107.48 3169.89 1109.57 3175.25Z" fill="#FFBA15"/>
<ellipse cx="9.96287" cy="10.4189" rx="9.96287" ry="10.4189" transform="matrix(0.950261 -0.311454 0.362928 0.931817 1157.59 3060.98)" fill="#F34529"/>
<ellipse cx="9.96287" cy="10.4189" rx="9.96287" ry="10.4189" transform="matrix(0.950261 -0.311454 0.362928 0.931817 1157.59 3060.98)" fill="#F34529"/>
<ellipse cx="9.96287" cy="10.4189" rx="9.96287" ry="10.4189" transform="matrix(0.950261 -0.311454 0.362928 0.931817 1157.59 3060.98)" fill="#F34529"/>
<ellipse cx="9.96287" cy="10.4189" rx="9.96287" ry="10.4189" transform="matrix(0.950261 -0.311454 0.362928 0.931817 1157.59 3060.98)" fill="#F34529"/>
<ellipse cx="9.96287" cy="10.4189" rx="9.96287" ry="10.4189" transform="matrix(0.950261 -0.311454 0.362928 0.931817 1157.59 3060.98)" fill="#FFBA15"/>
<ellipse cx="9.96287" cy="10.4189" rx="9.96287" ry="10.4189" transform="matrix(0.950261 -0.311454 0.362928 0.931817 1191.65 3093.61)" fill="#F34529"/>
<ellipse cx="9.96287" cy="10.4189" rx="9.96287" ry="10.4189" transform="matrix(0.950261 -0.311454 0.362928 0.931817 1191.65 3093.61)" fill="#F34529"/>
<ellipse cx="9.96287" cy="10.4189" rx="9.96287" ry="10.4189" transform="matrix(0.950261 -0.311454 0.362928 0.931817 1191.65 3093.61)" fill="#F34529"/>
<ellipse cx="9.96287" cy="10.4189" rx="9.96287" ry="10.4189" transform="matrix(0.950261 -0.311454 0.362928 0.931817 1191.65 3093.61)" fill="#F34529"/>
<ellipse cx="9.96287" cy="10.4189" rx="9.96287" ry="10.4189" transform="matrix(0.950261 -0.311454 0.362928 0.931817 1191.65 3093.61)" fill="#FFBA15"/>
<ellipse cx="9.96287" cy="10.4189" rx="9.96287" ry="10.4189" transform="matrix(0.950261 -0.311454 0.362928 0.931817 1153.78 3106.02)" fill="#F34529"/>
<ellipse cx="9.96287" cy="10.4189" rx="9.96287" ry="10.4189" transform="matrix(0.950261 -0.311454 0.362928 0.931817 1153.78 3106.02)" fill="#F34529"/>
<ellipse cx="9.96287" cy="10.4189" rx="9.96287" ry="10.4189" transform="matrix(0.950261 -0.311454 0.362928 0.931817 1153.78 3106.02)" fill="#F34529"/>
<ellipse cx="9.96287" cy="10.4189" rx="9.96287" ry="10.4189" transform="matrix(0.950261 -0.311454 0.362928 0.931817 1153.78 3106.02)" fill="#F34529"/>
<ellipse cx="9.96287" cy="10.4189" rx="9.96287" ry="10.4189" transform="matrix(0.950261 -0.311454 0.362928 0.931817 1153.78 3106.02)" fill="#FFBA15"/>
<ellipse cx="9.96287" cy="10.4189" rx="9.96287" ry="10.4189" transform="matrix(0.950261 -0.311454 0.362928 0.931817 1105.81 3129.04)" fill="#F34529"/>
<ellipse cx="9.96287" cy="10.4189" rx="9.96287" ry="10.4189" transform="matrix(0.950261 -0.311454 0.362928 0.931817 1105.81 3129.04)" fill="#F34529"/>
<ellipse cx="9.96287" cy="10.4189" rx="9.96287" ry="10.4189" transform="matrix(0.950261 -0.311454 0.362928 0.931817 1105.81 3129.04)" fill="#F34529"/>
<ellipse cx="9.96287" cy="10.4189" rx="9.96287" ry="10.4189" transform="matrix(0.950261 -0.311454 0.362928 0.931817 1105.81 3129.04)" fill="#F34529"/>
<ellipse cx="9.96287" cy="10.4189" rx="9.96287" ry="10.4189" transform="matrix(0.950261 -0.311454 0.362928 0.931817 1105.81 3129.04)" fill="#FFBA15"/>
<ellipse cx="9.96287" cy="10.4189" rx="9.96287" ry="10.4189" transform="matrix(0.950261 -0.311454 0.362928 0.931817 1115.93 3081.93)" fill="#F34529"/>
<ellipse cx="9.96287" cy="10.4189" rx="9.96287" ry="10.4189" transform="matrix(0.950261 -0.311454 0.362928 0.931817 1115.93 3081.93)" fill="#F34529"/>
<ellipse cx="9.96287" cy="10.4189" rx="9.96287" ry="10.4189" transform="matrix(0.950261 -0.311454 0.362928 0.931817 1115.93 3081.93)" fill="#F34529"/>
<ellipse cx="9.96287" cy="10.4189" rx="9.96287" ry="10.4189" transform="matrix(0.950261 -0.311454 0.362928 0.931817 1115.93 3081.93)" fill="#F34529"/>
<ellipse cx="9.96287" cy="10.4189" rx="9.96287" ry="10.4189" transform="matrix(0.950261 -0.311454 0.362928 0.931817 1115.93 3081.93)" fill="#FFBA15"/>
<ellipse cx="625.5" cy="3136" rx="53.5" ry="49" fill="#0A0F7E"/>
<path d="M611.116 3478.86C590.137 3473.96 565.286 3491.85 555.483 3501.41L572.003 3514.13C575.263 3509.3 584.626 3499.25 596.004 3497.73C610.228 3495.82 605.487 3524.6 600.006 3551.27C594.525 3577.94 626.676 3620.34 683.865 3587.59C741.053 3554.83 743.482 3581.19 746.536 3589.85C750.833 3602.02 755.674 3624.39 753.649 3635.97L772.836 3636.77C782.983 3589.23 773.065 3568.27 762.388 3556.84C749.498 3543.05 709.718 3555.33 672.604 3571.92C635.491 3588.5 634.971 3546.45 637.045 3526.35C639.119 3506.26 637.341 3484.99 611.116 3478.86Z" fill="#CC4485" fill-opacity="0.8"/>
</svg>