<svg width="1085" height="310" viewBox="0 0 1085 310" fill="none" xmlns="http://www.w3.org/2000/svg">
<path d="M15.6552 8H1069.33V302H15.6552V8Z" fill="#FFFBD5"/>
<path d="M15.6792 7.75362H31.3584V15.5072H15.6792V7.75362Z" fill="#FE77DD"/>
<path d="M15.6792 294H31.3584V302H15.6792V294Z" fill="#FE77DD"/>
<path d="M0 15.5072H15.6792V294H0V15.5072Z" fill="#FE77DD"/>
<path d="M1069.32 15.5072H1085V297H1069.32V15.5072Z" fill="#FE77DD"/>
<path d="M1053.64 7.75362H1069.32V15.5072H1053.64V7.75362Z" fill="#FE77DD"/>
<path d="M1053.64 287H1069.32V302H1053.64V287Z" fill="#FE77DD"/>
<path d="M31.3584 0H1053.64V7.75362H31.3584V0Z" fill="#FE77DD"/>
<path d="M31.3584 302H1053.64V309.254H31.3584V302Z" fill="#FE77DD"/>
<rect x="37.6299" y="13.9565" width="1003.47" height="24.2865" rx="3" fill="url(#paint0_linear_2633_40)"/>
<defs>
<linearGradient id="paint0_linear_2633_40" x1="37.6299" y1="26.0998" x2="1041.1" y2="26.0998" gradientUnits="userSpaceOnUse">
<stop stop-color="#FE77DD"/>
<stop offset="1" stop-color="#FFD963"/>
</linearGradient>
</defs>
</svg>