<svg width="842" height="303" viewBox="0 0 842 303" fill="none" xmlns="http://www.w3.org/2000/svg">
<rect x="26.5" y="35.5" width="751" height="199" fill="#FE77DD" stroke="black"/>
<path d="M191 54H43V108" stroke="#FFFBD5" stroke-width="5"/>
<path d="M611 216L760 216V163" stroke="#FFFBD5" stroke-width="5"/>
<path d="M191 216H43V164" stroke="#FFFBD5" stroke-width="5"/>
<path d="M70.92 175L84.36 105.88H104.712L91.272 175H70.92ZM85.128 175L88.584 157.336H121.416L118.152 175H85.128ZM90.504 149.272L93.576 132.76H120.84L117.768 149.272H90.504ZM95.112 123.544L98.568 105.88H130.824L127.56 123.544H95.112ZM129.893 172.696C130.405 171.544 130.885 170.136 131.333 168.472C131.845 166.808 132.293 165.112 132.677 163.384C133.061 161.656 133.381 160.152 133.637 158.872L143.621 105.88H163.973L155.141 152.728C154.757 154.84 154.213 156.856 153.509 158.776C152.805 160.696 152.165 162.136 151.589 163.096L149.285 156.952C150.821 157.912 152.005 158.488 152.837 158.68C153.733 158.808 154.469 158.872 155.045 158.872C157.477 158.872 159.365 158.552 160.709 157.912C162.117 157.272 163.237 156.312 164.069 155.032C164.901 153.688 165.669 152.024 166.373 150.04L182.117 105.88H202.853L186.725 150.808C184.741 156.312 182.405 160.728 179.717 164.056C177.093 167.384 174.117 169.912 170.789 171.64C167.461 173.304 163.813 174.424 159.845 175C155.877 175.512 151.589 175.768 146.981 175.768C144.101 175.768 141.253 175.576 138.437 175.192C135.685 174.872 133.093 174.424 130.661 173.848L129.893 172.696ZM198.42 175L211.86 105.88H232.212L218.772 175H198.42ZM212.628 175L216.084 157.336H248.916L245.652 175H212.628ZM218.004 149.272L221.076 132.76H248.34L245.268 149.272H218.004ZM222.612 123.544L226.068 105.88H258.324L255.06 123.544H222.612ZM299.825 175L312.881 105.88H333.233L320.177 175H299.825ZM257.201 175L270.257 105.88H286.385L312.881 140.056L308.273 165.016L281.009 129.688L286.001 130.072L277.553 175H257.201ZM341.498 105.88H400.634L397.37 123.544H378.074L368.378 175H348.026L357.722 123.544H338.234L341.498 105.88ZM402.398 154.648H403.55C405.854 156.184 408.862 157.464 412.574 158.488C416.35 159.512 420.638 160.024 425.438 160.024C427.614 160.024 429.502 159.896 431.102 159.64C432.702 159.32 433.95 158.84 434.846 158.2C435.742 157.496 436.19 156.568 436.19 155.416C436.19 154.072 435.678 153.144 434.654 152.632C433.63 152.12 431.838 151.64 429.278 151.192L425.054 150.424C420.702 149.592 416.926 148.344 413.726 146.68C410.59 144.952 408.158 142.776 406.43 140.152C404.766 137.528 403.934 134.424 403.934 130.84C403.934 125.72 405.182 121.208 407.678 117.304C410.238 113.336 414.206 110.264 419.582 108.088C425.022 105.848 432.094 104.728 440.798 104.728C443.23 104.728 445.79 104.856 448.478 105.112C451.166 105.368 453.662 105.752 455.966 106.264C458.27 106.712 460.062 107.224 461.342 107.8L458.078 124.696H456.926C455.006 123.736 452.446 122.872 449.246 122.104C446.046 121.272 442.334 120.856 438.11 120.856C435.166 120.856 432.67 121.144 430.622 121.72C428.574 122.296 427.006 123.16 425.918 124.312C424.83 125.464 424.286 126.872 424.286 128.536C424.286 130.264 424.894 131.576 426.11 132.472C427.39 133.368 429.598 134.104 432.734 134.68L436.958 135.448C440.35 136.024 443.518 136.984 446.462 138.328C449.47 139.608 451.902 141.464 453.758 143.896C455.614 146.328 456.542 149.528 456.542 153.496C456.542 157.72 455.646 161.304 453.854 164.248C452.126 167.128 449.694 169.432 446.558 171.16C443.486 172.888 439.934 174.168 435.902 175C431.934 175.768 427.678 176.152 423.134 176.152C418.718 176.152 414.366 175.736 410.078 174.904C405.79 174.008 402.142 172.888 399.134 171.544L402.398 154.648Z" fill="#FFFBD5"/>
<path d="M611 54H760V108" stroke="#FFFBD5" stroke-width="5"/>
</svg>
