<svg width="712" height="1200" viewBox="0 0 712 1200" fill="none" xmlns="http://www.w3.org/2000/svg">
<path d="M712 143H0V1200H712V143Z" fill="black"/>
<path d="M0 235H470C497.61 235 520 257.39 520 285V1072C520 1099.61 497.61 1122 470 1122H0V235Z" fill="#FFAF15"/>
<path d="M712 143H0V199H712V143Z" fill="#BCB9B9"/>
<path d="M446 0H202V87H446V0Z" fill="#3B3A3A"/>
<path d="M0 137C0 109.39 22.386 87 50 87H598C625.61 87 648 109.39 648 137V143H0V137Z" fill="#858585"/>
<path d="M169 235H145V1122H169V235Z" fill="black"/>
<path d="M520 615H169V640H520V615Z" fill="black"/>
<path d="M153.5 927V918.5H145H78C62.26 918.5 49.5 931.26 49.5 947V1034C49.5 1049.74 62.26 1062.5 78 1062.5H145H153.5V1054V927Z" fill="#D9D9D9" stroke="black" stroke-width="17"/>
</svg>