<svg width="1200" height="712" viewBox="0 0 1200 712" fill="none" preserveAspectRatio="none" xmlns="http://www.w3.org/2000/svg">
<path d="M1057 712.004V0.00390625L-0.000976562 0.00390625V712.004L1057 712.004Z" fill="black"/>
<path d="M964.999 0.00390625V470.004C964.999 497.614 942.609 520.004 914.999 520.004L127.999 520.004C100.389 520.004 77.999 497.614 77.999 470.004V0.00390625L964.999 0.00390625Z" fill="#FFAF15"/>
<path d="M1057 712.004V0.00390625L1001 0.00390625L1001 712.004H1057Z" fill="#BCB9B9"/>
<path d="M1200 446.004V202.004H1113V446.004H1200Z" fill="#3B3A3A"/>
<path d="M1063 0.00390625C1090.61 0.00390625 1113 22.3899 1113 50.0039V598.004C1113 625.614 1090.61 648.004 1063 648.004H1057V0.00390625L1063 0.00390625Z" fill="#858585"/>
<path d="M964.999 169.004V145.004L77.999 145.004V169.004L964.999 169.004Z" fill="black"/>
<path d="M584.999 520.004V169.004H559.999V520.004H584.999Z" fill="black"/>
<path d="M272.999 153.504H281.499V145.004V78.0039C281.499 62.2639 268.739 49.5039 252.999 49.5039L165.999 49.5039C150.259 49.5039 137.499 62.2639 137.499 78.0039V145.004V153.504H145.999H272.999Z" fill="#D9D9D9" stroke="black" stroke-width="17"/>
</svg>
