<svg width="212" height="450" viewBox="0 0 212 450" fill="none" xmlns="http://www.w3.org/2000/svg">
<g clip-path="url(#clip0_4116_14)">
<rect width="212" height="450" fill="#04102F"/>
<rect x="10" y="9" width="10" height="5.5" rx="2.75" fill="white"/>
<rect x="10" y="23.2998" width="10" height="5.5" rx="2.75" fill="white"/>
<rect x="10" y="37.6001" width="10" height="5.5" rx="2.75" fill="white"/>
<rect x="10" y="51.8999" width="10" height="5.5" rx="2.75" fill="white"/>
<rect x="10" y="66.2002" width="10" height="5.5" rx="2.75" fill="white"/>
<rect x="10" y="80.5" width="10" height="5.5" rx="2.75" fill="white"/>
<rect x="10" y="94.7998" width="10" height="5.5" rx="2.75" fill="white"/>
<rect x="10" y="109.1" width="10" height="5.5" rx="2.75" fill="white"/>
<rect x="10" y="123.4" width="10" height="5.5" rx="2.75" fill="white"/>
<rect x="10" y="137.7" width="10" height="5.5" rx="2.75" fill="white"/>
<rect x="10" y="152" width="10" height="5.5" rx="2.75" fill="white"/>
<rect x="10" y="166.3" width="10" height="5.5" rx="2.75" fill="white"/>
<rect x="10" y="180.6" width="10" height="5.5" rx="2.75" fill="white"/>
<rect x="10" y="194.9" width="10" height="5.5" rx="2.75" fill="white"/>
<rect x="10" y="209.2" width="10" height="5.5" rx="2.75" fill="white"/>
<rect x="10" y="223.5" width="10" height="5.5" rx="2.75" fill="white"/>
<rect x="10" y="237.8" width="10" height="5.5" rx="2.75" fill="white"/>
<rect x="10" y="252.1" width="10" height="5.5" rx="2.75" fill="white"/>
<rect x="10" y="266.4" width="10" height="5.5" rx="2.75" fill="white"/>
<rect x="10" y="280.7" width="10" height="5.5" rx="2.75" fill="white"/>
<rect x="10" y="295" width="10" height="5.5" rx="2.75" fill="white"/>
<rect x="10" y="309.3" width="10" height="5.5" rx="2.75" fill="white"/>
<rect x="10" y="323.6" width="10" height="5.5" rx="2.75" fill="white"/>
<rect x="10" y="337.9" width="10" height="5.5" rx="2.75" fill="white"/>
<rect x="10" y="352.2" width="10" height="5.5" rx="2.75" fill="white"/>
<rect x="10" y="366.5" width="10" height="5.5" rx="2.75" fill="white"/>
<rect x="10" y="380.8" width="10" height="5.5" rx="2.75" fill="white"/>
<rect x="10" y="395.1" width="10" height="5.5" rx="2.75" fill="white"/>
<rect x="10" y="409.4" width="10" height="5.5" rx="2.75" fill="white"/>
<rect x="10" y="423.7" width="10" height="5.5" rx="2.75" fill="white"/>
<rect x="10" y="438" width="10" height="5.5" rx="2.75" fill="white"/>
<rect x="191" y="8" width="10" height="5.5" rx="2.75" fill="white"/>
<rect x="191" y="22.2998" width="10" height="5.5" rx="2.75" fill="white"/>
<rect x="191" y="36.6001" width="10" height="5.5" rx="2.75" fill="white"/>
<rect x="191" y="50.8999" width="10" height="5.5" rx="2.75" fill="white"/>
<rect x="191" y="65.2002" width="10" height="5.5" rx="2.75" fill="white"/>
<rect x="191" y="79.5" width="10" height="5.5" rx="2.75" fill="white"/>
<rect x="191" y="93.7998" width="10" height="5.5" rx="2.75" fill="white"/>
<rect x="191" y="108.1" width="10" height="5.5" rx="2.75" fill="white"/>
<rect x="191" y="122.4" width="10" height="5.5" rx="2.75" fill="white"/>
<rect x="191" y="136.7" width="10" height="5.5" rx="2.75" fill="white"/>
<rect x="191" y="151" width="10" height="5.5" rx="2.75" fill="white"/>
<rect x="191" y="165.3" width="10" height="5.5" rx="2.75" fill="white"/>
<rect x="191" y="179.6" width="10" height="5.5" rx="2.75" fill="white"/>
<rect x="191" y="193.9" width="10" height="5.5" rx="2.75" fill="white"/>
<rect x="191" y="208.2" width="10" height="5.5" rx="2.75" fill="white"/>
<rect x="191" y="222.5" width="10" height="5.5" rx="2.75" fill="white"/>
<rect x="191" y="236.8" width="10" height="5.5" rx="2.75" fill="white"/>
<rect x="191" y="251.1" width="10" height="5.5" rx="2.75" fill="white"/>
<rect x="191" y="265.4" width="10" height="5.5" rx="2.75" fill="white"/>
<rect x="191" y="279.7" width="10" height="5.5" rx="2.75" fill="white"/>
<rect x="191" y="294" width="10" height="5.5" rx="2.75" fill="white"/>
<rect x="191" y="308.3" width="10" height="5.5" rx="2.75" fill="white"/>
<rect x="191" y="322.6" width="10" height="5.5" rx="2.75" fill="white"/>
<rect x="191" y="336.9" width="10" height="5.5" rx="2.75" fill="white"/>
<rect x="191" y="351.2" width="10" height="5.5" rx="2.75" fill="white"/>
<rect x="191" y="365.5" width="10" height="5.5" rx="2.75" fill="white"/>
<rect x="191" y="379.8" width="10" height="5.5" rx="2.75" fill="white"/>
<rect x="191" y="394.1" width="10" height="5.5" rx="2.75" fill="white"/>
<rect x="191" y="408.4" width="10" height="5.5" rx="2.75" fill="white"/>
<rect x="191" y="422.7" width="10" height="5.5" rx="2.75" fill="white"/>
<rect x="191" y="437" width="10" height="5.5" rx="2.75" fill="white"/>
</g>
<defs>
<clipPath id="clip0_4116_14">
<rect width="212" height="450" fill="white"/>
</clipPath>
</defs>
</svg>
