<svg width="221" height="168" viewBox="0 0 221 168" fill="none" xmlns="http://www.w3.org/2000/svg">
<path d="M8.97899 107.241C-4.28359 124.219 1.51181 154.288 6.06734 167.201L24.5504 157.554C21.5341 152.566 16.3512 139.847 19.7493 128.881C23.997 115.174 48.115 131.566 70.0169 147.748C91.9187 163.931 143.903 152.571 138.21 86.9128C132.518 21.2544 157.457 30.1269 166.594 30.9918C179.447 32.2084 201.782 37.2166 211.438 43.919L220.221 26.8425C181.345 -2.34236 158.164 -2.1463 143.308 2.73995C125.372 8.63954 119.799 49.8971 119.257 90.5455C118.715 131.194 80.3363 113.995 62.9716 103.668C45.6069 93.3422 25.5572 86.0179 8.97899 107.241Z" fill="#CC4485" fill-opacity="0.8"/>
</svg>
