<svg width="1100" height="630" viewBox="0 0 1100 630" fill="none" preserveAspectRatio="none" xmlns="http://www.w3.org/2000/svg">
<path d="M0 580C0 607.614 22.3858 630 50 630H1050C1077.61 630 1100 607.614 1100 580V433H0V580Z" fill="#1B4468"/>
<path d="M0 433H1100V286L1090.38 306.236C1079.37 329.392 1052.79 339.8 1027.95 333.454C1022.11 331.963 1017.26 331 1014.5 331C1010.27 331 1008.75 329.039 1006.82 326.56C1003.5 322.297 998.997 316.5 977.5 316.5C959.486 316.5 954.806 321.974 951.041 326.378C947.7 330.286 945.079 333.351 934.5 331C922.667 328.371 910.619 318.827 901.763 309.897C894.247 302.319 891 291.742 891 281.068V239.894C891 229.045 884.515 219.247 874.529 215.008C856.984 207.559 837.675 220.26 833.797 238.921C831.532 249.816 828.215 258.687 823.5 260.5C818.767 262.32 813.239 266.857 806.723 272.206C795.341 281.548 780.943 293.366 762.5 297.5C745.297 301.356 741.818 318.056 739.12 331.005C737.271 339.885 735.788 347 730.5 347C725.048 347 721.618 341.371 717.704 334.946C712.284 326.051 705.934 315.629 692 316.5C679.794 317.263 673.02 324.75 666.35 332.123C659.905 339.247 653.557 346.263 642.5 347C636.976 347.368 631.813 349.19 627.169 351.775C610.739 360.921 593.746 372.213 574.959 371.402C423.909 364.887 134.271 369.581 0 373V433Z" fill="#1B4468"/>
<path d="M1100 50C1100 22.3858 1077.61 0 1050 0H50C22.3858 0 0 22.3858 0 50V373C134.271 369.581 423.909 364.887 574.959 371.402C593.746 372.213 610.739 360.921 627.169 351.775C631.813 349.19 636.976 347.368 642.5 347C653.557 346.263 659.905 339.247 666.35 332.123C673.02 324.75 679.794 317.263 692 316.5C705.934 315.629 712.284 326.051 717.704 334.946C721.618 341.371 725.048 347 730.5 347C735.788 347 737.271 339.885 739.12 331.005C741.818 318.056 745.297 301.356 762.5 297.5C780.943 293.366 795.341 281.548 806.723 272.206C813.239 266.857 818.767 262.32 823.5 260.5C828.215 258.687 831.532 249.816 833.797 238.921C837.675 220.26 856.984 207.559 874.529 215.008C884.515 219.247 891 229.045 891 239.894V281.068C891 291.742 894.247 302.319 901.763 309.897C910.619 318.827 922.667 328.371 934.5 331C945.079 333.351 947.7 330.286 951.041 326.378C954.806 321.974 959.486 316.5 977.5 316.5C998.997 316.5 1003.5 322.297 1006.82 326.56C1008.75 329.039 1010.27 331 1014.5 331C1017.26 331 1022.11 331.963 1027.95 333.454C1052.79 339.8 1079.37 329.392 1090.38 306.236L1100 286V50Z" fill="#2C587E"/>
</svg>
