<svg width="793" height="1378" viewBox="0 0 793 1378" fill="none" preserveAspectRatio="none" xmlns="http://www.w3.org/2000/svg">
<g clip-path="url(#clip0_2397_175)">
<rect x="793" width="1378" height="793" rx="50" transform="rotate(90 793 0)" fill="#EDD294"/>
<path fill-rule="evenodd" clip-rule="evenodd" d="M683.5 1201V174H150L57 132.5C57.8 170.5 57.3333 883.333 57 1235L150 1201H683.5Z" fill="#DD6D97"/>
<path d="M57 1235C57.1667 1255.67 76 1297 150 1297H683.5C694.776 1298.04 713.705 1294.37 727.748 1278L683.5 1201H150L57 1235Z" fill="url(#paint0_linear_2397_175)"/>
<path d="M150 80C118.667 81.6667 56.2 94.5 57 132.5L150 174H683.5L731.5 99.173C717.695 84.4935 696.485 80 683.5 80H150Z" fill="url(#paint1_linear_2397_175)"/>
<path d="M683.5 174V1201L727.748 1278C736.122 1268.24 742.759 1253.97 745 1233.5V136C745 119.577 739.49 107.669 731.5 99.173L683.5 174Z" fill="#123F60"/>
<path d="M88 1199C88 1226.61 110.386 1249 138 1249H656C683.614 1249 706 1226.61 706 1199V899.091H88V1199Z" fill="#1B4468"/>
<path d="M88 899.091H706V637.99L696.098 703.841C693.56 720.72 675.033 717.919 657.965 717.919C655.589 717.919 654.732 714.437 653.649 710.033C651.787 702.461 649.255 692.164 637.177 692.164C627.057 692.164 624.427 701.887 622.312 709.709C620.435 716.65 618.963 722.095 613.019 717.919C603.918 711.525 594.59 682.114 589.948 663.994C589 660.293 588.58 656.488 588.58 652.667V529.314C588.58 526.068 587.532 522.908 585.593 520.305C576.959 508.718 558.297 514.734 557.73 529.173C556.576 558.564 554.401 588.146 550.657 592.698C547.998 595.931 544.893 603.99 541.232 613.489C534.837 630.084 526.748 651.075 516.386 658.417C506.721 665.266 504.767 694.928 503.251 717.928C502.212 733.7 501.379 746.338 498.408 746.338C495.345 746.338 493.418 736.341 491.219 724.928C488.174 709.129 484.607 690.617 476.778 692.164C469.921 693.519 466.115 706.818 462.368 719.913C458.747 732.566 455.18 745.029 448.968 746.338C448.482 746.441 448.001 746.606 447.525 746.831C422.324 758.717 405.779 788.356 377.986 786.379C288.958 780.046 154.531 787.163 88 792.519V899.091Z" fill="#1B4468"/>
<path d="M706 180C706 152.386 683.614 130 656 130H138C110.386 130 88 152.386 88 180V792.519C154.531 787.163 288.958 780.046 377.986 786.379C405.779 788.356 422.324 758.717 447.525 746.831C448.001 746.606 448.482 746.441 448.968 746.338C455.18 745.029 458.747 732.566 462.368 719.913C466.115 706.818 469.921 693.519 476.778 692.164C484.607 690.617 488.174 709.129 491.219 724.928C493.418 736.341 495.345 746.338 498.408 746.338C501.379 746.338 502.212 733.7 503.251 717.928C504.767 694.928 506.721 665.266 516.386 658.417C526.748 651.075 534.837 630.084 541.232 613.489C544.893 603.99 547.998 595.931 550.657 592.698C554.401 588.146 556.576 558.564 557.73 529.173C558.297 514.734 576.959 508.718 585.593 520.305C587.532 522.908 588.58 526.068 588.58 529.314V652.667C588.58 656.488 589 660.293 589.948 663.994C594.59 682.114 603.918 711.525 613.019 717.919C618.963 722.095 620.435 716.65 622.312 709.709C624.427 701.887 627.057 692.164 637.177 692.164C649.255 692.164 651.787 702.461 653.649 710.033C654.732 714.437 655.589 717.919 657.965 717.919C675.033 717.919 693.56 720.72 696.098 703.841L706 637.99V180Z" fill="#2C587E"/>
</g>
<defs>
<linearGradient id="paint0_linear_2397_175" x1="317" y1="1278" x2="48" y2="1221.5" gradientUnits="userSpaceOnUse">
<stop stop-color="#1C5D8E"/>
<stop offset="1" stop-color="#DD6D97"/>
</linearGradient>
<linearGradient id="paint1_linear_2397_175" x1="78.5" y1="180.5" x2="379" y2="98.5" gradientUnits="userSpaceOnUse">
<stop stop-color="#DD6D97"/>
<stop offset="1" stop-color="#1D5E8F"/>
</linearGradient>
<clipPath id="clip0_2397_175">
<rect x="793" width="1378" height="793" rx="50" transform="rotate(90 793 0)" fill="white"/>
</clipPath>
</defs>
</svg>
