<svg width="764" height="2291" viewBox="0 0 764 2291" fill="none" xmlns="http://www.w3.org/2000/svg">
<path d="M118.082 333.531C118.572 333.608 119.023 333.883 119.445 334.104C121.311 335.079 123.152 336.079 124.97 337.126C126.016 337.729 127.068 338.315 128.04 339.017C128.285 339.193 128.535 339.45 128.822 339.566" stroke="#FFBA15" stroke-width="1.79999" stroke-linecap="round"/>
<path d="M128.821 339.566C128.736 340.393 128.527 341.191 128.336 342.002C127.968 343.568 127.825 345.156 127.662 346.748C127.594 347.412 127.526 348.076 127.458 348.739" stroke="#FFBA15" stroke-width="1.79999" stroke-linecap="round"/>
<path d="M127.635 348.857C126.899 348.913 126.124 349.584 125.555 349.947C123.884 351.01 122.205 351.842 120.254 352.414C119.121 352.747 118.01 352.921 116.833 353.038C116.668 353.054 116.424 352.981 116.337 353.108" stroke="#FFBA15" stroke-width="1.5" stroke-linecap="round"/>
<path d="M116.337 353.108C115.029 351.474 113.887 349.879 112.954 348.03C112.296 346.726 111.756 345.377 111.183 344.043C110.885 343.35 110.93 342.771 111.004 342.044C111.024 341.851 110.952 341.898 111.205 341.901C111.905 341.908 112.38 341.573 112.935 341.24C114.11 340.535 115.234 339.811 116.299 338.974C116.644 338.703 117.154 338.187 117.616 338.091" stroke="#FFBA15" stroke-width="1.5" stroke-linecap="round"/>
<path d="M117.615 338.091C117.965 338.135 118.269 338.252 118.573 338.416C119.478 338.904 120.355 339.439 121.253 339.937C121.876 340.283 122.86 340.636 123.336 341.157" stroke="#FFBA15" stroke-width="1.79999" stroke-linecap="round"/>
<path d="M123.336 341.157C123.21 342.389 123.084 343.622 122.958 344.854C122.919 345.232 122.853 345.618 122.971 345.99C123.003 346.09 123.168 346.288 123.131 346.394C123.101 346.477 122.627 346.501 122.559 346.509C122.073 346.567 121.69 346.689 121.239 346.859C120.425 347.165 119.538 347.429 118.67 347.578C118.387 347.626 118.027 347.688 117.753 347.694C117.37 347.701 117.468 347.943 117.26 347.46C116.975 346.799 116.355 346.16 116.279 345.444C116.239 345.074 116.339 344.67 116.377 344.3" stroke="#FFBA15" stroke-width="1.79999" stroke-linecap="round"/>
<path d="M118.589 456.47L132.718 452.393L123.921 500.551L99.7854 488.923L96.093 513.424L69.7204 504.784L65.9505 522.12L58.7293 520.454L64.6197 494.695L90.1288 503.896L94.1748 476.325L117.407 487.12L118.589 456.47Z" fill="#FFBA15"/>
<ellipse cx="411.872" cy="554.962" rx="31.65" ry="29.85" fill="#CC4485" fill-opacity="0.82"/>
<path d="M149.253 614.133C149.048 613.28 149.193 612.355 149.268 611.516C149.6 607.806 149.99 604.119 150.472 600.438C150.749 598.32 150.997 596.204 151.486 594.14C151.609 593.62 151.86 593.037 151.855 592.49" stroke="#FFBA15" stroke-width="2.4" stroke-linecap="round"/>
<path d="M151.855 592.49C153.265 592.069 154.711 591.872 156.166 591.634C158.976 591.176 161.669 590.336 164.383 589.525C165.514 589.187 166.645 588.849 167.776 588.511" stroke="#FFBA15" stroke-width="2.4" stroke-linecap="round"/>
<path d="M167.85 588.145C168.44 589.31 170.062 590.123 171.039 590.808C173.909 592.821 176.404 595.003 178.66 597.806C179.971 599.434 181.006 601.132 181.995 602.978C182.133 603.236 182.178 603.684 182.444 603.741" stroke="#FFBA15" stroke-width="2" stroke-linecap="round"/>
<path d="M182.445 603.741C180.658 606.985 178.823 609.933 176.431 612.71C174.744 614.666 172.904 616.462 171.111 618.303C170.179 619.259 169.202 619.577 167.962 619.947C167.633 620.046 167.759 620.131 167.593 619.715C167.131 618.566 166.262 618.016 165.341 617.334C163.393 615.89 161.45 614.542 159.36 613.366C158.684 612.986 157.496 612.501 157.026 611.811" stroke="#FFBA15" stroke-width="2" stroke-linecap="round"/>
<path d="M157.025 611.811C156.862 611.208 156.846 610.632 156.909 610.024C157.094 608.214 157.376 606.419 157.584 604.613C157.728 603.36 157.64 601.514 158.168 600.382" stroke="#FFBA15" stroke-width="2.4" stroke-linecap="round"/>
<path d="M158.168 600.382C160.268 599.755 162.369 599.127 164.469 598.499C165.114 598.307 165.789 598.155 166.318 597.71C166.46 597.59 166.672 597.185 166.87 597.175C167.026 597.167 167.385 597.926 167.445 598.033C167.869 598.787 168.328 599.331 168.91 599.953C169.962 601.077 170.993 602.35 171.823 603.667C172.094 604.097 172.439 604.645 172.633 605.088C172.905 605.709 173.235 605.387 172.586 606.053C171.696 606.966 171.071 608.412 169.953 609.022C169.374 609.337 168.646 609.447 168.016 609.635" stroke="#FFBA15" stroke-width="2.4" stroke-linecap="round"/>
<path d="M532.893 593.112L484.318 674.218L556.99 646.74L532.893 593.112Z" fill="#277BFF" fill-opacity="0.73"/>
<ellipse cx="3.98515" cy="4.16754" rx="3.98515" ry="4.16754" transform="matrix(0.950261 -0.311454 0.362928 0.931817 282.042 617.041)" fill="#F34529"/>
<ellipse cx="3.98515" cy="4.16754" rx="3.98515" ry="4.16754" transform="matrix(0.950261 -0.311454 0.362928 0.931817 282.042 617.041)" fill="#F34529"/>
<ellipse cx="3.98515" cy="4.16754" rx="3.98515" ry="4.16754" transform="matrix(0.950261 -0.311454 0.362928 0.931817 282.042 617.041)" fill="#F34529"/>
<ellipse cx="3.98515" cy="4.16754" rx="3.98515" ry="4.16754" transform="matrix(0.950261 -0.311454 0.362928 0.931817 282.042 617.041)" fill="#F34529"/>
<ellipse cx="3.98515" cy="4.16754" rx="3.98515" ry="4.16754" transform="matrix(0.950261 -0.311454 0.362928 0.931817 282.042 617.041)" fill="#FFBA15"/>
<ellipse cx="3.98515" cy="4.16754" rx="3.98515" ry="4.16754" transform="matrix(0.950261 -0.311454 0.362928 0.931817 286.562 665.19)" fill="#F34529"/>
<ellipse cx="3.98515" cy="4.16754" rx="3.98515" ry="4.16754" transform="matrix(0.950261 -0.311454 0.362928 0.931817 286.562 665.19)" fill="#F34529"/>
<ellipse cx="3.98515" cy="4.16754" rx="3.98515" ry="4.16754" transform="matrix(0.950261 -0.311454 0.362928 0.931817 286.562 665.19)" fill="#F34529"/>
<ellipse cx="3.98515" cy="4.16754" rx="3.98515" ry="4.16754" transform="matrix(0.950261 -0.311454 0.362928 0.931817 286.562 665.19)" fill="#F34529"/>
<ellipse cx="3.98515" cy="4.16754" rx="3.98515" ry="4.16754" transform="matrix(0.950261 -0.311454 0.362928 0.931817 286.562 665.19)" fill="#FFBA15"/>
<ellipse cx="3.98515" cy="4.16754" rx="3.98515" ry="4.16754" transform="matrix(0.950261 -0.311454 0.362928 0.931817 305.749 655.982)" fill="#F34529"/>
<ellipse cx="3.98515" cy="4.16754" rx="3.98515" ry="4.16754" transform="matrix(0.950261 -0.311454 0.362928 0.931817 305.749 655.982)" fill="#F34529"/>
<ellipse cx="3.98515" cy="4.16754" rx="3.98515" ry="4.16754" transform="matrix(0.950261 -0.311454 0.362928 0.931817 305.749 655.982)" fill="#F34529"/>
<ellipse cx="3.98515" cy="4.16754" rx="3.98515" ry="4.16754" transform="matrix(0.950261 -0.311454 0.362928 0.931817 305.749 655.982)" fill="#F34529"/>
<ellipse cx="3.98515" cy="4.16754" rx="3.98515" ry="4.16754" transform="matrix(0.950261 -0.311454 0.362928 0.931817 305.749 655.982)" fill="#FFBA15"/>
<ellipse cx="3.98515" cy="4.16754" rx="3.98515" ry="4.16754" transform="matrix(0.950261 -0.311454 0.362928 0.931817 320.896 651.017)" fill="#F34529"/>
<ellipse cx="3.98515" cy="4.16754" rx="3.98515" ry="4.16754" transform="matrix(0.950261 -0.311454 0.362928 0.931817 320.896 651.017)" fill="#F34529"/>
<ellipse cx="3.98515" cy="4.16754" rx="3.98515" ry="4.16754" transform="matrix(0.950261 -0.311454 0.362928 0.931817 320.896 651.017)" fill="#F34529"/>
<ellipse cx="3.98515" cy="4.16754" rx="3.98515" ry="4.16754" transform="matrix(0.950261 -0.311454 0.362928 0.931817 320.896 651.017)" fill="#F34529"/>
<ellipse cx="3.98515" cy="4.16754" rx="3.98515" ry="4.16754" transform="matrix(0.950261 -0.311454 0.362928 0.931817 320.896 651.017)" fill="#FFBA15"/>
<path d="M275.45 673.211C276.285 675.356 275.267 677.65 273.175 678.336C271.084 679.021 268.711 677.838 267.876 675.693C267.04 673.549 268.059 671.254 270.15 670.569C272.242 669.883 274.614 671.066 275.45 673.211Z" fill="#F34529"/>
<path d="M275.45 673.211C276.285 675.356 275.267 677.65 273.175 678.336C271.084 679.021 268.711 677.838 267.876 675.693C267.04 673.549 268.059 671.254 270.15 670.569C272.242 669.883 274.614 671.066 275.45 673.211Z" fill="#F34529"/>
<path d="M275.45 673.211C276.285 675.356 275.267 677.65 273.175 678.336C271.084 679.021 268.711 677.838 267.876 675.693C267.04 673.549 268.059 671.254 270.15 670.569C272.242 669.883 274.614 671.066 275.45 673.211Z" fill="#F34529"/>
<path d="M275.45 673.211C276.285 675.356 275.267 677.65 273.175 678.336C271.084 679.021 268.711 677.838 267.876 675.693C267.04 673.549 268.059 671.254 270.15 670.569C272.242 669.883 274.614 671.066 275.45 673.211Z" fill="#F34529"/>
<path d="M275.45 673.211C276.285 675.356 275.267 677.65 273.175 678.336C271.084 679.021 268.711 677.838 267.876 675.693C267.04 673.549 268.059 671.254 270.15 670.569C272.242 669.883 274.614 671.066 275.45 673.211Z" fill="#FFBA15"/>
<ellipse cx="3.98515" cy="4.16754" rx="3.98515" ry="4.16754" transform="matrix(0.950261 -0.311454 0.362928 0.931817 294.657 627.504)" fill="#F34529"/>
<ellipse cx="3.98515" cy="4.16754" rx="3.98515" ry="4.16754" transform="matrix(0.950261 -0.311454 0.362928 0.931817 294.657 627.504)" fill="#F34529"/>
<ellipse cx="3.98515" cy="4.16754" rx="3.98515" ry="4.16754" transform="matrix(0.950261 -0.311454 0.362928 0.931817 294.657 627.504)" fill="#F34529"/>
<ellipse cx="3.98515" cy="4.16754" rx="3.98515" ry="4.16754" transform="matrix(0.950261 -0.311454 0.362928 0.931817 294.657 627.504)" fill="#F34529"/>
<ellipse cx="3.98515" cy="4.16754" rx="3.98515" ry="4.16754" transform="matrix(0.950261 -0.311454 0.362928 0.931817 294.657 627.504)" fill="#FFBA15"/>
<ellipse cx="3.98515" cy="4.16754" rx="3.98515" ry="4.16754" transform="matrix(0.950261 -0.311454 0.362928 0.931817 308.28 640.555)" fill="#F34529"/>
<ellipse cx="3.98515" cy="4.16754" rx="3.98515" ry="4.16754" transform="matrix(0.950261 -0.311454 0.362928 0.931817 308.28 640.555)" fill="#F34529"/>
<ellipse cx="3.98515" cy="4.16754" rx="3.98515" ry="4.16754" transform="matrix(0.950261 -0.311454 0.362928 0.931817 308.28 640.555)" fill="#F34529"/>
<ellipse cx="3.98515" cy="4.16754" rx="3.98515" ry="4.16754" transform="matrix(0.950261 -0.311454 0.362928 0.931817 308.28 640.555)" fill="#F34529"/>
<ellipse cx="3.98515" cy="4.16754" rx="3.98515" ry="4.16754" transform="matrix(0.950261 -0.311454 0.362928 0.931817 308.28 640.555)" fill="#FFBA15"/>
<ellipse cx="3.98515" cy="4.16754" rx="3.98515" ry="4.16754" transform="matrix(0.950261 -0.311454 0.362928 0.931817 293.133 645.52)" fill="#F34529"/>
<ellipse cx="3.98515" cy="4.16754" rx="3.98515" ry="4.16754" transform="matrix(0.950261 -0.311454 0.362928 0.931817 293.133 645.52)" fill="#F34529"/>
<ellipse cx="3.98515" cy="4.16754" rx="3.98515" ry="4.16754" transform="matrix(0.950261 -0.311454 0.362928 0.931817 293.133 645.52)" fill="#F34529"/>
<ellipse cx="3.98515" cy="4.16754" rx="3.98515" ry="4.16754" transform="matrix(0.950261 -0.311454 0.362928 0.931817 293.133 645.52)" fill="#F34529"/>
<ellipse cx="3.98515" cy="4.16754" rx="3.98515" ry="4.16754" transform="matrix(0.950261 -0.311454 0.362928 0.931817 293.133 645.52)" fill="#FFBA15"/>
<ellipse cx="3.98515" cy="4.16754" rx="3.98515" ry="4.16754" transform="matrix(0.950261 -0.311454 0.362928 0.931817 273.944 654.729)" fill="#F34529"/>
<ellipse cx="3.98515" cy="4.16754" rx="3.98515" ry="4.16754" transform="matrix(0.950261 -0.311454 0.362928 0.931817 273.944 654.729)" fill="#F34529"/>
<ellipse cx="3.98515" cy="4.16754" rx="3.98515" ry="4.16754" transform="matrix(0.950261 -0.311454 0.362928 0.931817 273.944 654.729)" fill="#F34529"/>
<ellipse cx="3.98515" cy="4.16754" rx="3.98515" ry="4.16754" transform="matrix(0.950261 -0.311454 0.362928 0.931817 273.944 654.729)" fill="#F34529"/>
<ellipse cx="3.98515" cy="4.16754" rx="3.98515" ry="4.16754" transform="matrix(0.950261 -0.311454 0.362928 0.931817 273.944 654.729)" fill="#FFBA15"/>
<ellipse cx="3.98515" cy="4.16754" rx="3.98515" ry="4.16754" transform="matrix(0.950261 -0.311454 0.362928 0.931817 277.992 635.885)" fill="#F34529"/>
<ellipse cx="3.98515" cy="4.16754" rx="3.98515" ry="4.16754" transform="matrix(0.950261 -0.311454 0.362928 0.931817 277.992 635.885)" fill="#F34529"/>
<ellipse cx="3.98515" cy="4.16754" rx="3.98515" ry="4.16754" transform="matrix(0.950261 -0.311454 0.362928 0.931817 277.992 635.885)" fill="#F34529"/>
<ellipse cx="3.98515" cy="4.16754" rx="3.98515" ry="4.16754" transform="matrix(0.950261 -0.311454 0.362928 0.931817 277.992 635.885)" fill="#F34529"/>
<ellipse cx="3.98515" cy="4.16754" rx="3.98515" ry="4.16754" transform="matrix(0.950261 -0.311454 0.362928 0.931817 277.992 635.885)" fill="#FFBA15"/>
<ellipse cx="547.972" cy="768.362" rx="43.75" ry="41.25" fill="#FE77DD" fill-opacity="0.76"/>
<rect width="20.1887" height="23.1934" transform="matrix(0.960969 -0.276655 0.323694 0.946162 160.222 735.697)" fill="#2FD2CB" fill-opacity="0.95"/>
<path d="M421.153 732.964C421.894 733.081 422.577 733.498 423.215 733.831C426.036 735.305 428.82 736.818 431.569 738.401C433.151 739.313 434.741 740.199 436.211 741.26C436.581 741.527 436.96 741.916 437.393 742.09" stroke="#FFBA15" stroke-width="3" stroke-linecap="round"/>
<path d="M437.393 742.09C437.265 743.341 436.948 744.547 436.66 745.774C436.103 748.142 435.887 750.543 435.64 752.951C435.538 753.955 435.435 754.958 435.332 755.962" stroke="#FFBA15" stroke-width="3" stroke-linecap="round"/>
<path d="M435.598 756.14C434.485 756.225 433.314 757.24 432.453 757.788C429.926 759.396 427.388 760.653 424.438 761.519C422.724 762.022 421.045 762.285 419.264 762.462C419.015 762.487 418.647 762.376 418.515 762.568" stroke="#FFBA15" stroke-width="2.5" stroke-linecap="round"/>
<path d="M418.514 762.568C416.537 760.098 414.809 757.686 413.398 754.889C412.404 752.918 411.587 750.878 410.72 748.861C410.269 747.813 410.337 746.937 410.45 745.838C410.48 745.546 410.371 745.618 410.754 745.622C411.812 745.633 412.53 745.126 413.37 744.622C415.147 743.556 416.846 742.462 418.457 741.195C418.978 740.786 419.75 740.006 420.448 739.86" stroke="#FFBA15" stroke-width="2.5" stroke-linecap="round"/>
<path d="M420.447 739.86C420.976 739.928 421.436 740.104 421.896 740.352C423.265 741.089 424.59 741.899 425.948 742.653C426.89 743.176 428.377 743.71 429.098 744.496" stroke="#FFBA15" stroke-width="3" stroke-linecap="round"/>
<path d="M429.099 744.496C428.908 746.36 428.717 748.223 428.527 750.087C428.468 750.659 428.367 751.242 428.546 751.805C428.595 751.956 428.845 752.256 428.788 752.415C428.743 752.541 428.027 752.577 427.923 752.59C427.188 752.678 426.609 752.862 425.928 753.119C424.697 753.582 423.354 753.98 422.043 754.206C421.615 754.279 421.07 754.373 420.657 754.381C420.078 754.392 420.224 754.758 419.91 754.028C419.48 753.028 418.543 752.061 418.427 750.979C418.366 750.419 418.517 749.808 418.575 749.249" stroke="#FFBA15" stroke-width="3" stroke-linecap="round"/>
<path d="M98.7607 854.389C98.5042 853.323 98.6859 852.166 98.7797 851.118C99.194 846.48 99.6819 841.872 100.284 837.27C100.631 834.622 100.94 831.977 101.552 829.398C101.706 828.747 102.019 828.018 102.013 827.335" stroke="#FFBA15" stroke-width="3" stroke-linecap="round"/>
<path d="M102.013 827.335C103.775 826.808 105.583 826.562 107.402 826.266C110.915 825.693 114.281 824.643 117.673 823.629C119.087 823.207 120.501 822.784 121.915 822.362" stroke="#FFBA15" stroke-width="3" stroke-linecap="round"/>
<path d="M122.006 821.903C122.745 823.36 124.771 824.375 125.993 825.233C129.58 827.749 132.699 830.476 135.519 833.98C137.158 836.015 138.452 838.137 139.687 840.445C139.86 840.768 139.916 841.327 140.249 841.399" stroke="#FFBA15" stroke-width="2.5" stroke-linecap="round"/>
<path d="M140.25 841.399C138.017 845.454 135.723 849.139 132.732 852.609C130.624 855.055 128.324 857.3 126.082 859.601C124.918 860.796 123.696 861.194 122.147 861.656C121.735 861.779 121.893 861.886 121.684 861.366C121.108 859.93 120.021 859.243 118.871 858.39C116.435 856.585 114.007 854.9 111.394 853.43C110.549 852.955 109.063 852.348 108.476 851.486" stroke="#FFBA15" stroke-width="2.5" stroke-linecap="round"/>
<path d="M108.476 851.486C108.271 850.733 108.252 850.013 108.33 849.253C108.561 846.99 108.914 844.746 109.174 842.489C109.354 840.923 109.243 838.614 109.904 837.2" stroke="#FFBA15" stroke-width="3" stroke-linecap="round"/>
<path d="M109.904 837.2C112.529 836.415 115.155 835.631 117.78 834.847C118.586 834.606 119.431 834.416 120.091 833.859C120.269 833.709 120.534 833.204 120.781 833.191C120.976 833.181 121.426 834.13 121.501 834.263C122.031 835.207 122.604 835.886 123.332 836.664C124.646 838.068 125.935 839.66 126.973 841.306C127.312 841.844 127.743 842.529 127.986 843.083C128.325 843.859 128.738 843.456 127.926 844.288C126.815 845.429 126.032 847.237 124.635 847.999C123.912 848.394 123.002 848.531 122.214 848.767" stroke="#FFBA15" stroke-width="3" stroke-linecap="round"/>
<rect width="17.1924" height="16.7568" transform="matrix(0.972686 -0.232125 0.272829 0.962062 139.222 885.103)" fill="#2FD2CB"/>
<rect width="20.1064" height="23.3018" transform="matrix(0.937697 0.347454 -0.402988 0.915205 226.612 1611.11)" fill="#2FD2CB" fill-opacity="0.95"/>
<path d="M161.123 1635.67C152.494 1633.65 142.273 1641.01 138.241 1644.94L145.036 1650.17C146.376 1648.19 150.227 1644.05 154.907 1643.43C160.757 1642.64 158.808 1654.48 156.553 1665.45C154.299 1676.42 167.522 1693.86 191.044 1680.39C214.565 1666.91 215.564 1677.76 216.82 1681.31C218.587 1686.32 220.578 1695.52 219.745 1700.29L227.637 1700.61C231.81 1681.06 227.731 1672.44 223.34 1667.74C218.038 1662.07 201.677 1667.12 186.412 1673.94C171.148 1680.76 170.934 1663.47 171.787 1655.2C172.64 1646.94 171.908 1638.19 161.123 1635.67Z" fill="#CC4485" fill-opacity="0.8"/>
<path d="M170.97 1670.47L191.027 1668.67L166.656 1731.12L137.238 1709.2L125.892 1741.18L92.6879 1722.69L83.1042 1745.02L73.8302 1740.89L88.4587 1707.8L120.356 1726.81L132.977 1690.8L161.398 1711.36L170.97 1670.47Z" fill="#FFBA15"/>
<ellipse cx="200.972" cy="1850.61" rx="26.75" ry="24.5" fill="#0A0F7E"/>
<path d="M357.761 1881.39C357.504 1880.32 357.686 1879.17 357.78 1878.12C358.194 1873.48 358.682 1868.87 359.284 1864.27C359.631 1861.62 359.94 1858.98 360.552 1856.4C360.706 1855.75 361.019 1855.02 361.013 1854.34" stroke="#FFBA15" stroke-width="3" stroke-linecap="round"/>
<path d="M361.013 1854.33C362.775 1853.81 364.583 1853.56 366.402 1853.27C369.915 1852.69 373.281 1851.64 376.673 1850.63C378.087 1850.21 379.501 1849.78 380.915 1849.36" stroke="#FFBA15" stroke-width="3" stroke-linecap="round"/>
<path d="M381.006 1848.9C381.745 1850.36 383.771 1851.38 384.993 1852.23C388.58 1854.75 391.699 1857.48 394.519 1860.98C396.158 1863.01 397.452 1865.14 398.687 1867.44C398.86 1867.77 398.916 1868.33 399.249 1868.4" stroke="#FFBA15" stroke-width="2.5" stroke-linecap="round"/>
<path d="M399.25 1868.4C397.017 1872.45 394.723 1876.14 391.732 1879.61C389.624 1882.06 387.324 1884.3 385.082 1886.6C383.918 1887.8 382.696 1888.19 381.147 1888.66C380.735 1888.78 380.893 1888.89 380.684 1888.37C380.108 1886.93 379.021 1886.24 377.871 1885.39C375.435 1883.58 373.007 1881.9 370.394 1880.43C369.549 1879.96 368.063 1879.35 367.476 1878.49" stroke="#FFBA15" stroke-width="2.5" stroke-linecap="round"/>
<path d="M367.476 1878.49C367.271 1877.73 367.252 1877.01 367.33 1876.25C367.561 1873.99 367.914 1871.75 368.174 1869.49C368.354 1867.92 368.243 1865.61 368.904 1864.2" stroke="#FFBA15" stroke-width="3" stroke-linecap="round"/>
<path d="M368.904 1864.2C371.529 1863.42 374.155 1862.63 376.78 1861.85C377.586 1861.61 378.431 1861.42 379.091 1860.86C379.269 1860.71 379.534 1860.2 379.781 1860.19C379.976 1860.18 380.426 1861.13 380.501 1861.26C381.031 1862.21 381.604 1862.89 382.332 1863.66C383.646 1865.07 384.935 1866.66 385.973 1868.31C386.312 1868.84 386.743 1869.53 386.986 1870.08C387.325 1870.86 387.738 1870.46 386.926 1871.29C385.815 1872.43 385.032 1874.24 383.635 1875C382.912 1875.39 382.002 1875.53 381.214 1875.77" stroke="#FFBA15" stroke-width="3" stroke-linecap="round"/>
<ellipse cx="4.98143" cy="5.20943" rx="4.98143" ry="5.20943" transform="matrix(0.950261 -0.311454 0.362928 0.931817 119.247 1878.52)" fill="#F34529"/>
<ellipse cx="4.98143" cy="5.20943" rx="4.98143" ry="5.20943" transform="matrix(0.950261 -0.311454 0.362928 0.931817 119.247 1878.52)" fill="#F34529"/>
<ellipse cx="4.98143" cy="5.20943" rx="4.98143" ry="5.20943" transform="matrix(0.950261 -0.311454 0.362928 0.931817 119.247 1878.52)" fill="#F34529"/>
<ellipse cx="4.98143" cy="5.20943" rx="4.98143" ry="5.20943" transform="matrix(0.950261 -0.311454 0.362928 0.931817 119.247 1878.52)" fill="#F34529"/>
<ellipse cx="4.98143" cy="5.20943" rx="4.98143" ry="5.20943" transform="matrix(0.950261 -0.311454 0.362928 0.931817 119.247 1878.52)" fill="#FFBA15"/>
<ellipse cx="4.98143" cy="5.20943" rx="4.98143" ry="5.20943" transform="matrix(0.950261 -0.311454 0.362928 0.931817 124.896 1938.71)" fill="#F34529"/>
<ellipse cx="4.98143" cy="5.20943" rx="4.98143" ry="5.20943" transform="matrix(0.950261 -0.311454 0.362928 0.931817 124.896 1938.71)" fill="#F34529"/>
<ellipse cx="4.98143" cy="5.20943" rx="4.98143" ry="5.20943" transform="matrix(0.950261 -0.311454 0.362928 0.931817 124.896 1938.71)" fill="#F34529"/>
<ellipse cx="4.98143" cy="5.20943" rx="4.98143" ry="5.20943" transform="matrix(0.950261 -0.311454 0.362928 0.931817 124.896 1938.71)" fill="#F34529"/>
<ellipse cx="4.98143" cy="5.20943" rx="4.98143" ry="5.20943" transform="matrix(0.950261 -0.311454 0.362928 0.931817 124.896 1938.71)" fill="#FFBA15"/>
<ellipse cx="4.98143" cy="5.20943" rx="4.98143" ry="5.20943" transform="matrix(0.950261 -0.311454 0.362928 0.931817 148.881 1927.2)" fill="#F34529"/>
<ellipse cx="4.98143" cy="5.20943" rx="4.98143" ry="5.20943" transform="matrix(0.950261 -0.311454 0.362928 0.931817 148.881 1927.2)" fill="#F34529"/>
<ellipse cx="4.98143" cy="5.20943" rx="4.98143" ry="5.20943" transform="matrix(0.950261 -0.311454 0.362928 0.931817 148.881 1927.2)" fill="#F34529"/>
<ellipse cx="4.98143" cy="5.20943" rx="4.98143" ry="5.20943" transform="matrix(0.950261 -0.311454 0.362928 0.931817 148.881 1927.2)" fill="#F34529"/>
<ellipse cx="4.98143" cy="5.20943" rx="4.98143" ry="5.20943" transform="matrix(0.950261 -0.311454 0.362928 0.931817 148.881 1927.2)" fill="#FFBA15"/>
<ellipse cx="4.98143" cy="5.20943" rx="4.98143" ry="5.20943" transform="matrix(0.950261 -0.311454 0.362928 0.931817 167.815 1920.99)" fill="#F34529"/>
<ellipse cx="4.98143" cy="5.20943" rx="4.98143" ry="5.20943" transform="matrix(0.950261 -0.311454 0.362928 0.931817 167.815 1920.99)" fill="#F34529"/>
<ellipse cx="4.98143" cy="5.20943" rx="4.98143" ry="5.20943" transform="matrix(0.950261 -0.311454 0.362928 0.931817 167.815 1920.99)" fill="#F34529"/>
<ellipse cx="4.98143" cy="5.20943" rx="4.98143" ry="5.20943" transform="matrix(0.950261 -0.311454 0.362928 0.931817 167.815 1920.99)" fill="#F34529"/>
<ellipse cx="4.98143" cy="5.20943" rx="4.98143" ry="5.20943" transform="matrix(0.950261 -0.311454 0.362928 0.931817 167.815 1920.99)" fill="#FFBA15"/>
<path d="M111.007 1948.74C112.052 1951.42 110.779 1954.28 108.164 1955.14C105.55 1956 102.584 1954.52 101.54 1951.84C100.496 1949.16 101.769 1946.29 104.383 1945.43C106.997 1944.58 109.963 1946.05 111.007 1948.74Z" fill="#F34529"/>
<path d="M111.007 1948.74C112.052 1951.42 110.779 1954.28 108.164 1955.14C105.55 1956 102.584 1954.52 101.54 1951.84C100.496 1949.16 101.769 1946.29 104.383 1945.43C106.997 1944.58 109.963 1946.05 111.007 1948.74Z" fill="#F34529"/>
<path d="M111.007 1948.74C112.052 1951.42 110.779 1954.28 108.164 1955.14C105.55 1956 102.584 1954.52 101.54 1951.84C100.496 1949.16 101.769 1946.29 104.383 1945.43C106.997 1944.58 109.963 1946.05 111.007 1948.74Z" fill="#F34529"/>
<path d="M111.007 1948.74C112.052 1951.42 110.779 1954.28 108.164 1955.14C105.55 1956 102.584 1954.52 101.54 1951.84C100.496 1949.16 101.769 1946.29 104.383 1945.43C106.997 1944.58 109.963 1946.05 111.007 1948.74Z" fill="#F34529"/>
<path d="M111.007 1948.74C112.052 1951.42 110.779 1954.28 108.164 1955.14C105.55 1956 102.584 1954.52 101.54 1951.84C100.496 1949.16 101.769 1946.29 104.383 1945.43C106.997 1944.58 109.963 1946.05 111.007 1948.74Z" fill="#FFBA15"/>
<ellipse cx="4.98143" cy="5.20943" rx="4.98143" ry="5.20943" transform="matrix(0.950261 -0.311454 0.362928 0.931817 135.017 1891.6)" fill="#F34529"/>
<ellipse cx="4.98143" cy="5.20943" rx="4.98143" ry="5.20943" transform="matrix(0.950261 -0.311454 0.362928 0.931817 135.017 1891.6)" fill="#F34529"/>
<ellipse cx="4.98143" cy="5.20943" rx="4.98143" ry="5.20943" transform="matrix(0.950261 -0.311454 0.362928 0.931817 135.017 1891.6)" fill="#F34529"/>
<ellipse cx="4.98143" cy="5.20943" rx="4.98143" ry="5.20943" transform="matrix(0.950261 -0.311454 0.362928 0.931817 135.017 1891.6)" fill="#F34529"/>
<ellipse cx="4.98143" cy="5.20943" rx="4.98143" ry="5.20943" transform="matrix(0.950261 -0.311454 0.362928 0.931817 135.017 1891.6)" fill="#FFBA15"/>
<ellipse cx="4.98143" cy="5.20943" rx="4.98143" ry="5.20943" transform="matrix(0.950261 -0.311454 0.362928 0.931817 152.045 1907.92)" fill="#F34529"/>
<ellipse cx="4.98143" cy="5.20943" rx="4.98143" ry="5.20943" transform="matrix(0.950261 -0.311454 0.362928 0.931817 152.045 1907.92)" fill="#F34529"/>
<ellipse cx="4.98143" cy="5.20943" rx="4.98143" ry="5.20943" transform="matrix(0.950261 -0.311454 0.362928 0.931817 152.045 1907.92)" fill="#F34529"/>
<ellipse cx="4.98143" cy="5.20943" rx="4.98143" ry="5.20943" transform="matrix(0.950261 -0.311454 0.362928 0.931817 152.045 1907.92)" fill="#F34529"/>
<ellipse cx="4.98143" cy="5.20943" rx="4.98143" ry="5.20943" transform="matrix(0.950261 -0.311454 0.362928 0.931817 152.045 1907.92)" fill="#FFBA15"/>
<ellipse cx="4.98143" cy="5.20943" rx="4.98143" ry="5.20943" transform="matrix(0.950261 -0.311454 0.362928 0.931817 133.111 1914.12)" fill="#F34529"/>
<ellipse cx="4.98143" cy="5.20943" rx="4.98143" ry="5.20943" transform="matrix(0.950261 -0.311454 0.362928 0.931817 133.111 1914.12)" fill="#F34529"/>
<ellipse cx="4.98143" cy="5.20943" rx="4.98143" ry="5.20943" transform="matrix(0.950261 -0.311454 0.362928 0.931817 133.111 1914.12)" fill="#F34529"/>
<ellipse cx="4.98143" cy="5.20943" rx="4.98143" ry="5.20943" transform="matrix(0.950261 -0.311454 0.362928 0.931817 133.111 1914.12)" fill="#F34529"/>
<ellipse cx="4.98143" cy="5.20943" rx="4.98143" ry="5.20943" transform="matrix(0.950261 -0.311454 0.362928 0.931817 133.111 1914.12)" fill="#FFBA15"/>
<ellipse cx="4.98143" cy="5.20943" rx="4.98143" ry="5.20943" transform="matrix(0.950261 -0.311454 0.362928 0.931817 109.125 1925.63)" fill="#F34529"/>
<ellipse cx="4.98143" cy="5.20943" rx="4.98143" ry="5.20943" transform="matrix(0.950261 -0.311454 0.362928 0.931817 109.125 1925.63)" fill="#F34529"/>
<ellipse cx="4.98143" cy="5.20943" rx="4.98143" ry="5.20943" transform="matrix(0.950261 -0.311454 0.362928 0.931817 109.125 1925.63)" fill="#F34529"/>
<ellipse cx="4.98143" cy="5.20943" rx="4.98143" ry="5.20943" transform="matrix(0.950261 -0.311454 0.362928 0.931817 109.125 1925.63)" fill="#F34529"/>
<ellipse cx="4.98143" cy="5.20943" rx="4.98143" ry="5.20943" transform="matrix(0.950261 -0.311454 0.362928 0.931817 109.125 1925.63)" fill="#FFBA15"/>
<ellipse cx="4.98143" cy="5.20943" rx="4.98143" ry="5.20943" transform="matrix(0.950261 -0.311454 0.362928 0.931817 114.186 1902.08)" fill="#F34529"/>
<ellipse cx="4.98143" cy="5.20943" rx="4.98143" ry="5.20943" transform="matrix(0.950261 -0.311454 0.362928 0.931817 114.186 1902.08)" fill="#F34529"/>
<ellipse cx="4.98143" cy="5.20943" rx="4.98143" ry="5.20943" transform="matrix(0.950261 -0.311454 0.362928 0.931817 114.186 1902.08)" fill="#F34529"/>
<ellipse cx="4.98143" cy="5.20943" rx="4.98143" ry="5.20943" transform="matrix(0.950261 -0.311454 0.362928 0.931817 114.186 1902.08)" fill="#F34529"/>
<ellipse cx="4.98143" cy="5.20943" rx="4.98143" ry="5.20943" transform="matrix(0.950261 -0.311454 0.362928 0.931817 114.186 1902.08)" fill="#FFBA15"/>
<ellipse cx="521.972" cy="1934.36" rx="63.75" ry="60.25" fill="#CC4485" fill-opacity="0.82"/>
<path d="M351.461 1941.9L356.598 1933.29L311.074 1926.5L319.548 1946.17L296.463 1942.18L301.95 1962.59L285.504 1960.56L286.358 1965.96L310.822 1968.78L304.731 1948.81L330.699 1953.38L322.911 1934.55L351.461 1941.9Z" fill="#FFBA15"/>
<rect width="16.0851" height="18.6415" transform="matrix(0.984886 -0.173206 0.113911 0.993491 423.222 1920.9)" fill="#2FD2CB" fill-opacity="0.95"/>
<ellipse cx="276.972" cy="2000.36" rx="43.75" ry="41.25" fill="#FE77DD" fill-opacity="0.76"/>
<rect width="13.7539" height="13.4055" transform="matrix(0.972686 -0.232125 0.272829 0.962062 147.222 1972.3)" fill="#2FD2CB"/>
<ellipse cx="3.38738" cy="3.54241" rx="3.38738" ry="3.54241" transform="matrix(0.950261 -0.311454 0.362928 0.931817 512.56 78.2117)" fill="#F34529"/>
<ellipse cx="3.38738" cy="3.54241" rx="3.38738" ry="3.54241" transform="matrix(0.950261 -0.311454 0.362928 0.931817 512.56 78.2117)" fill="#F34529"/>
<ellipse cx="3.38738" cy="3.54241" rx="3.38738" ry="3.54241" transform="matrix(0.950261 -0.311454 0.362928 0.931817 512.56 78.2117)" fill="#F34529"/>
<ellipse cx="3.38738" cy="3.54241" rx="3.38738" ry="3.54241" transform="matrix(0.950261 -0.311454 0.362928 0.931817 512.56 78.2117)" fill="#F34529"/>
<ellipse cx="3.38738" cy="3.54241" rx="3.38738" ry="3.54241" transform="matrix(0.950261 -0.311454 0.362928 0.931817 512.56 78.2117)" fill="#FFBA15"/>
<ellipse cx="3.38738" cy="3.54241" rx="3.38738" ry="3.54241" transform="matrix(0.950261 -0.311454 0.362928 0.931817 516.401 119.138)" fill="#F34529"/>
<ellipse cx="3.38738" cy="3.54241" rx="3.38738" ry="3.54241" transform="matrix(0.950261 -0.311454 0.362928 0.931817 516.401 119.138)" fill="#F34529"/>
<ellipse cx="3.38738" cy="3.54241" rx="3.38738" ry="3.54241" transform="matrix(0.950261 -0.311454 0.362928 0.931817 516.401 119.138)" fill="#F34529"/>
<ellipse cx="3.38738" cy="3.54241" rx="3.38738" ry="3.54241" transform="matrix(0.950261 -0.311454 0.362928 0.931817 516.401 119.138)" fill="#F34529"/>
<ellipse cx="3.38738" cy="3.54241" rx="3.38738" ry="3.54241" transform="matrix(0.950261 -0.311454 0.362928 0.931817 516.401 119.138)" fill="#FFBA15"/>
<ellipse cx="3.38738" cy="3.54241" rx="3.38738" ry="3.54241" transform="matrix(0.950261 -0.311454 0.362928 0.931817 532.71 111.311)" fill="#F34529"/>
<ellipse cx="3.38738" cy="3.54241" rx="3.38738" ry="3.54241" transform="matrix(0.950261 -0.311454 0.362928 0.931817 532.71 111.311)" fill="#F34529"/>
<ellipse cx="3.38738" cy="3.54241" rx="3.38738" ry="3.54241" transform="matrix(0.950261 -0.311454 0.362928 0.931817 532.71 111.311)" fill="#F34529"/>
<ellipse cx="3.38738" cy="3.54241" rx="3.38738" ry="3.54241" transform="matrix(0.950261 -0.311454 0.362928 0.931817 532.71 111.311)" fill="#F34529"/>
<ellipse cx="3.38738" cy="3.54241" rx="3.38738" ry="3.54241" transform="matrix(0.950261 -0.311454 0.362928 0.931817 532.71 111.311)" fill="#FFBA15"/>
<ellipse cx="3.38738" cy="3.54241" rx="3.38738" ry="3.54241" transform="matrix(0.950261 -0.311454 0.362928 0.931817 545.586 107.091)" fill="#F34529"/>
<ellipse cx="3.38738" cy="3.54241" rx="3.38738" ry="3.54241" transform="matrix(0.950261 -0.311454 0.362928 0.931817 545.586 107.091)" fill="#F34529"/>
<ellipse cx="3.38738" cy="3.54241" rx="3.38738" ry="3.54241" transform="matrix(0.950261 -0.311454 0.362928 0.931817 545.586 107.091)" fill="#F34529"/>
<ellipse cx="3.38738" cy="3.54241" rx="3.38738" ry="3.54241" transform="matrix(0.950261 -0.311454 0.362928 0.931817 545.586 107.091)" fill="#F34529"/>
<ellipse cx="3.38738" cy="3.54241" rx="3.38738" ry="3.54241" transform="matrix(0.950261 -0.311454 0.362928 0.931817 545.586 107.091)" fill="#FFBA15"/>
<path d="M506.956 125.956C507.666 127.779 506.8 129.729 505.023 130.312C503.245 130.895 501.228 129.889 500.518 128.066C499.808 126.243 500.674 124.293 502.451 123.71C504.229 123.127 506.246 124.133 506.956 125.956Z" fill="#F34529"/>
<path d="M506.956 125.956C507.666 127.779 506.8 129.729 505.023 130.312C503.245 130.895 501.228 129.889 500.518 128.066C499.808 126.243 500.674 124.293 502.451 123.71C504.229 123.127 506.246 124.133 506.956 125.956Z" fill="#F34529"/>
<path d="M506.956 125.956C507.666 127.779 506.8 129.729 505.023 130.312C503.245 130.895 501.228 129.889 500.518 128.066C499.808 126.243 500.674 124.293 502.451 123.71C504.229 123.127 506.246 124.133 506.956 125.956Z" fill="#F34529"/>
<path d="M506.956 125.956C507.666 127.779 506.8 129.729 505.023 130.312C503.245 130.895 501.228 129.889 500.518 128.066C499.808 126.243 500.674 124.293 502.451 123.71C504.229 123.127 506.246 124.133 506.956 125.956Z" fill="#F34529"/>
<path d="M506.956 125.956C507.666 127.779 506.8 129.729 505.023 130.312C503.245 130.895 501.228 129.889 500.518 128.066C499.808 126.243 500.674 124.293 502.451 123.71C504.229 123.127 506.246 124.133 506.956 125.956Z" fill="#FFBA15"/>
<ellipse cx="3.38738" cy="3.54241" rx="3.38738" ry="3.54241" transform="matrix(0.950261 -0.311454 0.362928 0.931817 523.282 87.1049)" fill="#F34529"/>
<ellipse cx="3.38738" cy="3.54241" rx="3.38738" ry="3.54241" transform="matrix(0.950261 -0.311454 0.362928 0.931817 523.282 87.1049)" fill="#F34529"/>
<ellipse cx="3.38738" cy="3.54241" rx="3.38738" ry="3.54241" transform="matrix(0.950261 -0.311454 0.362928 0.931817 523.282 87.1049)" fill="#F34529"/>
<ellipse cx="3.38738" cy="3.54241" rx="3.38738" ry="3.54241" transform="matrix(0.950261 -0.311454 0.362928 0.931817 523.282 87.1049)" fill="#F34529"/>
<ellipse cx="3.38738" cy="3.54241" rx="3.38738" ry="3.54241" transform="matrix(0.950261 -0.311454 0.362928 0.931817 523.282 87.1049)" fill="#FFBA15"/>
<ellipse cx="3.38738" cy="3.54241" rx="3.38738" ry="3.54241" transform="matrix(0.950261 -0.311454 0.362928 0.931817 534.862 98.1985)" fill="#F34529"/>
<ellipse cx="3.38738" cy="3.54241" rx="3.38738" ry="3.54241" transform="matrix(0.950261 -0.311454 0.362928 0.931817 534.862 98.1985)" fill="#F34529"/>
<ellipse cx="3.38738" cy="3.54241" rx="3.38738" ry="3.54241" transform="matrix(0.950261 -0.311454 0.362928 0.931817 534.862 98.1985)" fill="#F34529"/>
<ellipse cx="3.38738" cy="3.54241" rx="3.38738" ry="3.54241" transform="matrix(0.950261 -0.311454 0.362928 0.931817 534.862 98.1985)" fill="#F34529"/>
<ellipse cx="3.38738" cy="3.54241" rx="3.38738" ry="3.54241" transform="matrix(0.950261 -0.311454 0.362928 0.931817 534.862 98.1985)" fill="#FFBA15"/>
<ellipse cx="3.38738" cy="3.54241" rx="3.38738" ry="3.54241" transform="matrix(0.950261 -0.311454 0.362928 0.931817 521.986 102.418)" fill="#F34529"/>
<ellipse cx="3.38738" cy="3.54241" rx="3.38738" ry="3.54241" transform="matrix(0.950261 -0.311454 0.362928 0.931817 521.986 102.418)" fill="#F34529"/>
<ellipse cx="3.38738" cy="3.54241" rx="3.38738" ry="3.54241" transform="matrix(0.950261 -0.311454 0.362928 0.931817 521.986 102.418)" fill="#F34529"/>
<ellipse cx="3.38738" cy="3.54241" rx="3.38738" ry="3.54241" transform="matrix(0.950261 -0.311454 0.362928 0.931817 521.986 102.418)" fill="#F34529"/>
<ellipse cx="3.38738" cy="3.54241" rx="3.38738" ry="3.54241" transform="matrix(0.950261 -0.311454 0.362928 0.931817 521.986 102.418)" fill="#FFBA15"/>
<ellipse cx="3.38738" cy="3.54241" rx="3.38738" ry="3.54241" transform="matrix(0.950261 -0.311454 0.362928 0.931817 505.677 110.246)" fill="#F34529"/>
<ellipse cx="3.38738" cy="3.54241" rx="3.38738" ry="3.54241" transform="matrix(0.950261 -0.311454 0.362928 0.931817 505.677 110.246)" fill="#F34529"/>
<ellipse cx="3.38738" cy="3.54241" rx="3.38738" ry="3.54241" transform="matrix(0.950261 -0.311454 0.362928 0.931817 505.677 110.246)" fill="#F34529"/>
<ellipse cx="3.38738" cy="3.54241" rx="3.38738" ry="3.54241" transform="matrix(0.950261 -0.311454 0.362928 0.931817 505.677 110.246)" fill="#F34529"/>
<ellipse cx="3.38738" cy="3.54241" rx="3.38738" ry="3.54241" transform="matrix(0.950261 -0.311454 0.362928 0.931817 505.677 110.246)" fill="#FFBA15"/>
<ellipse cx="3.38738" cy="3.54241" rx="3.38738" ry="3.54241" transform="matrix(0.950261 -0.311454 0.362928 0.931817 509.118 94.2286)" fill="#F34529"/>
<ellipse cx="3.38738" cy="3.54241" rx="3.38738" ry="3.54241" transform="matrix(0.950261 -0.311454 0.362928 0.931817 509.118 94.2286)" fill="#F34529"/>
<ellipse cx="3.38738" cy="3.54241" rx="3.38738" ry="3.54241" transform="matrix(0.950261 -0.311454 0.362928 0.931817 509.118 94.2286)" fill="#F34529"/>
<ellipse cx="3.38738" cy="3.54241" rx="3.38738" ry="3.54241" transform="matrix(0.950261 -0.311454 0.362928 0.931817 509.118 94.2286)" fill="#F34529"/>
<ellipse cx="3.38738" cy="3.54241" rx="3.38738" ry="3.54241" transform="matrix(0.950261 -0.311454 0.362928 0.931817 509.118 94.2286)" fill="#FFBA15"/>
<path d="M180.863 147.191L105.222 115.582L134.317 168.661L180.863 147.191Z" fill="#141975"/>
<rect width="11.6908" height="11.3947" transform="matrix(0.972686 -0.232125 0.272829 0.962062 119.222 190.825)" fill="#2FD2CB"/>
<ellipse cx="573.012" cy="246.062" rx="43.35" ry="40.97" fill="#CC4485" fill-opacity="0.82"/>
<ellipse cx="2.16265" cy="2.32972" rx="2.16265" ry="2.32972" transform="matrix(0.865326 -0.50121 0.566977 0.823734 123.372 267.658)" fill="#F34529"/>
<ellipse cx="2.16265" cy="2.32972" rx="2.16265" ry="2.32972" transform="matrix(0.865326 -0.50121 0.566977 0.823734 123.372 267.658)" fill="#F34529"/>
<ellipse cx="2.16265" cy="2.32972" rx="2.16265" ry="2.32972" transform="matrix(0.865326 -0.50121 0.566977 0.823734 123.372 267.658)" fill="#F34529"/>
<ellipse cx="2.16265" cy="2.32972" rx="2.16265" ry="2.32972" transform="matrix(0.865326 -0.50121 0.566977 0.823734 123.372 267.658)" fill="#F34529"/>
<ellipse cx="2.16265" cy="2.32972" rx="2.16265" ry="2.32972" transform="matrix(0.865326 -0.50121 0.566977 0.823734 123.372 267.658)" fill="#FFBA15"/>
<ellipse cx="2.16265" cy="2.32972" rx="2.16265" ry="2.32972" transform="matrix(0.865326 -0.50121 0.566977 0.823734 132.104 293.021)" fill="#F34529"/>
<ellipse cx="2.16265" cy="2.32972" rx="2.16265" ry="2.32972" transform="matrix(0.865326 -0.50121 0.566977 0.823734 132.104 293.021)" fill="#F34529"/>
<ellipse cx="2.16265" cy="2.32972" rx="2.16265" ry="2.32972" transform="matrix(0.865326 -0.50121 0.566977 0.823734 132.104 293.021)" fill="#F34529"/>
<ellipse cx="2.16265" cy="2.32972" rx="2.16265" ry="2.32972" transform="matrix(0.865326 -0.50121 0.566977 0.823734 132.104 293.021)" fill="#F34529"/>
<ellipse cx="2.16265" cy="2.32972" rx="2.16265" ry="2.32972" transform="matrix(0.865326 -0.50121 0.566977 0.823734 132.104 293.021)" fill="#FFBA15"/>
<ellipse cx="2.16265" cy="2.32972" rx="2.16265" ry="2.32972" transform="matrix(0.865326 -0.50121 0.566977 0.823734 141.205 285.96)" fill="#F34529"/>
<ellipse cx="2.16265" cy="2.32972" rx="2.16265" ry="2.32972" transform="matrix(0.865326 -0.50121 0.566977 0.823734 141.205 285.96)" fill="#F34529"/>
<ellipse cx="2.16265" cy="2.32972" rx="2.16265" ry="2.32972" transform="matrix(0.865326 -0.50121 0.566977 0.823734 141.205 285.96)" fill="#F34529"/>
<ellipse cx="2.16265" cy="2.32972" rx="2.16265" ry="2.32972" transform="matrix(0.865326 -0.50121 0.566977 0.823734 141.205 285.96)" fill="#F34529"/>
<ellipse cx="2.16265" cy="2.32972" rx="2.16265" ry="2.32972" transform="matrix(0.865326 -0.50121 0.566977 0.823734 141.205 285.96)" fill="#FFBA15"/>
<ellipse cx="2.16265" cy="2.32972" rx="2.16265" ry="2.32972" transform="matrix(0.865326 -0.50121 0.566977 0.823734 148.689 281.625)" fill="#F34529"/>
<ellipse cx="2.16265" cy="2.32972" rx="2.16265" ry="2.32972" transform="matrix(0.865326 -0.50121 0.566977 0.823734 148.689 281.625)" fill="#F34529"/>
<ellipse cx="2.16265" cy="2.32972" rx="2.16265" ry="2.32972" transform="matrix(0.865326 -0.50121 0.566977 0.823734 148.689 281.625)" fill="#F34529"/>
<ellipse cx="2.16265" cy="2.32972" rx="2.16265" ry="2.32972" transform="matrix(0.865326 -0.50121 0.566977 0.823734 148.689 281.625)" fill="#F34529"/>
<ellipse cx="2.16265" cy="2.32972" rx="2.16265" ry="2.32972" transform="matrix(0.865326 -0.50121 0.566977 0.823734 148.689 281.625)" fill="#FFBA15"/>
<path d="M127.188 298.553C127.917 299.613 127.671 300.957 126.637 301.556C125.604 302.155 124.174 301.781 123.445 300.721C122.715 299.661 122.962 298.316 123.995 297.718C125.029 297.119 126.458 297.493 127.188 298.553Z" fill="#F34529"/>
<path d="M127.188 298.553C127.917 299.613 127.671 300.957 126.637 301.556C125.604 302.155 124.174 301.781 123.445 300.721C122.715 299.661 122.962 298.316 123.995 297.718C125.029 297.119 126.458 297.493 127.188 298.553Z" fill="#F34529"/>
<path d="M127.188 298.553C127.917 299.613 127.671 300.957 126.637 301.556C125.604 302.155 124.174 301.781 123.445 300.721C122.715 299.661 122.962 298.316 123.995 297.718C125.029 297.119 126.458 297.493 127.188 298.553Z" fill="#F34529"/>
<path d="M127.188 298.553C127.917 299.613 127.671 300.957 126.637 301.556C125.604 302.155 124.174 301.781 123.445 300.721C122.715 299.661 122.962 298.316 123.995 297.718C125.029 297.119 126.458 297.493 127.188 298.553Z" fill="#F34529"/>
<path d="M127.188 298.553C127.917 299.613 127.671 300.957 126.637 301.556C125.604 302.155 124.174 301.781 123.445 300.721C122.715 299.661 122.962 298.316 123.995 297.718C125.029 297.119 126.458 297.493 127.188 298.553Z" fill="#FFBA15"/>
<ellipse cx="2.16265" cy="2.32972" rx="2.16265" ry="2.32972" transform="matrix(0.865326 -0.50121 0.566977 0.823734 131.519 271.887)" fill="#F34529"/>
<ellipse cx="2.16265" cy="2.32972" rx="2.16265" ry="2.32972" transform="matrix(0.865326 -0.50121 0.566977 0.823734 131.519 271.887)" fill="#F34529"/>
<ellipse cx="2.16265" cy="2.32972" rx="2.16265" ry="2.32972" transform="matrix(0.865326 -0.50121 0.566977 0.823734 131.519 271.887)" fill="#F34529"/>
<ellipse cx="2.16265" cy="2.32972" rx="2.16265" ry="2.32972" transform="matrix(0.865326 -0.50121 0.566977 0.823734 131.519 271.887)" fill="#F34529"/>
<ellipse cx="2.16265" cy="2.32972" rx="2.16265" ry="2.32972" transform="matrix(0.865326 -0.50121 0.566977 0.823734 131.519 271.887)" fill="#FFBA15"/>
<ellipse cx="2.16265" cy="2.32972" rx="2.16265" ry="2.32972" transform="matrix(0.865326 -0.50121 0.566977 0.823734 140.545 277.396)" fill="#F34529"/>
<ellipse cx="2.16265" cy="2.32972" rx="2.16265" ry="2.32972" transform="matrix(0.865326 -0.50121 0.566977 0.823734 140.545 277.396)" fill="#F34529"/>
<ellipse cx="2.16265" cy="2.32972" rx="2.16265" ry="2.32972" transform="matrix(0.865326 -0.50121 0.566977 0.823734 140.545 277.396)" fill="#F34529"/>
<ellipse cx="2.16265" cy="2.32972" rx="2.16265" ry="2.32972" transform="matrix(0.865326 -0.50121 0.566977 0.823734 140.545 277.396)" fill="#F34529"/>
<ellipse cx="2.16265" cy="2.32972" rx="2.16265" ry="2.32972" transform="matrix(0.865326 -0.50121 0.566977 0.823734 140.545 277.396)" fill="#FFBA15"/>
<ellipse cx="2.16265" cy="2.32972" rx="2.16265" ry="2.32972" transform="matrix(0.865326 -0.50121 0.566977 0.823734 133.06 281.731)" fill="#F34529"/>
<ellipse cx="2.16265" cy="2.32972" rx="2.16265" ry="2.32972" transform="matrix(0.865326 -0.50121 0.566977 0.823734 133.06 281.731)" fill="#F34529"/>
<ellipse cx="2.16265" cy="2.32972" rx="2.16265" ry="2.32972" transform="matrix(0.865326 -0.50121 0.566977 0.823734 133.06 281.731)" fill="#F34529"/>
<ellipse cx="2.16265" cy="2.32972" rx="2.16265" ry="2.32972" transform="matrix(0.865326 -0.50121 0.566977 0.823734 133.06 281.731)" fill="#F34529"/>
<ellipse cx="2.16265" cy="2.32972" rx="2.16265" ry="2.32972" transform="matrix(0.865326 -0.50121 0.566977 0.823734 133.06 281.731)" fill="#FFBA15"/>
<ellipse cx="2.16265" cy="2.32972" rx="2.16265" ry="2.32972" transform="matrix(0.865326 -0.50121 0.566977 0.823734 123.958 288.792)" fill="#F34529"/>
<ellipse cx="2.16265" cy="2.32972" rx="2.16265" ry="2.32972" transform="matrix(0.865326 -0.50121 0.566977 0.823734 123.958 288.792)" fill="#F34529"/>
<ellipse cx="2.16265" cy="2.32972" rx="2.16265" ry="2.32972" transform="matrix(0.865326 -0.50121 0.566977 0.823734 123.958 288.792)" fill="#F34529"/>
<ellipse cx="2.16265" cy="2.32972" rx="2.16265" ry="2.32972" transform="matrix(0.865326 -0.50121 0.566977 0.823734 123.958 288.792)" fill="#F34529"/>
<ellipse cx="2.16265" cy="2.32972" rx="2.16265" ry="2.32972" transform="matrix(0.865326 -0.50121 0.566977 0.823734 123.958 288.792)" fill="#FFBA15"/>
<ellipse cx="2.16265" cy="2.32972" rx="2.16265" ry="2.32972" transform="matrix(0.865326 -0.50121 0.566977 0.823734 123.665 278.226)" fill="#F34529"/>
<ellipse cx="2.16265" cy="2.32972" rx="2.16265" ry="2.32972" transform="matrix(0.865326 -0.50121 0.566977 0.823734 123.665 278.226)" fill="#F34529"/>
<ellipse cx="2.16265" cy="2.32972" rx="2.16265" ry="2.32972" transform="matrix(0.865326 -0.50121 0.566977 0.823734 123.665 278.226)" fill="#F34529"/>
<ellipse cx="2.16265" cy="2.32972" rx="2.16265" ry="2.32972" transform="matrix(0.865326 -0.50121 0.566977 0.823734 123.665 278.226)" fill="#F34529"/>
<ellipse cx="2.16265" cy="2.32972" rx="2.16265" ry="2.32972" transform="matrix(0.865326 -0.50121 0.566977 0.823734 123.665 278.226)" fill="#FFBA15"/>
<path d="M523.448 404.86C523.274 404.135 523.397 403.349 523.461 402.636C523.743 399.482 524.075 396.349 524.484 393.22C524.72 391.419 524.93 389.62 525.346 387.866C525.451 387.424 525.664 386.928 525.66 386.464" stroke="#FFBA15" stroke-width="2.04" stroke-linecap="round"/>
<path d="M525.66 386.464C526.858 386.106 528.087 385.938 529.324 385.736C531.713 385.347 534.002 384.633 536.309 383.944C537.27 383.656 538.232 383.369 539.193 383.082" stroke="#FFBA15" stroke-width="2.04" stroke-linecap="round"/>
<path d="M539.255 382.77C539.757 383.76 541.135 384.451 541.966 385.034C544.405 386.745 546.526 388.6 548.444 390.982C549.558 392.366 550.438 393.809 551.278 395.378C551.396 395.598 551.434 395.979 551.66 396.027" stroke="#FFBA15" stroke-width="1.7" stroke-linecap="round"/>
<path d="M551.661 396.027C550.143 398.784 548.583 401.29 546.549 403.65C545.116 405.313 543.552 406.84 542.027 408.404C541.236 409.217 540.405 409.487 539.351 409.802C539.071 409.886 539.179 409.958 539.037 409.604C538.645 408.628 537.906 408.161 537.123 407.581C535.467 406.353 533.816 405.208 532.039 404.208C531.465 403.885 530.454 403.472 530.055 402.886" stroke="#FFBA15" stroke-width="1.7" stroke-linecap="round"/>
<path d="M530.055 402.886C529.916 402.374 529.903 401.884 529.956 401.368C530.113 399.829 530.353 398.303 530.529 396.768C530.652 395.703 530.577 394.134 531.026 393.172" stroke="#FFBA15" stroke-width="2.04" stroke-linecap="round"/>
<path d="M531.025 393.172C532.811 392.638 534.596 392.105 536.381 391.572C536.929 391.408 537.504 391.279 537.953 390.9C538.074 390.798 538.254 390.454 538.422 390.446C538.555 390.439 538.86 391.084 538.911 391.175C539.272 391.816 539.661 392.279 540.156 392.807C541.05 393.762 541.927 394.845 542.632 395.964C542.863 396.33 543.156 396.795 543.321 397.172C543.552 397.7 543.832 397.426 543.281 397.992C542.525 398.768 541.993 399.997 541.042 400.515C540.551 400.784 539.932 400.877 539.396 401.037" stroke="#FFBA15" stroke-width="2.04" stroke-linecap="round"/>
<path d="M157.568 2078.8C149.637 2076.95 140.244 2083.71 136.538 2087.33L142.783 2092.13C144.015 2090.31 147.554 2086.51 151.855 2085.93C157.232 2085.21 155.44 2096.09 153.368 2106.17C151.296 2116.25 163.449 2132.28 185.067 2119.9C206.684 2107.52 207.602 2117.48 208.756 2120.75C210.381 2125.36 212.21 2133.81 211.445 2138.19L218.698 2138.49C222.533 2120.52 218.784 2112.6 214.748 2108.28C209.876 2103.06 194.839 2107.71 180.81 2113.98C166.781 2120.25 166.585 2104.35 167.369 2096.75C168.153 2089.16 167.48 2081.12 157.568 2078.8Z" fill="#CC4485" fill-opacity="0.8"/>
</svg>
