<svg width="1121" height="321" viewBox="0 0 1121 321" fill="none" xmlns="http://www.w3.org/2000/svg">
<rect x="31.6787" y="47.7534" width="1053.64" height="198.493" fill="#FFFBD5"/>
<path d="M31.6792 47.7536H47.3584V55.5072H31.6792V47.7536Z" fill="#FE77DD"/>
<path d="M31.6792 238.493H47.3584V246.246H31.6792V238.493Z" fill="#FE77DD"/>
<path d="M16 55.5072H31.6792V238.493H16V55.5072Z" fill="#FE77DD"/>
<path d="M1085.32 55.5072H1101V238.493H1085.32V55.5072Z" fill="#FE77DD"/>
<path d="M1069.64 47.7536H1085.32V55.5072H1069.64V47.7536Z" fill="#FE77DD"/>
<path d="M1069.64 230.739H1085.32V246.246H1069.64V230.739Z" fill="#FE77DD"/>
<path d="M47.3584 40H1069.64V47.7536H47.3584V40Z" fill="#FE77DD"/>
<path d="M47.3584 246.246H1069.64V254H47.3584V246.246Z" fill="#FE77DD"/>
<rect x="55.6191" y="53.9565" width="1011.43" height="24.2865" rx="3" fill="url(#paint0_linear_2330_1024)"/>
<rect x="921.855" y="190.128" width="30.29" height="23.8034" fill="#FFBC7B"/>
<rect x="929.566" y="186.064" width="14.8696" height="35.4147" fill="#FFBC7B"/>
<path d="M929.565 182H944.434V186.064H929.565V182Z" fill="#DF7668"/>
<path d="M933.42 194.192H940.58V198.256H933.42V194.192Z" fill="#DF7668"/>
<path d="M933.42 206.384H940.58V210.448H933.42V206.384Z" fill="#DF7668"/>
<path d="M940.58 198.256L944.435 198.256V206.384L940.58 206.384V198.256Z" fill="#DF7668"/>
<path d="M929.565 198.256L933.42 198.256V206.384L929.565 206.384V198.256Z" fill="#DF7668"/>
<path d="M929.565 217.995H944.434V222.059H929.565V217.995Z" fill="#DF7668"/>
<path d="M944.435 213.931H948.29V217.995L944.434 217.995L944.435 213.931Z" fill="#DF7668"/>
<path d="M948.29 209.867H952.145V213.931L948.29 213.931L948.29 209.867Z" fill="#DF7668"/>
<path d="M925.711 213.931H929.566L929.565 217.995L925.711 217.995V213.931Z" fill="#DF7668"/>
<path d="M921.855 209.867H925.71L925.711 213.931L921.855 213.931V209.867Z" fill="#DF7668"/>
<path d="M921.855 190.128H925.71V194.192H921.855V190.128Z" fill="#DF7668"/>
<path d="M925.711 186.064L929.565 186.064L929.566 190.128L925.71 190.128L925.711 186.064Z" fill="#DF7668"/>
<path d="M944.434 186.064L948.29 186.064V190.128H944.435L944.434 186.064Z" fill="#DF7668"/>
<path d="M948.29 190.128L952.145 190.128V194.192H948.29L948.29 190.128Z" fill="#DF7668"/>
<path d="M918 194.192L921.855 194.192V209.867L918 209.867V194.192Z" fill="#DF7668"/>
<path d="M952.145 194.192L956 194.192V209.867L952.145 209.867V194.192Z" fill="#DF7668"/>
<rect x="929.552" y="194.178" width="2.88783" height="3.04432" fill="white"/>
<rect x="920.888" y="191.133" width="2.88783" height="11.7424" fill="#FFD598"/>
<rect x="923.775" y="188.089" width="2.88783" height="3.04432" fill="#FFD598"/>
<rect x="926.664" y="185.044" width="11.1388" height="3.04432" fill="#FFD598"/>
<path d="M1008 208.988V203.988H1010.5V201.488H1013V198.988H1018V196.488H1020.5V193.988H1013V196.488H1008V193.988H1010.5V191.488H1023V193.988H1025.5V198.988H1023V201.488H1020.5V203.988H1015.5V206.488H1025.5V208.988H1008ZM1033 208.988V206.488H1030.5V203.988H1028V196.488H1030.5V193.988H1033V191.488H1040.5V193.988H1043V196.488H1045.5V203.988H1043V206.488H1040.5V208.988H1033ZM1035.5 206.488H1040.5V196.488H1038V193.988H1033V203.988H1035.5V206.488Z" fill="#DF7668"/>
<path d="M986.765 205V203H988.765V201H990.765V199H988.765V197H986.765V195H990.765V197H992.765V199H994.765V197H996.765V195H1000.76V197H998.765V199H996.765V201H998.765V203H1000.76V205H996.765V203H994.765V201H992.765V203H990.765V205H986.765Z" fill="#DF7668"/>
<defs>
<linearGradient id="paint0_linear_2330_1024" x1="55.6191" y1="66.0998" x2="1067.05" y2="66.0998" gradientUnits="userSpaceOnUse">
<stop stop-color="#FE77DD"/>
<stop offset="1" stop-color="#FFD963"/>
</linearGradient>
</defs>
</svg>
