<svg width="3123" height="611" viewBox="0 0 3123 611" fill="none" xmlns="http://www.w3.org/2000/svg">
<path d="M0 0H3123V411C3123 521.457 3033.46 611 2923 611H150C67.1573 611 0 543.843 0 461V0Z" fill="#E19DA8"/>
<path d="M2838 435H3123C3123 531.098 3045.1 609 2949 609H2838V435Z" fill="#9C6C81"/>
<path d="M1 468H190V611H144C65.0233 611 1 546.977 1 468Z" fill="#9C6C81"/>
<ellipse cx="2973" cy="436.5" rx="150" ry="95.5" fill="#E19DA8"/>
<ellipse cx="188" cy="535.5" rx="83" ry="75.5" fill="#E19DA8"/>
<ellipse cx="2837.5" cy="490.5" rx="88.5" ry="120.5" fill="#E19DA8"/>
<ellipse cx="128" cy="467.5" rx="128" ry="48.5" fill="#E19DA8"/>
<path d="M62 79.5195L73.1038 67.9997L137.981 134.701L131.041 141.9L62 79.5195Z" fill="#D9D9D9"/>
<path d="M62 79.5195L73.1038 67.9997L101.5 105.5L134 139L131.041 141.9L62 79.5195Z" fill="#828282"/>
<circle cx="85" cy="89" r="48" fill="#653B46"/>
<path d="M48.9824 85.3613L82.7214 53.4939L99.5245 71.2838C108.324 80.6006 107.906 95.2871 98.5887 104.087C89.272 112.887 74.5855 112.468 65.7855 103.151L48.9824 85.3613Z" fill="#975E5E"/>
<ellipse cx="61.5" cy="68" rx="32.5" ry="33" fill="#894A4A"/>
<circle cx="49" cy="56" r="6" fill="#EF7462"/>
<path d="M3065.15 71.5195L3054.04 59.9997L2989.17 126.701L2996.11 133.9L3065.15 71.5195Z" fill="#D9D9D9"/>
<path d="M3065.15 71.5195L3054.04 59.9997L3025.65 97.4998L2993.15 131L2996.11 133.9L3065.15 71.5195Z" fill="#828282"/>
<circle cx="48" cy="48" r="48" transform="matrix(-1 0 0 1 3090.15 33)" fill="#653B46"/>
<path d="M3078.16 77.3613L3044.43 45.4939L3027.62 63.2838C3018.82 72.6006 3019.24 87.2871 3028.56 96.0871C3037.87 104.887 3052.56 104.468 3061.36 95.1513L3078.16 77.3613Z" fill="#975E5E"/>
<ellipse cx="32.5" cy="33" rx="32.5" ry="33" transform="matrix(-1 0 0 1 3098.15 27)" fill="#894A4A"/>
<circle cx="6" cy="6" r="6" transform="matrix(-1 0 0 1 3084.15 42)" fill="#EF7462"/>
<mask id="mask0_107_2" style="mask-type:luminance" maskUnits="userSpaceOnUse" x="534" y="144" width="2155" height="332">
<path d="M2689 144H534V475.68H2689V144Z" fill="white"/>
</mask>
<g mask="url(#mask0_107_2)">
<path d="M2525.64 303.716C2526.79 305.364 2528.19 305.541 2529.46 305.953C2543.21 310.515 2552.21 319.905 2557.31 333.181C2561.16 343.248 2563.18 353.697 2563.15 364.53C2563.12 391.345 2563.15 418.161 2563.12 444.976C2563.12 453.983 2563.8 462.814 2567.21 471.292C2568.54 474.618 2568.01 475.354 2564.21 475.471C2558.94 475.677 2553.67 475.56 2548.36 475.589C2533.7 475.589 2519.03 475.589 2504.34 475.589C2496.93 475.589 2496.22 475.089 2494.32 467.818C2492.4 460.459 2491.62 452.894 2491.62 445.3C2491.54 416.925 2491.6 388.549 2491.62 360.173C2491.62 354.021 2490.53 348.193 2486.77 343.101C2482.74 337.626 2476.81 335.918 2470.47 335.035C2465.58 334.329 2460.72 334.682 2455.83 334.653C2453.17 334.653 2451.89 335.977 2451.89 338.597C2451.89 340.334 2451.83 342.1 2451.83 343.836C2451.83 384.634 2451.83 425.461 2451.83 466.258C2451.83 475.324 2451.63 475.53 2442.77 475.56C2424.78 475.56 2406.77 475.56 2388.79 475.56C2387.81 475.56 2386.83 475.589 2385.85 475.56C2381.02 475.295 2380.07 474.471 2379.99 469.555C2379.81 458.487 2379.69 447.419 2379.69 436.323C2379.69 344.602 2379.69 252.881 2379.69 161.159C2379.69 149.885 2378.65 149.974 2390.86 150.003C2423.33 150.033 2455.8 149.885 2488.28 150.091C2499.86 150.15 2511.27 151.858 2522.23 155.802C2539.98 162.219 2551.38 174.611 2557.73 192.125C2562.85 206.313 2563.5 221.002 2563.41 235.808C2563.35 246.905 2562.23 257.855 2558.7 268.54C2553.37 284.612 2543.56 296.416 2527.45 302.597C2526.91 302.803 2526.47 303.215 2525.67 303.745L2525.64 303.716ZM2465.58 207.52C2462.86 207.52 2460.1 207.461 2457.37 207.52C2452.37 207.638 2451.95 207.991 2451.86 212.819C2451.75 217.852 2451.83 222.915 2451.83 227.949C2451.83 243.078 2451.8 258.238 2451.83 273.368C2451.83 278.695 2452.28 279.078 2457.4 279.196C2461.49 279.284 2465.61 279.343 2469.7 279.137C2482.2 278.46 2489.22 272.897 2491 261.505C2492.9 249.172 2492.66 236.75 2490.88 224.416C2490.59 222.326 2489.82 220.266 2488.99 218.323C2486.03 211.435 2480.93 207.52 2473.17 207.55C2470.62 207.55 2468.1 207.55 2465.55 207.55L2465.58 207.52Z" fill="black"/>
<path d="M1295.12 312.43C1295.12 261.506 1295.12 210.583 1295.12 159.689C1295.12 159.1 1295.12 158.511 1295.12 157.952C1295.18 150.534 1295.62 150.034 1303.15 150.034C1336.21 150.034 1369.28 149.769 1402.34 150.151C1414.64 150.299 1426.84 151.947 1438.55 156.421C1456.68 163.368 1468.03 176.349 1473.72 194.452C1477.06 205.078 1478.52 215.999 1478.57 227.155C1478.63 239.606 1478.4 251.969 1475.29 264.155C1471.02 280.904 1462.1 293.856 1446.1 301.45C1445.39 301.774 1444.68 302.127 1444.06 302.569C1442.28 303.864 1442.34 305.041 1444.56 305.866C1449.36 307.632 1453.86 309.839 1457.92 313.018C1463.88 317.669 1468.41 323.409 1471.43 330.327C1476.5 341.924 1478.43 354.169 1478.52 366.68C1478.69 392.524 1478.66 418.368 1478.52 444.213C1478.46 453.044 1479.29 461.639 1482.07 470.028C1483.61 474.708 1482.99 475.562 1477.95 475.591C1457.81 475.68 1437.66 475.68 1417.51 475.591C1412.77 475.591 1411.88 474.885 1410.43 470.234C1408.68 464.671 1407.62 458.931 1407.62 453.044C1407.62 423.314 1407.62 393.584 1407.62 363.854C1407.62 358.379 1407.02 352.992 1404.77 347.9C1401.51 340.482 1395.85 336.184 1387.68 335.625C1382.4 335.272 1377.13 335.301 1371.85 335.448C1367.74 335.537 1367.23 336.214 1367.02 340.335C1366.94 342.277 1367.02 344.22 1367.02 346.163C1367.02 386.195 1367.02 426.228 1367.02 466.26C1367.02 472.48 1363.86 475.591 1357.54 475.591C1339.94 475.591 1322.32 475.591 1304.72 475.591C1303.53 475.591 1302.38 475.591 1301.19 475.591C1296.12 475.356 1295.47 474.738 1295.21 469.793C1295.12 467.85 1295.18 465.907 1295.18 463.964C1295.18 413.423 1295.18 362.912 1295.18 312.371L1295.12 312.43ZM1367 243.05C1367 253.323 1366.94 263.596 1367 273.899C1367.02 278.755 1367.47 279.138 1372.45 279.226C1376.92 279.315 1381.42 279.403 1385.9 279.109C1398.05 278.373 1403.94 273.163 1406.28 261.389C1406.31 261.212 1406.34 261.006 1406.37 260.8C1408.42 251.38 1407.59 241.873 1407.23 232.394C1407.08 228.215 1406.28 223.946 1404.8 219.884C1401.78 211.613 1397.16 207.992 1388.3 207.58C1383.44 207.345 1378.55 207.463 1373.66 207.492C1367.17 207.521 1366.99 207.669 1366.97 213.938C1366.91 223.623 1366.97 233.336 1366.97 243.021L1367 243.05Z" fill="black"/>
<path d="M2253.37 149.536C2267.06 149.536 2280.78 149.595 2294.46 149.536C2299.83 149.536 2300.57 149.889 2301.52 155.041C2303.53 166.108 2305.43 177.206 2307.35 188.303C2313.04 221.035 2318.7 253.738 2324.36 286.471C2329.31 314.994 2334.2 343.517 2339.14 372.04C2342.67 392.321 2346.37 412.573 2349.87 432.854C2351.88 444.51 2353.78 456.196 2355.62 467.912C2356.8 475.359 2356.62 475.565 2349.19 475.594C2330.2 475.624 2311.23 475.594 2292.24 475.594C2291.47 475.594 2290.67 475.594 2289.9 475.594C2285.16 475.329 2284.27 474.476 2283.74 469.678C2281.96 454.254 2280.21 438.829 2278.44 423.375C2277.99 419.608 2277.22 418.695 2273.22 418.695C2259.92 418.607 2246.61 418.607 2233.31 418.695C2228.87 418.725 2228.3 419.313 2227.8 423.699C2226.08 438.152 2224.45 452.635 2222.76 467.087C2222.62 468.235 2222.47 469.413 2222.17 470.531C2221.13 474.623 2220.39 475.271 2216.22 475.535C2214.65 475.624 2213.08 475.594 2211.54 475.594C2193.94 475.594 2176.31 475.594 2158.71 475.594C2157.52 475.594 2156.37 475.624 2155.18 475.594C2150.12 475.329 2149.35 474.388 2150.18 469.501C2152.01 458.787 2153.91 448.102 2155.75 437.387C2161.14 405.802 2166.44 374.189 2171.89 342.634C2176.63 315.052 2181.49 287.53 2186.26 259.949C2191.3 230.867 2196.28 201.755 2201.31 172.672C2202.38 166.55 2203.54 160.457 2204.75 154.364C2205.64 149.978 2205.96 149.742 2210.59 149.713C2224.87 149.713 2239.15 149.713 2253.43 149.713C2253.43 149.683 2253.43 149.624 2253.43 149.595L2253.37 149.536ZM2253.43 217.797C2253.1 217.827 2252.78 217.856 2252.48 217.915C2250.14 237.343 2247.77 256.77 2245.43 276.198C2242.41 301.424 2239.39 326.621 2236.36 351.847C2235.77 356.733 2236.24 357.557 2240.93 357.616C2249.13 357.734 2257.34 357.763 2265.55 357.616C2269.78 357.557 2270.08 357.204 2269.58 352.73C2268.51 343.105 2267.24 333.479 2266.14 323.854C2264.27 307.664 2262.5 291.504 2260.6 275.314C2258.85 260.302 2257.04 245.29 2255.21 230.278C2254.7 226.098 2254.02 221.948 2253.43 217.768V217.797Z" fill="black"/>
<path d="M534.12 310.957C534.12 278.519 533.824 246.051 534.239 213.613C534.446 195.805 539.868 179.498 552.756 166.487C562.919 156.243 575.629 150.503 589.703 147.442C611.272 142.791 632.812 142.762 654.233 147.913C677.935 153.624 695.623 166.752 704.097 190.271C706.882 198.013 708.008 206.137 708.097 214.29C708.304 234.483 708.156 254.705 708.156 274.928C708.156 276.105 708.156 277.253 708.067 278.43C707.919 281.403 706.467 283.14 703.326 283.14C702.141 283.14 700.986 283.17 699.801 283.17C681.994 283.17 664.188 283.17 646.381 283.17C645.196 283.17 644.041 283.081 642.855 283.14C639.685 283.228 638.204 281.551 637.967 278.578C637.819 276.841 637.641 275.104 637.641 273.338C637.641 257.59 637.582 241.871 637.641 226.123C637.641 223.209 638.115 220.325 638.204 217.411C638.559 208.138 632.041 200.985 622.649 200.308C614.205 199.69 607.094 206.048 606.235 215.085C606.028 217.204 606.087 219.353 606.087 221.502C606.087 279.402 606.087 337.331 606.087 395.231C606.087 398.94 606.235 402.619 606.887 406.269C608.309 414.246 615.509 419.81 623.301 418.926C631.686 417.984 638.322 411.244 637.967 403.443C637.167 385.576 637.819 367.709 637.611 349.841C637.582 346.544 637.878 343.248 638.056 339.951C638.204 337.655 639.448 336.419 641.818 336.389C643.004 336.389 644.159 336.33 645.344 336.33C663.743 336.33 682.113 336.33 700.512 336.33C707.474 336.33 708.037 336.801 708.067 343.454C708.126 358.024 708.393 372.624 707.978 387.165C707.593 401.177 702.556 413.039 691.001 422.105C671.061 437.765 651.388 453.777 631.834 469.878C627.034 473.823 622.086 475.706 615.805 475.5C606.028 475.177 596.221 475.706 586.651 473.175C562.356 466.788 545.498 452.217 537.676 428.258C535.305 420.722 533.943 412.922 534.002 404.827C534.269 373.537 534.091 342.247 534.091 310.957H534.12Z" fill="black"/>
<path d="M1510.9 312.635C1510.9 261.741 1510.9 210.818 1510.9 159.924C1510.9 150.004 1510.93 150.004 1521.12 149.974C1554.57 149.974 1588.02 149.768 1621.44 150.063C1633.95 150.18 1646.39 151.711 1658.12 156.686C1671.69 162.426 1681.62 171.845 1687.6 185.238C1693.32 197.984 1695.93 211.465 1696.76 225.33C1697.23 233.454 1697.97 241.578 1697.82 249.761C1697.56 265.126 1696.76 280.403 1693.38 295.445C1690.51 308.22 1685.26 319.847 1676.02 329.267C1668.79 336.625 1659.72 341.276 1649.68 343.808C1639.99 346.251 1630.09 347.399 1620.08 347.428C1609.92 347.458 1599.73 347.428 1589.56 347.428C1583.19 347.428 1583.07 347.575 1583.05 354.051C1583.05 391.346 1583.05 428.641 1583.05 465.966C1583.05 472.383 1579.81 475.6 1573.33 475.621C1555.14 475.621 1536.94 475.621 1518.75 475.621C1511.26 475.621 1510.87 475.238 1510.87 467.644C1510.87 415.954 1510.87 364.295 1510.87 312.606L1510.9 312.635ZM1582.81 247.524C1582.81 258.032 1582.81 268.512 1582.81 279.02C1582.81 280.58 1582.84 282.14 1582.9 283.671C1582.96 286.261 1584.29 287.645 1586.9 287.674C1593.15 287.733 1599.31 288.793 1605.62 288.439C1615.43 287.91 1620.32 283.818 1622.12 273.545C1624.76 258.533 1623.99 243.344 1622.84 228.244C1622.63 225.565 1621.98 222.857 1621.21 220.267C1618.63 211.583 1613.65 207.786 1604.53 207.55C1599.64 207.403 1594.75 207.492 1589.86 207.521C1583.02 207.55 1582.84 207.698 1582.81 214.291C1582.78 225.359 1582.81 236.456 1582.81 247.524Z" fill="black"/>
<path d="M1102.4 312.781C1102.4 261.857 1102.4 210.963 1102.4 160.039C1102.4 153.348 1105.76 150.002 1112.5 150.002C1158.48 150.002 1204.44 150.002 1250.42 150.002C1260.91 150.002 1261.03 150.12 1261.05 160.246C1261.05 175.022 1261.05 189.77 1261.05 204.546C1261.05 205.9 1261.11 207.284 1261 208.638C1260.7 212.612 1260.11 213.377 1256.02 213.524C1249.2 213.789 1242.36 213.789 1235.52 213.789C1219.31 213.789 1203.07 213.73 1186.87 213.73C1184.91 213.73 1182.96 213.907 1181.03 214.083C1176.17 214.525 1175.81 214.819 1175.79 219.764C1175.73 236.66 1175.79 253.586 1175.79 270.482C1175.79 270.688 1175.79 270.865 1175.79 271.071C1176.02 275.192 1176.41 275.663 1180.67 275.81C1183.99 275.927 1187.31 275.839 1190.66 275.839C1208.08 275.839 1225.47 275.81 1242.89 275.839C1249.11 275.839 1249.68 276.428 1249.71 282.462C1249.77 299.564 1249.77 316.666 1249.71 333.768C1249.71 340.215 1249.29 340.538 1242.57 340.568C1223.19 340.597 1203.84 340.568 1184.47 340.568C1182.72 340.568 1180.94 340.597 1179.19 340.627C1177.12 340.686 1175.9 341.686 1175.84 343.835C1175.84 344.807 1175.79 345.778 1175.79 346.749C1175.79 366 1175.79 385.222 1175.79 404.473C1175.79 411.007 1175.99 411.184 1182.87 411.213C1192.47 411.243 1202.04 411.066 1211.64 411.272C1227.07 411.596 1242.51 412.185 1257.94 412.037C1263.19 411.979 1263.78 412.626 1263.81 417.66C1263.84 434.968 1263.81 452.246 1263.75 469.554C1263.75 474.676 1263.04 475.265 1258.06 475.53C1256.88 475.589 1255.72 475.559 1254.54 475.559C1207.19 475.559 1159.85 475.559 1112.5 475.559C1105.8 475.559 1102.46 472.203 1102.46 465.492C1102.46 414.569 1102.46 363.675 1102.46 312.751L1102.4 312.781Z" fill="black"/>
<path d="M1037.06 345.102C1037.06 385.311 1037.06 425.55 1037.06 465.757C1037.06 474.529 1037.03 474.176 1028.32 474.676C1020.11 475.147 1013.51 473.264 1007.14 467.494C993.566 455.22 979.255 443.74 965.034 432.173C961.301 429.141 960.056 425.815 960.056 421.164C960.175 355.699 960.145 290.205 960.145 224.74C960.145 218.421 957.073 215.272 950.931 215.291C940.769 215.291 930.576 215.35 920.414 215.291C914.162 215.262 913.244 214.379 913.214 208.197C913.155 191.095 913.155 173.993 913.214 156.891C913.214 150.562 913.777 150.033 920.384 150.033C951.494 150.003 982.574 150.033 1013.68 150.033C1033.83 150.033 1053.98 150.033 1074.12 150.033C1075.49 150.033 1076.85 150.033 1078.24 150.033C1083.99 150.18 1084.29 150.474 1084.26 155.979C1084.23 172.286 1084.2 188.623 1084.17 204.93C1084.17 206.667 1084.26 208.433 1084.17 210.17C1084.05 214.026 1083.31 214.82 1079.34 215.203C1077.8 215.35 1076.2 215.291 1074.66 215.291C1065.27 215.291 1055.87 215.291 1046.48 215.291C1040.2 215.291 1037.05 218.343 1037.03 224.446C1037.03 264.655 1037.03 304.893 1037.03 345.102H1037.06Z" fill="black"/>
<path d="M1830.21 312.135C1830.21 261.034 1830.21 209.905 1830.21 158.805C1830.21 157.833 1830.21 156.862 1830.21 155.891C1830.38 150.798 1830.89 150.121 1836.01 150.062C1847.57 149.945 1859.09 150.004 1870.65 150.004C1879.27 150.004 1887.86 149.945 1896.49 150.033C1902.71 150.092 1903.42 150.916 1903.57 157.215C1903.63 159.747 1903.57 162.278 1903.57 164.78C1903.57 244.256 1903.57 323.762 1903.57 403.238C1903.57 412.569 1902.97 412.422 1912.96 412.392C1931.54 412.392 1950.14 412.392 1968.72 412.392C1970.47 412.392 1972.24 412.422 1973.99 412.51C1976.84 412.628 1978.23 414.217 1978.44 416.925C1978.55 418.485 1978.55 420.045 1978.58 421.576C1978.58 436.529 1978.58 451.513 1978.58 466.466C1978.58 468.026 1978.58 469.586 1978.44 471.117C1978.23 473.884 1976.69 475.326 1973.9 475.444C1972.33 475.503 1970.76 475.532 1969.22 475.532C1925.99 475.532 1882.74 475.532 1839.51 475.532C1830.24 475.532 1830.24 475.532 1830.24 466.025C1830.24 414.718 1830.24 363.411 1830.24 312.105L1830.21 312.135Z" fill="black"/>
<path d="M1993.58 313.34C1993.58 263.388 1993.58 213.465 1993.58 163.513C1993.58 160.599 1993.67 157.685 1993.73 154.771C1993.82 152.004 1995.3 150.473 1998.05 150.208C1999.59 150.061 2001.16 150.002 2002.73 150.002C2021.31 150.002 2039.92 150.002 2058.49 150.002C2059.26 150.002 2060.06 150.002 2060.83 150.031C2065.81 150.326 2066.61 151.091 2066.82 155.919C2066.91 158.45 2066.85 160.981 2066.85 163.483C2066.85 243.342 2066.85 323.23 2066.85 403.089C2066.85 409.31 2069.91 412.42 2076.03 412.42C2094.22 412.42 2112.42 412.42 2130.61 412.42C2132.36 412.42 2134.13 412.361 2135.88 412.508C2140.68 412.891 2141.72 413.804 2141.78 418.602C2141.9 435.498 2141.96 452.423 2141.9 469.319C2141.9 474.529 2140.92 475.294 2135.67 475.559C2134.7 475.618 2133.72 475.559 2132.74 475.559C2089.51 475.559 2046.29 475.559 2003.03 475.559C1993.7 475.559 1993.58 475.441 1993.58 466.081C1993.58 415.158 1993.58 364.264 1993.58 313.34Z" fill="black"/>
<path d="M824.895 150.772C838.791 150.772 852.657 150.684 866.552 150.801C873.337 150.86 873.515 151.125 875.085 157.777C886.374 205.404 897.662 253.031 908.98 300.658C916.742 333.331 924.594 366.005 932.386 398.678C932.475 399.061 932.593 399.444 932.623 399.826C932.742 401.092 933.838 402.593 932.119 403.447C930.875 404.065 929.897 402.946 929.068 402.24C920.357 395.028 911.676 387.787 902.995 380.546C878.581 360.206 854.168 339.866 829.754 319.526C826.169 316.553 825.813 316.465 822.228 319.291C809.074 329.681 795.978 340.16 782.853 350.61C772.335 358.999 761.787 367.359 751.299 375.748C743.684 381.841 736.1 387.964 728.515 394.057C727.596 394.793 726.737 395.617 725.7 396.147C724.367 396.824 723.448 396.235 723.182 394.793C722.885 392.997 723.597 391.349 723.982 389.642C731.596 355.732 739.24 321.822 746.855 287.883C752.425 263.069 758.172 238.284 763.506 213.411C767.416 195.19 771.653 177.028 775.831 158.867C776.038 157.925 776.216 156.953 776.483 156.041C777.816 151.154 778.112 150.801 783.327 150.742C797.222 150.654 811.088 150.742 824.984 150.742C824.984 150.742 824.984 150.742 824.984 150.772H824.895ZM826.228 213.852C825.843 213.911 825.458 213.97 825.073 214.058C824.895 214.794 824.658 215.53 824.51 216.266C820.658 235.664 816.836 255.092 813.014 274.49C811.651 281.348 810.407 288.207 808.985 295.036C808.422 297.773 809.192 299.157 812.155 299.039C814.11 298.951 816.066 299.039 818.021 299.039C824.865 299.039 831.71 299.127 838.524 298.98C842.198 298.921 842.554 298.332 842.08 294.8C841.991 294.035 841.813 293.269 841.665 292.504C838.406 275.549 835.206 258.594 831.888 241.669C830.08 232.397 828.095 223.125 826.199 213.882L826.228 213.852Z" fill="black"/>
<path d="M983.639 475.565C977.832 474.094 971.966 475.448 966.129 475.418C869.719 475.33 773.308 475.359 676.898 475.359C671.624 475.359 666.35 475.507 661.076 475.654C659.299 475.683 657.314 475.948 656.544 473.917C655.773 471.974 657.017 470.414 658.528 469.472C664.661 465.646 669.165 459.729 675.535 456.315C680.839 453.489 684.424 448.779 689.075 445.217C697.104 439.065 705.193 432.971 713.044 426.613C725.014 416.929 736.717 406.98 748.687 397.295C761.249 387.111 773.989 377.161 786.581 367.036C797.899 357.911 809.75 349.433 820.742 339.896C824.564 336.57 826.846 336.629 830.521 339.631C840.624 347.844 850.372 356.468 860.682 364.445C867.734 369.891 874.163 376.102 880.978 381.842C891.081 390.378 901.125 399.003 911.88 406.715C915.405 409.246 917.835 412.808 921.272 415.428C935.345 426.201 948.53 438.005 962.07 449.397C965.655 452.4 969.358 455.255 973.121 458.022C977.832 461.466 981.032 466.588 986.335 469.413C987.817 470.208 989.505 471.621 988.794 473.623C987.965 475.919 985.594 475.33 983.669 475.565H983.639Z" fill="#F3C217"/>
<path d="M1793.25 312.723C1793.25 363.823 1793.25 414.923 1793.25 466.054C1793.25 475.444 1793.14 475.562 1783.86 475.562C1765.46 475.562 1747.09 475.562 1728.69 475.562C1720.46 475.562 1720.07 475.179 1720.07 466.996C1720.07 364 1720.07 261.005 1720.07 158.01C1720.07 156.832 1720.13 155.684 1720.16 154.507C1720.25 151.71 1721.7 150.209 1724.52 150.062C1725.88 150.003 1727.24 149.944 1728.63 149.944C1747.21 149.944 1765.82 149.944 1784.39 149.944C1785.37 149.944 1786.35 149.944 1787.33 149.974C1792.34 150.268 1793.08 151.004 1793.28 155.861C1793.34 157.598 1793.28 159.364 1793.28 161.1C1793.28 211.612 1793.28 262.153 1793.28 312.664L1793.25 312.723Z" fill="black"/>
<path d="M2688.96 194.747C2688.96 196.101 2688.93 197.455 2688.96 198.839C2689.56 216.912 2679.75 229.246 2665.02 237.223C2645.14 247.967 2625.41 245.965 2607.55 231.66C2598.36 224.301 2593.06 214.469 2591.16 202.93C2587.31 179.529 2598.83 160.219 2618.18 150.977C2634.54 143.176 2651.19 144.236 2667.04 153.39C2677.53 159.425 2683.81 168.844 2688.25 179.706C2688.93 181.384 2688.96 183.12 2688.96 184.857C2688.96 188.154 2688.96 191.451 2688.96 194.777V194.747ZM2679.13 195.601C2678.83 171.14 2662.21 155.215 2640.94 155.304C2616.61 155.392 2601.41 171.552 2601.59 194.895C2601.77 218.943 2617.32 234.044 2639.96 234.427C2663.01 234.809 2678.39 217.53 2679.13 195.601Z" fill="black"/>
<path d="M2620.56 194.273C2620.56 187.297 2620.5 180.321 2620.56 173.315C2620.62 167.251 2621.33 166.486 2627.17 166.398C2633.42 166.309 2639.67 166.398 2645.92 166.398C2648.29 166.398 2650.57 166.751 2652.8 167.605C2658.69 169.9 2662.75 173.55 2663.2 180.291C2663.67 187.444 2661.8 193.361 2654.99 196.893C2654.81 196.981 2654.63 197.069 2654.49 197.158C2650.16 199.571 2650.19 199.542 2653 203.957C2656.06 208.696 2659.11 213.436 2662.01 218.263C2664.14 221.795 2663.67 222.355 2659.52 222.796C2655.97 223.149 2653.57 221.913 2651.76 218.911C2648.97 214.23 2646.01 209.668 2643.11 205.076C2642.28 203.751 2641.45 202.427 2640.53 201.19C2638.72 198.777 2636.15 198.777 2633.63 199.454C2631.17 200.101 2631.41 202.368 2631.38 204.252C2631.29 208.696 2631.46 213.171 2631.26 217.615C2631.05 221.825 2629.95 222.708 2625.87 222.678C2621.75 222.678 2620.74 221.884 2620.65 217.498C2620.5 209.756 2620.62 201.985 2620.62 194.214H2620.56V194.273ZM2639.97 190.652C2642.52 190.623 2645.03 190.652 2647.49 189.858C2651.2 188.621 2653.12 186.178 2653.09 182.646C2653.09 179.29 2651.4 177.083 2647.85 175.787C2643.49 174.227 2638.99 174.787 2634.52 174.934C2632.68 174.993 2631.67 176.082 2631.49 177.877C2631.38 179.231 2631.35 180.585 2631.35 181.94C2631.29 187.807 2634.16 190.721 2639.97 190.682V190.652Z" fill="black"/>
</g>
</svg>
