<svg width="1220" height="1330" viewBox="0 0 1220 1330" fill="none" xmlns="http://www.w3.org/2000/svg">
<path d="M0 0H1220V1130C1220 1240.46 1130.46 1330 1020 1330H150C67.1573 1330 0 1262.84 0 1180V0Z" fill="#63C8C5"/>
<path d="M1013 1061H1220V1130C1220 1240.46 1130.46 1330 1020 1330H1013V1061Z" fill="#6C839C"/>
<path d="M0 1137H198V1330H150C67.1573 1330 0 1262.84 0 1180V1137Z" fill="#6C839C"/>
<ellipse cx="1088.5" cy="1061.5" rx="131.5" ry="105.5" fill="#63C8C5"/>
<ellipse cx="137" cy="1137" rx="137" ry="71" fill="#63C8C5"/>
<ellipse cx="1013" cy="1224.5" rx="92" ry="105.5" fill="#63C8C5"/>
<ellipse cx="197.5" cy="1224.5" rx="63.5" ry="105.5" fill="#63C8C5"/>
<path d="M73 74.5195L84.1038 62.9997L148.981 129.701L142.041 136.9L73 74.5195Z" fill="#D9D9D9"/>
<path d="M73 74.5195L84.1038 62.9997L112.5 100.5L145 134L142.041 136.9L73 74.5195Z" fill="#828282"/>
<circle cx="96" cy="84" r="48" fill="#433B65"/>
<path d="M59.9824 80.3613L93.7214 48.4939L110.525 66.2838C119.324 75.6006 118.906 90.2871 109.589 99.0871C100.272 107.887 85.5855 107.468 76.7855 98.1513L59.9824 80.3613Z" fill="#5E6997"/>
<ellipse cx="72.5" cy="63" rx="32.5" ry="33" fill="#4B4A89"/>
<circle cx="60" cy="51" r="6" fill="#62A1EF"/>
<path d="M1149.15 74.5195L1138.04 62.9997L1073.17 129.701L1080.11 136.9L1149.15 74.5195Z" fill="#D9D9D9"/>
<path d="M1149.15 74.5195L1138.04 62.9997L1109.65 100.5L1077.15 134L1080.11 136.9L1149.15 74.5195Z" fill="#828282"/>
<circle cx="48" cy="48" r="48" transform="matrix(-1 0 0 1 1174.15 36)" fill="#433B65"/>
<path d="M1162.17 80.3613L1128.43 48.4939L1111.62 66.2838C1102.82 75.6006 1103.24 90.2871 1112.56 99.0871C1121.88 107.887 1136.56 107.468 1145.36 98.1513L1162.17 80.3613Z" fill="#5E6997"/>
<ellipse cx="32.5" cy="33" rx="32.5" ry="33" transform="matrix(-1 0 0 1 1182.15 30)" fill="#4B4A89"/>
<circle cx="6" cy="6" r="6" transform="matrix(-1 0 0 1 1168.15 45)" fill="#62A1EF"/>
<g clip-path="url(#clip0_107_2)">
<path d="M579.198 672.929C591.337 672.929 601.115 682.339 601.115 693.921C601.115 705.503 591.337 714.913 579.198 714.913C566.975 714.913 557.198 705.503 557.198 693.921C557.198 682.339 566.975 672.929 579.198 672.929ZM1077.21 744.431C1042.57 777.327 934.67 867.651 906.095 943.738L870.775 935.051C882.323 903.523 917.137 854.54 955.913 816.738C947.651 819.714 939.053 820.84 932.141 820.84C921.688 820.84 913.512 817.784 908.623 812.154C905.083 808.052 903.312 802.743 903.312 796.389C903.312 795.022 903.396 793.655 903.65 792.046C869.51 811.912 842.114 820.84 815.308 820.84C794.403 820.84 776.785 812.154 768.693 796.872C734.891 812.958 702.437 820.84 675.294 820.84C650.091 820.84 629.691 811.269 620.418 793.896C586.195 812.234 557.114 820.84 534.016 820.84C520.614 820.84 510.076 817.301 503.248 810.625C498.275 805.719 495.662 799.124 495.324 791.483C473.408 805.237 441.376 820.84 408.501 820.84C374.951 820.84 352.36 809.821 334.911 798.883C307.009 813.601 276.326 820.84 243.957 820.84C219.427 820.84 179.809 811.108 179.809 777.569C179.809 750.463 209.481 732.125 249.099 732.125C282.732 732.125 315.187 745.638 335.586 759.713C354.89 745.075 375.204 724.484 399.144 695.449C393.833 695.771 388.691 695.932 383.634 695.932C337.778 695.932 299.592 682.982 278.687 660.462C267.391 648.236 262.08 633.92 262.08 618.558C262.08 557.752 342.583 510.62 412.969 503.623C417.604 513.676 421.819 521.478 426.118 530.647C356.491 538.368 298.58 577.699 298.58 616.064C298.58 641.319 328.336 666.655 391.388 666.655C402.178 666.655 413.053 665.69 423.758 664.242C479.476 590.89 564.784 477 638.29 477C659.953 477 671.332 489.628 671.332 506.438C671.332 541.183 640.06 578.503 619.744 597.967C587.712 628.611 529.801 674.296 448.962 689.417C417.52 731.16 391.726 758.828 365.847 778.855C381.526 786.898 396.194 791.805 413.728 791.805C457.223 791.805 499.455 753.841 532.415 721.589L533.594 720.543L559.304 739.686L558.125 741.053C543.541 756.978 530.054 773.869 530.054 783.279C530.054 790.437 536.46 791.885 541.855 791.885C558.546 791.885 584.256 781.59 614.433 763.815V763.574C617.805 692.393 719.717 583.329 781.591 583.329C799.039 583.329 809.071 591.613 809.071 606.171C809.071 641.963 744.501 718.533 650.596 777.086V777.166C655.401 787.14 666.612 791.966 685.578 791.966C700.415 791.966 729.412 785.692 763.889 768.48C767.851 731.562 789.767 691.91 817.585 663.679C845.487 635.367 876.759 616.949 903.818 616.949C920.508 616.949 930.37 625.716 930.37 639.469C930.37 670.596 892.438 723.921 801.062 779.66C805.109 787.14 812.948 791.885 825.171 791.885C852.399 791.885 900.278 764.217 937.62 730.114L964.427 749.981C952.962 763.252 941.414 777.81 941.751 786.175C941.835 788.909 943.774 790.759 948.326 790.759C975.806 790.759 1019.13 756.094 1051.59 725.45L1077.21 744.431ZM477.033 651.454C517.326 639.067 555.595 613.33 584.172 586.385C610.472 561.452 631.629 531.854 631.629 517.215C631.629 513.837 629.101 511.826 625.898 511.826C613.759 511.826 590.578 527.349 559.389 557.109C535.112 580.273 506.873 611.962 477.033 651.454ZM304.734 778.614C289.897 768.721 266.97 760.196 246.401 760.196C226.508 760.196 213.779 767.595 213.779 777.086C213.779 787.864 229.289 792.529 246.57 792.529C267.475 792.529 286.526 787.14 304.734 778.614ZM650.091 742.983C706.315 702.446 765.406 643.411 771.728 619.201C771.896 618.397 772.149 617.592 772.065 616.868C771.981 615.26 771.054 613.812 768.946 613.812C751.16 613.812 668.72 686.36 650.091 742.983ZM799.208 749.418C804.434 745.879 810.082 741.777 815.308 737.836C855.686 707.031 886.538 673.25 892.691 654.51C892.859 653.947 893.366 652.177 893.366 650.81C893.366 648.88 892.438 647.513 890.583 647.513C872.039 647.513 812.527 704.055 798.112 749.82V749.981L799.208 749.418Z" fill="#D52B1E"/>
<rect x="850.809" y="950.774" width="226.404" height="91.4712" fill="#63C8C5"/>
</g>
<defs>
<clipPath id="clip0_107_2">
<rect width="1037" height="550" fill="white" transform="translate(154 477)"/>
</clipPath>
</defs>
</svg>
