<svg width="1612" height="1751" viewBox="0 0 1612 1751" fill="none" xmlns="http://www.w3.org/2000/svg">
<path d="M0 0H1612V1551C1612 1661.46 1522.46 1751 1412 1751H150C67.1573 1751 0 1683.84 0 1601V0Z" fill="#F6BC45"/>
<path d="M1339 1461H1612V1551C1612 1661.46 1522.46 1751 1412 1751H1339V1461Z" fill="#CE946F"/>
<path d="M0 1509H261V1751H150C67.1573 1751 0 1683.84 0 1601V1509Z" fill="#CE946F"/>
<ellipse cx="1352.5" cy="1460.5" rx="259.5" ry="158.5" fill="#F6BC45"/>
<ellipse cx="181" cy="1509" rx="181" ry="107" fill="#F6BC45"/>
<ellipse cx="1337.5" cy="1646.5" rx="121.5" ry="104.5" fill="#F6BC45"/>
<ellipse cx="261" cy="1638" rx="124" ry="113" fill="#F6BC45"/>
<path d="M73 86.5195L84.1038 74.9997L148.981 141.701L142.041 148.9L73 86.5195Z" fill="#D9D9D9"/>
<path d="M73 86.5195L84.1038 74.9997L112.5 112.5L145 146L142.041 148.9L73 86.5195Z" fill="#828282"/>
<circle cx="96" cy="96" r="48" fill="#653B46"/>
<path d="M59.9824 92.3613L93.7214 60.4939L110.525 78.2838C119.324 87.6006 118.906 102.287 109.589 111.087C100.272 119.887 85.5855 119.468 76.7855 110.151L59.9824 92.3613Z" fill="#975E5E"/>
<ellipse cx="72.5" cy="75" rx="32.5" ry="33" fill="#894A4A"/>
<circle cx="60" cy="63" r="6" fill="#EF7462"/>
<path d="M1543.15 92.5195L1532.04 80.9997L1467.17 147.701L1474.11 154.9L1543.15 92.5195Z" fill="#D9D9D9"/>
<path d="M1543.15 92.5195L1532.04 80.9997L1503.65 118.5L1471.15 152L1474.11 154.9L1543.15 92.5195Z" fill="#828282"/>
<circle cx="48" cy="48" r="48" transform="matrix(-1 0 0 1 1568.15 54)" fill="#653B46"/>
<path d="M1556.17 98.3613L1522.43 66.4939L1505.62 84.2838C1496.82 93.6006 1497.24 108.287 1506.56 117.087C1515.88 125.887 1530.56 125.468 1539.36 116.151L1556.17 98.3613Z" fill="#975E5E"/>
<ellipse cx="32.5" cy="33" rx="32.5" ry="33" transform="matrix(-1 0 0 1 1576.15 48)" fill="#894A4A"/>
<circle cx="6" cy="6" r="6" transform="matrix(-1 0 0 1 1562.15 63)" fill="#EF7462"/>
<path d="M481.408 1081.51C473.868 1081.59 464.969 1082.63 458.092 1084.04C428.471 1089.94 391.422 1116.29 397.973 1150.61C403.367 1179.33 442.135 1194.89 485.903 1186.28C527.02 1178.43 553.775 1146.88 548.269 1119.15C542.538 1091.86 510.524 1081.51 481.408 1081.51ZM768.235 1081.51C760.526 1081.59 751.57 1082.63 744.637 1084.04C715.184 1089.94 677.799 1116.29 684.237 1150.61C689.856 1179.33 728.905 1194.89 772.729 1186.28C813.733 1178.43 840.309 1146.88 834.533 1119.15C829.083 1091.86 797.192 1081.51 768.235 1081.51ZM1079.78 1081.51C1071.96 1081.59 1063.41 1082.63 1056.18 1084.04C1026.96 1089.94 989.571 1116.29 996.066 1150.61C1001.52 1179.33 1040.41 1194.89 1084 1186.28C1125.11 1178.43 1151.97 1146.88 1146.08 1119.15C1140.69 1091.86 1108.62 1081.51 1079.78 1081.51ZM362.577 1251.39C335.304 1251.38 315.819 1262.56 310.605 1282.01C309.863 1284.66 309.482 1287.13 309.482 1289.31C309.562 1304.9 326.517 1308.03 342.912 1310.09C359.486 1312.13 375.454 1313.37 375.218 1323.01C375.218 1323.96 375.235 1324.97 374.938 1326.1C372.151 1336.62 358.689 1344.65 338.136 1344.64C321.528 1344.6 311.752 1338.79 311.729 1328.63C311.729 1327.29 311.921 1325.93 312.291 1324.42L312.572 1323.58H296.278L295.997 1324.14C295.514 1326.71 295.436 1329.15 295.436 1331.44C295.481 1348.81 309.459 1356.98 334.484 1357C364.06 1357 385.242 1345.12 390.669 1324.98C391.299 1322.55 391.793 1320.14 391.793 1317.96C391.81 1308.88 385.781 1302.18 373.252 1299.98L337.855 1293.52C328.405 1291.81 325.798 1288.25 325.776 1284.25C325.776 1283.33 325.814 1282.4 326.056 1281.44C328.888 1270.78 342.631 1263.74 356.677 1263.75C371.533 1263.76 383.343 1266.95 383.365 1277.79C383.365 1278.73 383.253 1279.83 383.084 1280.88V1281.44H399.098L399.378 1281.16C399.862 1278.84 399.94 1276.7 399.94 1274.7C399.895 1256.54 381.196 1251.41 362.577 1251.39ZM488.432 1251.39C446.405 1251.39 424.313 1280.38 417.919 1304.19C416.571 1309.17 415.672 1314.22 415.672 1319.36C415.672 1329.05 418.503 1338.5 425.504 1345.48C432.505 1352.49 443.731 1357 460.339 1357C502.366 1357 524.458 1328.32 530.852 1304.48C532.178 1299.48 532.818 1294.16 532.818 1289.03C532.818 1279.33 530.256 1269.91 523.267 1262.91C516.266 1255.9 505.04 1251.39 488.432 1251.39ZM1015.17 1251.39C973.131 1251.39 951.028 1280.37 944.656 1304.19C943.308 1309.18 942.69 1314.24 942.69 1319.36C942.69 1329.05 945.229 1338.5 952.241 1345.48C959.231 1352.48 970.457 1357.01 987.076 1357C1029.09 1357.01 1051.2 1328.31 1057.59 1304.48C1058.91 1299.49 1059.84 1294.16 1059.84 1289.03C1059.84 1279.33 1056.99 1269.91 1050 1262.91C1043 1255.9 1031.78 1251.39 1015.17 1251.39ZM1271.37 1251.39C1244.11 1251.38 1224.63 1262.56 1219.4 1282.01C1218.67 1284.66 1218.28 1287.13 1218.28 1289.31C1218.36 1304.88 1235.33 1308.01 1251.71 1310.09C1268.3 1312.13 1284.53 1313.37 1284.3 1323.01C1284.3 1323.96 1284.05 1324.97 1283.73 1326.1C1280.96 1336.62 1267.76 1344.64 1247.21 1344.64C1230.59 1344.6 1220.55 1338.77 1220.53 1328.63C1220.53 1327.28 1220.73 1325.93 1221.09 1324.42L1221.37 1323.58H1205.08V1324.14C1204.58 1326.71 1204.23 1329.15 1204.23 1331.44C1204.28 1348.81 1218.28 1356.98 1243.28 1357C1272.88 1357 1294.06 1345.12 1299.47 1324.98C1300.11 1322.54 1300.59 1320.13 1300.59 1317.96C1300.63 1308.87 1294.59 1302.18 1282.05 1299.98L1246.65 1293.52C1237.2 1291.81 1234.58 1288.25 1234.57 1284.25C1234.57 1283.33 1234.89 1282.4 1235.13 1281.44C1237.98 1270.8 1251.43 1263.74 1265.47 1263.75C1280.33 1263.76 1292.13 1266.95 1292.16 1277.79C1292.16 1278.73 1292.05 1279.82 1291.88 1280.88V1281.44H1308.18V1281.16C1308.66 1278.84 1309.02 1276.7 1309.02 1274.7C1308.97 1256.54 1289.99 1251.41 1271.37 1251.39ZM569.339 1253.92L569.058 1254.48L542.37 1354.47H632.547L635.637 1342.11H560.911L584.79 1253.92H569.339ZM1095.79 1253.92L1068.83 1354.47H1084.28L1106.75 1270.49L1144.68 1354.47H1164.9L1191.87 1253.92H1176.42V1254.48L1153.95 1338.18L1116.02 1253.92H1095.79ZM671.315 1254.2L655.302 1313.74C653.987 1318.67 653.336 1323.11 653.336 1327.23C653.373 1346.99 668.225 1356.95 690.699 1357C717.87 1357 741.187 1342.57 748.851 1314.03L765.144 1254.2H749.693L749.413 1254.48L733.4 1314.59C728.332 1333.34 714.106 1344.62 693.789 1344.64C677.327 1344.57 669.113 1337.35 669.068 1324.7C669.068 1321.68 669.506 1318.47 670.472 1314.87L686.766 1254.2L671.315 1254.2ZM789.304 1254.2L785.652 1267.4H827.791L804.474 1354.47H819.925L843.242 1267.4H885.381L889.033 1254.2H789.304ZM914.035 1254.2V1254.48L887.067 1354.47H902.518L929.486 1254.2L914.035 1254.2ZM340.383 1085.17L303.863 1127.86L291.221 1085.73H241.216L212 1184.6H243.464L259.477 1130.11L273.804 1184.6H294.031L340.383 1133.48L325.494 1184.6H365.667L393.478 1085.17H340.383ZM565.406 1085.17L557.259 1117.75H598.836L582.823 1184.6H621.591L639.008 1117.47H681.428L688.732 1085.73L565.406 1085.17ZM1331.21 1085.17L1264.07 1184.6H1297.5L1309.02 1167.46L1309.3 1166.9H1356.78V1167.46L1360.99 1184.6H1400.04L1377.56 1085.17H1331.21ZM864.873 1085.73L836.5 1184.6H873.301L881.729 1154.82L911.226 1155.38C921.901 1154.31 922.463 1161.84 922.463 1161.84C922.463 1161.84 922.048 1168.64 921.34 1175.61C920.845 1183.32 928.363 1184.6 928.363 1184.6H968.254C965.063 1182.05 964.883 1176.88 964.883 1173.64C964.883 1171.14 969.063 1165.15 967.692 1155.67C966.76 1147.4 957.512 1145.27 956.174 1144.15C954.972 1143.66 956.455 1142.18 956.455 1142.18C956.455 1142.18 981.558 1135 983.986 1111.29C986.896 1087.59 959.545 1085.73 959.545 1085.73H864.873ZM1175.3 1085.73L1149.73 1184.6H1249.74L1256.77 1157.35H1194.96L1213.22 1085.73H1175.3ZM485.342 1263.75C504.872 1263.8 516.187 1274.65 516.244 1291.84C516.244 1295.64 515.738 1299.81 514.558 1304.19C508.052 1328.46 487.274 1344.64 463.429 1344.64C443.866 1344.59 432.28 1334.01 432.246 1316.83C432.246 1313.03 433.033 1308.86 434.213 1304.48C440.741 1280.21 461.463 1263.75 485.342 1263.75ZM1012.08 1263.75C1031.63 1263.79 1043.21 1274.65 1043.26 1291.84C1043.26 1295.64 1042.47 1299.81 1041.3 1304.19C1034.78 1328.45 1014.03 1344.64 990.166 1344.64C970.614 1344.6 959.31 1334.02 959.265 1316.83C959.265 1313.03 959.793 1308.86 960.95 1304.48C967.49 1280.22 988.234 1263.75 1012.08 1263.75ZM1074.73 1107.07C1076.17 1106.97 1077.8 1107.04 1079.5 1107.07C1091.51 1108.04 1103.13 1113.14 1105.07 1122.24C1110.62 1149.54 1081.53 1161.05 1084.84 1159.32C1068.05 1167.98 1042.35 1165.11 1039.33 1147.8C1036.29 1131.23 1049.15 1114.64 1059.84 1110.73C1066.6 1108.32 1070.4 1107.38 1074.73 1107.07ZM476.914 1107.35C478.384 1107.29 479.751 1107.44 481.128 1107.63C493.117 1107.63 505.152 1113.14 506.692 1122.24C512.524 1149.54 483.341 1161.05 487.027 1159.32C470.014 1167.98 444.101 1165.11 441.236 1147.8C438.202 1131.23 451.349 1114.63 462.025 1110.72C467.68 1108.8 472.502 1107.55 476.914 1107.35ZM763.459 1107.35C764.966 1107.29 766.535 1107.44 767.954 1107.63C779.73 1107.63 791.529 1113.14 793.237 1122.24C799.238 1149.54 770.055 1161.05 773.572 1159.32C756.615 1167.98 730.433 1165.11 727.781 1147.8C724.871 1131.23 737.838 1114.63 748.57 1110.72C754.098 1108.8 758.937 1107.55 763.459 1107.35ZM896.056 1108.48L937.071 1108.76C937.071 1108.76 944.993 1108.2 944.375 1116.34C943.836 1125.76 933.7 1127.58 933.7 1127.58H891.28L896.056 1108.48ZM1344.41 1114.38L1351.16 1143.59H1350.6H1325.31H1324.75L1344.41 1114.38Z" fill="black"/>
<path d="M805.742 973.342C631.277 973.342 489.334 831.326 489.334 656.82C489.334 482.629 631.277 340.88 805.742 340.88C980.085 340.88 1121.98 482.629 1121.98 656.82C1121.98 831.326 980.085 973.342 805.742 973.342Z" fill="white"/>
<path d="M805.544 337C628.727 337 485.426 480.737 485.426 657.062C485.426 833.993 628.727 977.124 805.544 977.124C982.264 977.124 1125.66 833.993 1125.66 657.062C1125.66 481.78 984.616 337 805.544 337ZM715.208 427.321L804.938 723.742L805.543 724.347L806.149 723.742L895.879 427.321L1011.68 807.394H989.853C989.853 807.394 975.327 741.03 951.657 701.313C938.707 680.267 918.942 663.075 892.241 663.73C873.228 663.996 856.495 673.429 836.463 701.919C823.998 719.086 805.543 762.537 805.543 762.537C805.543 762.537 787.063 719.086 774.622 701.919C754.227 673.429 738.124 663.997 719.45 663.73C692.604 663.075 672.597 680.267 659.428 701.313C635.831 741.03 621.232 807.394 621.232 807.394H599.406L715.208 427.321Z" fill="black"/>
</svg>
