<svg width="1512" height="982" viewBox="0 0 1512 982" fill="none" xmlns="http://www.w3.org/2000/svg">
<g clip-path="url(#clip0_2007_14)">
<rect width="1512" height="982" fill="#EDD294"/>
<path d="M148 736C148 763.614 170.386 786 198 786H1315C1342.61 786 1365 763.614 1365 736V684C1365 758 1323.67 776.833 1303 777C951.333 776.667 238.5 776.2 200.5 777C162.5 777.8 149.667 715.333 148 684V736Z" fill="#FFEEC5"/>
<path fill-rule="evenodd" clip-rule="evenodd" d="M1269 150.5H242V673.35C242 680.371 240.521 687.314 237.66 693.725L200.5 777C238.5 776.2 951.333 776.667 1303 777L1272.04 692.315C1270.03 686.814 1269 681.003 1269 675.147V150.5Z" fill="#DD6D97"/>
<path d="M1303 777C1323.67 776.833 1365 758 1365 684V150.5C1366.04 139.224 1362.37 120.295 1346 106.252L1269 150.5V675.147C1269 681.003 1270.03 686.814 1272.04 692.315L1303 777Z" fill="url(#paint0_linear_2007_14)"/>
<path d="M148 684C149.667 715.333 162.5 777.8 200.5 777L237.66 693.725C240.521 687.314 242 680.371 242 673.35V150.5L167.173 102.5C152.494 116.305 148 137.515 148 150.5V684Z" fill="url(#paint1_linear_2007_14)"/>
<path d="M242 150.5H1269L1346 106.252C1336.24 97.8782 1321.97 91.2413 1301.5 89H204C187.577 89 175.669 94.5099 167.173 102.5L242 150.5Z" fill="#123F60"/>
<path d="M206 703C206 730.614 228.386 753 256 753H1256C1283.61 753 1306 730.614 1306 703V556H206V703Z" fill="#1B4468"/>
<path d="M206 556H1306V409L1296.38 429.236C1285.37 452.392 1258.79 462.8 1233.95 456.454C1228.11 454.963 1223.26 454 1220.5 454C1216.27 454 1214.75 452.039 1212.82 449.56C1209.5 445.297 1205 439.5 1183.5 439.5C1165.49 439.5 1160.81 444.974 1157.04 449.378C1153.7 453.286 1151.08 456.351 1140.5 454C1128.67 451.371 1116.62 441.827 1107.76 432.897C1100.25 425.319 1097 414.742 1097 404.068V362.894C1097 352.045 1090.52 342.247 1080.53 338.008V338.008C1062.98 330.559 1043.68 343.26 1039.8 361.921C1037.53 372.816 1034.21 381.687 1029.5 383.5C1024.77 385.32 1019.24 389.857 1012.72 395.206C1001.34 404.548 986.943 416.366 968.5 420.5C951.297 424.356 947.818 441.056 945.12 454.005C943.271 462.885 941.788 470 936.5 470C931.048 470 927.618 464.371 923.704 457.946C918.284 449.051 911.934 438.629 898 439.5C885.794 440.263 879.02 447.75 872.35 455.123C865.905 462.247 859.557 469.263 848.5 470C842.976 470.368 837.813 472.19 833.169 474.775C816.739 483.921 799.746 495.213 780.959 494.402C629.909 487.887 340.271 492.581 206 496V556Z" fill="#1B4468"/>
<path d="M1306 173C1306 145.386 1283.61 123 1256 123H256C228.386 123 206 145.386 206 173V496C340.271 492.581 629.909 487.887 780.959 494.402C799.746 495.213 816.739 483.921 833.169 474.775C837.813 472.19 842.976 470.368 848.5 470C859.557 469.263 865.905 462.247 872.35 455.123C879.02 447.75 885.794 440.263 898 439.5C911.934 438.629 918.284 449.051 923.704 457.946C927.618 464.371 931.048 470 936.5 470C941.788 470 943.271 462.885 945.12 454.005C947.818 441.056 951.297 424.356 968.5 420.5C986.943 416.366 1001.34 404.548 1012.72 395.206C1019.24 389.857 1024.77 385.32 1029.5 383.5C1034.21 381.687 1037.53 372.816 1039.8 361.921C1043.68 343.26 1062.98 330.559 1080.53 338.008V338.008C1090.52 342.247 1097 352.045 1097 362.894V404.068C1097 414.742 1100.25 425.319 1107.76 432.897C1116.62 441.827 1128.67 451.371 1140.5 454C1151.08 456.351 1153.7 453.286 1157.04 449.378C1160.81 444.974 1165.49 439.5 1183.5 439.5C1205 439.5 1209.5 445.297 1212.82 449.56C1214.75 452.039 1216.27 454 1220.5 454C1223.26 454 1228.11 454.963 1233.95 456.454C1258.79 462.8 1285.37 452.392 1296.38 429.236L1306 409V173Z" fill="#2C587E"/>
<path d="M-34 1022.5L1567 1062.5L1583.27 868H-21.5521L-34 1022.5Z" fill="#BB409B"/>
<path fill-rule="evenodd" clip-rule="evenodd" d="M-17 811.5H1588L1584.45 853.875H-20.4578L-17 811.5Z" fill="#FFEFCA"/>
<path d="M-21.5521 868H1583.27L1584.45 853.875H-20.4578L-21.5521 868Z" fill="#EB9AD6"/>
<path d="M1542 50.5L1587 89H1334C1365.2 102.6 1367.67 131 1365 143.5C1361 102.7 1321.67 90.1667 1302.5 89H201H198.95C180.255 89.4943 146.729 103.421 147.5 157C144.167 140.333 144.8 103.4 174 89H-14V40L1542 50.5Z" fill="#7BBEEE"/>
<path d="M1541.5 60.5H-8L-63 -25.5H1541.5V60.5Z" fill="#3C98BF"/>
<path d="M1395 98H1561.5V794.5H1364C1373.33 778.667 1393 764.5 1397.5 723.5C1399.99 700.805 1399.83 295.333 1395 98Z" fill="url(#paint2_linear_2007_14)"/>
<path d="M116.765 99H-51V795H148C138.596 779.178 118.78 765.022 114.246 724.051C111.736 701.372 111.895 296.192 116.765 99Z" fill="url(#paint3_linear_2007_14)"/>
<rect y="810" width="1523" height="2" fill="#19486D"/>
<path d="M673.259 832H203.176C196.024 838.353 187.216 853.768 182.388 864.603C177.56 875.437 174.118 953.382 173 991H660.518C660.965 951.543 660.518 871.073 660.518 864.603C660.518 852.063 660.518 845.041 673.259 832Z" fill="#19486D"/>
<path d="M707.5 864.603C708.3 849.085 714.167 836.402 717 832H1181C1193.8 843.6 1201 858.568 1203 864.603V991H707.5V864.603Z" fill="#19486D"/>
<path d="M1252 864.603C1250 853.485 1234.83 838.235 1227.5 832H1532V991H1252V864.603Z" fill="#19486D"/>
<path d="M142 864.603C146 848.685 159 836.235 165 832H-15.5V991H134L142 864.603Z" fill="#19486D"/>
<path d="M707.5 878H714V904H707.5V878Z" fill="#2FD2CB" fill-opacity="0.5"/>
<path d="M717 878H726V904H717V878Z" fill="#1C8782" fill-opacity="0.49"/>
<path d="M774 880L774.037 889L748.037 889.107L748 880.107L774 880Z" fill="#FE77DD" fill-opacity="0.5"/>
<path d="M774.051 892L774.087 901L748.088 901.107L748.051 892.107L774.051 892Z" fill="#F34529" fill-opacity="0.5"/>
<path d="M800 878H809V904H800V878Z" fill="#2FD2CB" fill-opacity="0.5"/>
<path d="M812 878H821V904H812V878Z" fill="#1C8782" fill-opacity="0.49"/>
<path d="M869 880L869.037 889L843.037 889.107L843 880.107L869 880Z" fill="#FE77DD" fill-opacity="0.5"/>
<path d="M869.051 892L869.087 901L843.088 901.107L843.051 892.107L869.051 892Z" fill="#F34529" fill-opacity="0.5"/>
<path d="M897 878H906V904H897V878Z" fill="#2FD2CB" fill-opacity="0.5"/>
<path d="M909 878H918V904H909V878Z" fill="#1C8782" fill-opacity="0.49"/>
<path d="M966 880L966.037 889L940.037 889.106L940 880.107L966 880Z" fill="#FE77DD" fill-opacity="0.5"/>
<path d="M966.051 892L966.087 901L940.088 901.106L940.051 892.107L966.051 892Z" fill="#F34529" fill-opacity="0.5"/>
<path d="M992 878H1001V904H992V878Z" fill="#2FD2CB" fill-opacity="0.5"/>
<path d="M1004 878H1013V904H1004V878Z" fill="#1C8782" fill-opacity="0.49"/>
<path d="M1061 880L1061.04 889L1035.04 889.106L1035 880.107L1061 880Z" fill="#FE77DD" fill-opacity="0.5"/>
<path d="M1061.05 892L1061.09 901L1035.09 901.106L1035.05 892.107L1061.05 892Z" fill="#F34529" fill-opacity="0.5"/>
<path d="M1093.41 878H1102.41V904H1093.41V878Z" fill="#2FD2CB" fill-opacity="0.5"/>
<path d="M1105.41 878H1114.41V904H1105.41V878Z" fill="#1C8782" fill-opacity="0.49"/>
<path d="M1162.41 880L1162.45 889L1136.45 889.107L1136.41 880.107L1162.41 880Z" fill="#FE77DD" fill-opacity="0.5"/>
<path d="M1162.46 892L1162.5 901L1136.5 901.107L1136.46 892.107L1162.46 892Z" fill="#F34529" fill-opacity="0.5"/>
<path d="M1184 878H1193V904H1184V878Z" fill="#2FD2CB" fill-opacity="0.5"/>
<path d="M1196 878H1203V904H1196V878Z" fill="#1C8782" fill-opacity="0.49"/>
<path d="M707.5 969H712V995H707.5V969Z" fill="#2FD2CB" fill-opacity="0.5"/>
<path d="M715 969H724V995H715V969Z" fill="#1C8782" fill-opacity="0.49"/>
<path d="M772 971L772.037 980L746.037 980.107L746 971.107L772 971Z" fill="#FE77DD" fill-opacity="0.5"/>
<path d="M772.051 983L772.087 992L746.088 992.107L746.051 983.107L772.051 983Z" fill="#F34529" fill-opacity="0.5"/>
<path d="M798 969H807V995H798V969Z" fill="#2FD2CB" fill-opacity="0.5"/>
<path d="M810 969H819V995H810V969Z" fill="#1C8782" fill-opacity="0.49"/>
<path d="M867 971L867.037 980L841.037 980.107L841 971.107L867 971Z" fill="#FE77DD" fill-opacity="0.5"/>
<path d="M867.051 983L867.087 992L841.088 992.107L841.051 983.107L867.051 983Z" fill="#F34529" fill-opacity="0.5"/>
<path d="M895 969H904V995H895V969Z" fill="#2FD2CB" fill-opacity="0.5"/>
<path d="M907 969H916V995H907V969Z" fill="#1C8782" fill-opacity="0.49"/>
<path d="M964 971L964.037 980L938.037 980.106L938 971.107L964 971Z" fill="#FE77DD" fill-opacity="0.5"/>
<path d="M964.051 983L964.087 992L938.088 992.107L938.051 983.107L964.051 983Z" fill="#F34529" fill-opacity="0.5"/>
<path d="M990 969H999V995H990V969Z" fill="#2FD2CB" fill-opacity="0.5"/>
<path d="M1002 969H1011V995H1002V969Z" fill="#1C8782" fill-opacity="0.49"/>
<path d="M1059 971L1059.04 980L1033.04 980.106L1033 971.107L1059 971Z" fill="#FE77DD" fill-opacity="0.5"/>
<path d="M1059.05 983L1059.09 992L1033.09 992.107L1033.05 983.107L1059.05 983Z" fill="#F34529" fill-opacity="0.5"/>
<path d="M1091.41 969H1100.41V995H1091.41V969Z" fill="#2FD2CB" fill-opacity="0.5"/>
<path d="M1103.41 969H1112.41V995H1103.41V969Z" fill="#1C8782" fill-opacity="0.49"/>
<path d="M1160.41 971L1160.45 980L1134.45 980.107L1134.41 971.107L1160.41 971Z" fill="#FE77DD" fill-opacity="0.5"/>
<path d="M1160.46 983L1160.5 992L1134.5 992.107L1134.46 983.107L1160.46 983Z" fill="#F34529" fill-opacity="0.5"/>
<path d="M1182 969H1191V995H1182V969Z" fill="#2FD2CB" fill-opacity="0.5"/>
<path d="M1194 969H1203V995H1194V969Z" fill="#1C8782" fill-opacity="0.49"/>
<path d="M729 926.001L729.037 935.001L707.537 935.089L707.5 926.089L729 926.001Z" fill="#FE77DD" fill-opacity="0.5"/>
<path d="M729.051 938.001L729.087 947.001L707.588 947.089L707.551 938.089L729.051 938.001Z" fill="#F34529" fill-opacity="0.5"/>
<path d="M755 924.001H764V950.001H755V924.001Z" fill="#2FD2CB" fill-opacity="0.5"/>
<path d="M767 924.001H776V950.001H767V924.001Z" fill="#1C8782" fill-opacity="0.49"/>
<path d="M824 926.001L824.037 935.001L798.037 935.108L798 926.108L824 926.001Z" fill="#FE77DD" fill-opacity="0.5"/>
<path d="M824.051 938.001L824.087 947.001L798.088 947.108L798.051 938.108L824.051 938.001Z" fill="#F34529" fill-opacity="0.5"/>
<path d="M852 924.001H861V950.001H852V924.001Z" fill="#2FD2CB" fill-opacity="0.5"/>
<path d="M864 924.001H873V950.001H864V924.001Z" fill="#1C8782" fill-opacity="0.49"/>
<path d="M921 926.001L921.037 935.001L895.037 935.107L895 926.107L921 926.001Z" fill="#FE77DD" fill-opacity="0.5"/>
<path d="M921.051 938.001L921.087 947.001L895.088 947.107L895.051 938.107L921.051 938.001Z" fill="#F34529" fill-opacity="0.5"/>
<path d="M947 924.001H956V950.001H947V924.001Z" fill="#2FD2CB" fill-opacity="0.5"/>
<path d="M959 924.001H968V950.001H959V924.001Z" fill="#1C8782" fill-opacity="0.49"/>
<path d="M1016 926.001L1016.04 935.001L990.037 935.107L990 926.107L1016 926.001Z" fill="#FE77DD" fill-opacity="0.5"/>
<path d="M1016.05 938.001L1016.09 947.001L990.088 947.107L990.051 938.107L1016.05 938.001Z" fill="#F34529" fill-opacity="0.5"/>
<path d="M1048.41 924.001H1057.41V950.001H1048.41V924.001Z" fill="#2FD2CB" fill-opacity="0.5"/>
<path d="M1060.41 924.001H1069.41V950.001H1060.41V924.001Z" fill="#1C8782" fill-opacity="0.49"/>
<path d="M1117.41 926.001L1117.45 935.001L1091.45 935.108L1091.41 926.108L1117.41 926.001Z" fill="#FE77DD" fill-opacity="0.5"/>
<path d="M1117.46 938.001L1117.5 947.001L1091.5 947.108L1091.46 938.108L1117.46 938.001Z" fill="#F34529" fill-opacity="0.5"/>
<path d="M1139 924.001H1148V950.001H1139V924.001Z" fill="#2FD2CB" fill-opacity="0.5"/>
<path d="M1151 924.001H1160V950.001H1151V924.001Z" fill="#1C8782" fill-opacity="0.49"/>
<path d="M1203 926.129L1203.04 935.129L1182.45 935.213L1182.41 926.214L1203 926.129Z" fill="#FE77DD" fill-opacity="0.5"/>
<path d="M1203.05 938.129L1203.09 947.129L1182.5 947.213L1182.46 938.214L1203.05 938.129Z" fill="#F34529" fill-opacity="0.5"/>
<path d="M730.254 838.154L730.29 843.346H711.752L713.816 838.154H730.254Z" fill="#FE77DD" fill-opacity="0.5"/>
<path d="M730.254 845.076L730.29 850.268H709.668L711.197 844.999L730.254 845.076Z" fill="#F34529" fill-opacity="0.5"/>
<path d="M755.508 837H764.25V852H755.508V837Z" fill="#2FD2CB" fill-opacity="0.5"/>
<path d="M767.164 837H775.906V852H767.164V837Z" fill="#1C8782" fill-opacity="0.49"/>
<path d="M822.529 838.154L822.565 843.346L797.311 843.408L797.275 838.216L822.529 838.154Z" fill="#FE77DD" fill-opacity="0.5"/>
<path d="M822.578 845.077L822.614 850.269L797.36 850.331L797.324 845.139L822.578 845.077Z" fill="#F34529" fill-opacity="0.5"/>
<path d="M849.726 837H858.468V852H849.726V837Z" fill="#2FD2CB" fill-opacity="0.5"/>
<path d="M861.382 837H870.124V852H861.382V837Z" fill="#1C8782" fill-opacity="0.49"/>
<path d="M916.747 838.154L916.782 843.346L891.529 843.407L891.493 838.215L916.747 838.154Z" fill="#FE77DD" fill-opacity="0.5"/>
<path d="M916.796 845.077L916.832 850.269L891.578 850.33L891.542 845.138L916.796 845.077Z" fill="#F34529" fill-opacity="0.5"/>
<path d="M942.001 837H950.743V852H942.001V837Z" fill="#2FD2CB" fill-opacity="0.5"/>
<path d="M953.657 837H962.399V852H953.657V837Z" fill="#1C8782" fill-opacity="0.49"/>
<path d="M1009.02 838.154L1009.06 843.346L983.803 843.407L983.768 838.215L1009.02 838.154Z" fill="#FE77DD" fill-opacity="0.5"/>
<path d="M1009.07 845.077L1009.11 850.269L983.853 850.33L983.817 845.138L1009.07 845.077Z" fill="#F34529" fill-opacity="0.5"/>
<path d="M1040.5 837H1049.25V852H1040.5V837Z" fill="#2FD2CB" fill-opacity="0.5"/>
<path d="M1052.16 837H1060.9V852H1052.16V837Z" fill="#1C8782" fill-opacity="0.49"/>
<path d="M1107.53 838.154L1107.56 843.346L1082.31 843.408L1082.27 838.216L1107.53 838.154Z" fill="#FE77DD" fill-opacity="0.5"/>
<path d="M1107.57 845.077L1107.61 850.269L1082.36 850.331L1082.32 845.139L1107.57 845.077Z" fill="#F34529" fill-opacity="0.5"/>
<path d="M1128.49 837H1137.24V852H1128.49V837Z" fill="#2FD2CB" fill-opacity="0.5"/>
<path d="M1140.15 837H1148.89V852H1140.15V837Z" fill="#1C8782" fill-opacity="0.49"/>
<path d="M1187.18 838.277L1189.5 841L1191.35 843.469H1170.88L1170.84 838.277H1187.18Z" fill="#FE77DD" fill-opacity="0.5"/>
<path d="M1192.65 845.199L1194.5 848L1196 850.33L1170.75 850.392L1170.71 845.199H1192.65Z" fill="#F34529" fill-opacity="0.5"/>
<path d="M1261 877H1270V903H1261V877Z" fill="#2FD2CB" fill-opacity="0.5"/>
<path d="M1273 877H1282V903H1273V877Z" fill="#1C8782" fill-opacity="0.49"/>
<path d="M1330 879L1330.04 888L1304.04 888.107L1304 879.107L1330 879Z" fill="#FE77DD" fill-opacity="0.5"/>
<path d="M1330.05 891L1330.09 900L1304.09 900.107L1304.05 891.107L1330.05 891Z" fill="#F34529" fill-opacity="0.5"/>
<path d="M1356 877H1365V903H1356V877Z" fill="#2FD2CB" fill-opacity="0.5"/>
<path d="M1368 877H1377V903H1368V877Z" fill="#1C8782" fill-opacity="0.49"/>
<path d="M1425 879L1425.04 888L1399.04 888.107L1399 879.107L1425 879Z" fill="#FE77DD" fill-opacity="0.5"/>
<path d="M1425.05 891L1425.09 900L1399.09 900.107L1399.05 891.107L1425.05 891Z" fill="#F34529" fill-opacity="0.5"/>
<path d="M1453 877H1462V903H1453V877Z" fill="#2FD2CB" fill-opacity="0.5"/>
<path d="M1465 877H1474V903H1465V877Z" fill="#1C8782" fill-opacity="0.49"/>
<path d="M1522 879L1522.04 888L1496.04 888.106L1496 879.107L1522 879Z" fill="#FE77DD" fill-opacity="0.5"/>
<path d="M1522.05 891L1522.09 900L1496.09 900.106L1496.05 891.107L1522.05 891Z" fill="#F34529" fill-opacity="0.5"/>
<path d="M1259 968H1268V994H1259V968Z" fill="#2FD2CB" fill-opacity="0.5"/>
<path d="M1271 968H1280V994H1271V968Z" fill="#1C8782" fill-opacity="0.49"/>
<path d="M1328 970L1328.04 979L1302.04 979.107L1302 970.107L1328 970Z" fill="#FE77DD" fill-opacity="0.5"/>
<path d="M1328.05 982L1328.09 991L1302.09 991.107L1302.05 982.107L1328.05 982Z" fill="#F34529" fill-opacity="0.5"/>
<path d="M1354 968H1363V994H1354V968Z" fill="#2FD2CB" fill-opacity="0.5"/>
<path d="M1366 968H1375V994H1366V968Z" fill="#1C8782" fill-opacity="0.49"/>
<path d="M1423 970L1423.04 979L1397.04 979.107L1397 970.107L1423 970Z" fill="#FE77DD" fill-opacity="0.5"/>
<path d="M1423.05 982L1423.09 991L1397.09 991.107L1397.05 982.107L1423.05 982Z" fill="#F34529" fill-opacity="0.5"/>
<path d="M1451 968H1460V994H1451V968Z" fill="#2FD2CB" fill-opacity="0.5"/>
<path d="M1463 968H1472V994H1463V968Z" fill="#1C8782" fill-opacity="0.49"/>
<path d="M1520 970L1520.04 979L1494.04 979.106L1494 970.107L1520 970Z" fill="#FE77DD" fill-opacity="0.5"/>
<path d="M1520.05 982L1520.09 991L1494.09 991.107L1494.05 982.107L1520.05 982Z" fill="#F34529" fill-opacity="0.5"/>
<path d="M1285 925.001L1285.04 934.001L1259.04 934.108L1259 925.108L1285 925.001Z" fill="#FE77DD" fill-opacity="0.5"/>
<path d="M1285.05 937.001L1285.09 946.001L1259.09 946.108L1259.05 937.108L1285.05 937.001Z" fill="#F34529" fill-opacity="0.5"/>
<path d="M1311 923.001H1320V949.001H1311V923.001Z" fill="#2FD2CB" fill-opacity="0.5"/>
<path d="M1323 923.001H1332V949.001H1323V923.001Z" fill="#1C8782" fill-opacity="0.49"/>
<path d="M1380 925.001L1380.04 934.001L1354.04 934.108L1354 925.108L1380 925.001Z" fill="#FE77DD" fill-opacity="0.5"/>
<path d="M1380.05 937.001L1380.09 946.001L1354.09 946.108L1354.05 937.108L1380.05 937.001Z" fill="#F34529" fill-opacity="0.5"/>
<path d="M1408 923.001H1417V949.001H1408V923.001Z" fill="#2FD2CB" fill-opacity="0.5"/>
<path d="M1420 923.001H1429V949.001H1420V923.001Z" fill="#1C8782" fill-opacity="0.49"/>
<path d="M1477 925.001L1477.04 934.001L1451.04 934.107L1451 925.107L1477 925.001Z" fill="#FE77DD" fill-opacity="0.5"/>
<path d="M1477.05 937.001L1477.09 946.001L1451.09 946.107L1451.05 937.107L1477.05 937.001Z" fill="#F34529" fill-opacity="0.5"/>
<path d="M1503 923.001H1512V949.001H1503V923.001Z" fill="#2FD2CB" fill-opacity="0.5"/>
<path d="M1515 923.001H1524V949.001H1515V923.001Z" fill="#1C8782" fill-opacity="0.49"/>
<path d="M1282 837.154L1286.29 842.346L1260 842.408L1255.5 837.216L1282 837.154Z" fill="#FE77DD" fill-opacity="0.5"/>
<path d="M1286.3 844.077L1290.5 849.269L1264 849.331L1261.05 844.139L1286.3 844.077Z" fill="#F34529" fill-opacity="0.5"/>
<path d="M1305 836H1313L1320.25 851H1313L1305 836Z" fill="#2FD2CB" fill-opacity="0.5"/>
<path d="M1315.5 836H1324.24L1331.91 851H1323.16L1315.5 836Z" fill="#1C8782" fill-opacity="0.49"/>
<path d="M1375.5 837.216L1378.56 842.346L1353.31 842.408L1351 837.154L1375.5 837.216Z" fill="#FE77DD" fill-opacity="0.5"/>
<path d="M1378.58 844.077L1381 849.269H1355L1353.32 844.139L1378.58 844.077Z" fill="#F34529" fill-opacity="0.5"/>
<path d="M1399 836H1407.74L1414.47 851H1405.73L1399 836Z" fill="#2FD2CB" fill-opacity="0.5"/>
<path d="M1410.76 836H1419.5L1426.12 851H1417.38L1410.76 836Z" fill="#1C8782" fill-opacity="0.49"/>
<path d="M1470 837.216L1472.78 842.346L1447.53 842.407L1444.75 837.277L1470 837.216Z" fill="#FE77DD" fill-opacity="0.5"/>
<path d="M1472.8 844.077L1475.5 849.269L1450.25 849.33L1447.54 844.138L1472.8 844.077Z" fill="#F34529" fill-opacity="0.5"/>
<path d="M1491.5 836H1500.24L1506.74 851H1498L1491.5 836Z" fill="#2FD2CB" fill-opacity="0.5"/>
<path d="M1503.5 836H1512.24L1518.4 851H1509.66L1503.5 836Z" fill="#1C8782" fill-opacity="0.49"/>
<path d="M179.5 878H186V904H177L179.5 878Z" fill="#1C8782" fill-opacity="0.49"/>
<path d="M234 880L234.037 889L208.037 889.107L208 880.107L234 880Z" fill="#FE77DD" fill-opacity="0.5"/>
<path d="M234.051 892L234.087 901L208.088 901.107L208.051 892.107L234.051 892Z" fill="#F34529" fill-opacity="0.5"/>
<path d="M260 878H269V904H260V878Z" fill="#2FD2CB" fill-opacity="0.5"/>
<path d="M272 878H281V904H272V878Z" fill="#1C8782" fill-opacity="0.49"/>
<path d="M329 880L329.037 889L303.037 889.107L303 880.107L329 880Z" fill="#FE77DD" fill-opacity="0.5"/>
<path d="M329.051 892L329.087 901L303.088 901.107L303.051 892.107L329.051 892Z" fill="#F34529" fill-opacity="0.5"/>
<path d="M357 878H366V904H357V878Z" fill="#2FD2CB" fill-opacity="0.5"/>
<path d="M369 878H378V904H369V878Z" fill="#1C8782" fill-opacity="0.49"/>
<path d="M426 880L426.037 889L400.037 889.106L400 880.107L426 880Z" fill="#FE77DD" fill-opacity="0.5"/>
<path d="M426.051 892L426.087 901L400.088 901.106L400.051 892.107L426.051 892Z" fill="#F34529" fill-opacity="0.5"/>
<path d="M452 878H461V904H452V878Z" fill="#2FD2CB" fill-opacity="0.5"/>
<path d="M464 878H473V904H464V878Z" fill="#1C8782" fill-opacity="0.49"/>
<path d="M521 880L521.037 889L495.037 889.106L495 880.107L521 880Z" fill="#FE77DD" fill-opacity="0.5"/>
<path d="M521.051 892L521.087 901L495.088 901.106L495.051 892.107L521.051 892Z" fill="#F34529" fill-opacity="0.5"/>
<path d="M553.413 878H562.413V904H553.413V878Z" fill="#2FD2CB" fill-opacity="0.5"/>
<path d="M565.413 878H574.413V904H565.413V878Z" fill="#1C8782" fill-opacity="0.49"/>
<path d="M622.412 880L622.449 889L596.449 889.107L596.413 880.107L622.412 880Z" fill="#FE77DD" fill-opacity="0.5"/>
<path d="M622.463 892L622.5 901L596.5 901.107L596.463 892.107L622.463 892Z" fill="#F34529" fill-opacity="0.5"/>
<path d="M644 878H653V904H644V878Z" fill="#2FD2CB" fill-opacity="0.5"/>
<path d="M656 878H660.5V904H656V878Z" fill="#1C8782" fill-opacity="0.49"/>
<path d="M175 969H184V995H175V969Z" fill="#1C8782" fill-opacity="0.49"/>
<path d="M232 971L232.037 980L206.037 980.107L206 971.107L232 971Z" fill="#FE77DD" fill-opacity="0.5"/>
<path d="M232.051 983L232.087 992L206.088 992.107L206.051 983.107L232.051 983Z" fill="#F34529" fill-opacity="0.5"/>
<path d="M258 969H267V995H258V969Z" fill="#2FD2CB" fill-opacity="0.5"/>
<path d="M270 969H279V995H270V969Z" fill="#1C8782" fill-opacity="0.49"/>
<path d="M327 971L327.037 980L301.037 980.107L301 971.107L327 971Z" fill="#FE77DD" fill-opacity="0.5"/>
<path d="M327.051 983L327.087 992L301.088 992.107L301.051 983.107L327.051 983Z" fill="#F34529" fill-opacity="0.5"/>
<path d="M355 969H364V995H355V969Z" fill="#2FD2CB" fill-opacity="0.5"/>
<path d="M367 969H376V995H367V969Z" fill="#1C8782" fill-opacity="0.49"/>
<path d="M424 971L424.037 980L398.037 980.106L398 971.107L424 971Z" fill="#FE77DD" fill-opacity="0.5"/>
<path d="M424.051 983L424.087 992L398.088 992.107L398.051 983.107L424.051 983Z" fill="#F34529" fill-opacity="0.5"/>
<path d="M450 969H459V995H450V969Z" fill="#2FD2CB" fill-opacity="0.5"/>
<path d="M462 969H471V995H462V969Z" fill="#1C8782" fill-opacity="0.49"/>
<path d="M519 971L519.037 980L493.037 980.106L493 971.107L519 971Z" fill="#FE77DD" fill-opacity="0.5"/>
<path d="M519.051 983L519.087 992L493.088 992.107L493.051 983.107L519.051 983Z" fill="#F34529" fill-opacity="0.5"/>
<path d="M551.413 969H560.413V995H551.413V969Z" fill="#2FD2CB" fill-opacity="0.5"/>
<path d="M563.413 969H572.413V995H563.413V969Z" fill="#1C8782" fill-opacity="0.49"/>
<path d="M620.412 971L620.449 980L594.449 980.107L594.413 971.107L620.412 971Z" fill="#FE77DD" fill-opacity="0.5"/>
<path d="M620.463 983L620.5 992L594.5 992.107L594.463 983.107L620.463 983Z" fill="#F34529" fill-opacity="0.5"/>
<path d="M642 969H651V995H642V969Z" fill="#2FD2CB" fill-opacity="0.5"/>
<path d="M654 969H660.588V995H654V969Z" fill="#1C8782" fill-opacity="0.49"/>
<path d="M189 926.001L189.037 935.001H175.5L176 926L189 926.001Z" fill="#FE77DD" fill-opacity="0.5"/>
<path d="M189.051 938.001L189.087 947.001L174.5 947L175 938L189.051 938.001Z" fill="#F34529" fill-opacity="0.5"/>
<path d="M215 924.001H224V950.001H215V924.001Z" fill="#2FD2CB" fill-opacity="0.5"/>
<path d="M227 924.001H236V950.001H227V924.001Z" fill="#1C8782" fill-opacity="0.49"/>
<path d="M284 926.001L284.037 935.001L258.037 935.108L258 926.108L284 926.001Z" fill="#FE77DD" fill-opacity="0.5"/>
<path d="M284.051 938.001L284.087 947.001L258.088 947.108L258.051 938.108L284.051 938.001Z" fill="#F34529" fill-opacity="0.5"/>
<path d="M312 924.001H321V950.001H312V924.001Z" fill="#2FD2CB" fill-opacity="0.5"/>
<path d="M324 924.001H333V950.001H324V924.001Z" fill="#1C8782" fill-opacity="0.49"/>
<path d="M381 926.001L381.037 935.001L355.037 935.107L355 926.107L381 926.001Z" fill="#FE77DD" fill-opacity="0.5"/>
<path d="M381.051 938.001L381.087 947.001L355.088 947.107L355.051 938.107L381.051 938.001Z" fill="#F34529" fill-opacity="0.5"/>
<path d="M407 924.001H416V950.001H407V924.001Z" fill="#2FD2CB" fill-opacity="0.5"/>
<path d="M419 924.001H428V950.001H419V924.001Z" fill="#1C8782" fill-opacity="0.49"/>
<path d="M476 926.001L476.037 935.001L450.037 935.107L450 926.107L476 926.001Z" fill="#FE77DD" fill-opacity="0.5"/>
<path d="M476.051 938.001L476.087 947.001L450.088 947.107L450.051 938.107L476.051 938.001Z" fill="#F34529" fill-opacity="0.5"/>
<path d="M508.413 924.001H517.413V950.001H508.413V924.001Z" fill="#2FD2CB" fill-opacity="0.5"/>
<path d="M520.413 924.001H529.413V950.001H520.413V924.001Z" fill="#1C8782" fill-opacity="0.49"/>
<path d="M577.412 926.001L577.449 935.001L551.449 935.108L551.413 926.108L577.412 926.001Z" fill="#FE77DD" fill-opacity="0.5"/>
<path d="M577.463 938.001L577.5 947.001L551.5 947.108L551.463 938.108L577.463 938.001Z" fill="#F34529" fill-opacity="0.5"/>
<path d="M599 924.001H608V950.001H599V924.001Z" fill="#2FD2CB" fill-opacity="0.5"/>
<path d="M611 924.001H620V950.001H611V924.001Z" fill="#1C8782" fill-opacity="0.49"/>
<path d="M660.5 926.139L660.537 935.139L642.449 935.213L642.413 926.214L660.5 926.139Z" fill="#FE77DD" fill-opacity="0.5"/>
<path d="M660.551 938.139L660.588 947.139L642.5 947.213L642.463 938.214L660.551 938.139Z" fill="#F34529" fill-opacity="0.5"/>
<path d="M215.508 837H224.25V852H215.508V837Z" fill="#2FD2CB" fill-opacity="0.5"/>
<path d="M227.164 837H235.906V852H227.164V837Z" fill="#1C8782" fill-opacity="0.49"/>
<path d="M282.529 838.154L282.565 843.346L257.311 843.408L257.275 838.216L282.529 838.154Z" fill="#FE77DD" fill-opacity="0.5"/>
<path d="M282.578 845.077L282.614 850.269L257.36 850.331L257.324 845.139L282.578 845.077Z" fill="#F34529" fill-opacity="0.5"/>
<path d="M309.726 837H318.468V852H309.726V837Z" fill="#2FD2CB" fill-opacity="0.5"/>
<path d="M321.382 837H330.124V852H321.382V837Z" fill="#1C8782" fill-opacity="0.49"/>
<path d="M376.747 838.154L376.783 843.346L351.529 843.407L351.493 838.215L376.747 838.154Z" fill="#FE77DD" fill-opacity="0.5"/>
<path d="M376.796 845.077L376.832 850.269L351.578 850.33L351.542 845.138L376.796 845.077Z" fill="#F34529" fill-opacity="0.5"/>
<path d="M402.001 837H410.743V852H402.001V837Z" fill="#2FD2CB" fill-opacity="0.5"/>
<path d="M413.657 837H422.399V852H413.657V837Z" fill="#1C8782" fill-opacity="0.49"/>
<path d="M469.022 838.154L469.058 843.346L443.803 843.407L443.768 838.215L469.022 838.154Z" fill="#FE77DD" fill-opacity="0.5"/>
<path d="M469.071 845.077L469.107 850.269L443.853 850.33L443.817 845.138L469.071 845.077Z" fill="#F34529" fill-opacity="0.5"/>
<path d="M500.505 837H509.247V852H500.505V837Z" fill="#2FD2CB" fill-opacity="0.5"/>
<path d="M512.161 837H520.902V852H512.161V837Z" fill="#1C8782" fill-opacity="0.49"/>
<path d="M567.525 838.154L567.561 843.346L542.307 843.408L542.271 838.216L567.525 838.154Z" fill="#FE77DD" fill-opacity="0.5"/>
<path d="M567.575 845.077L567.61 850.269L542.356 850.331L542.321 845.139L567.575 845.077Z" fill="#F34529" fill-opacity="0.5"/>
<path d="M588.494 837H597.236V852H588.494V837Z" fill="#2FD2CB" fill-opacity="0.5"/>
<path d="M600.15 837H608.891V852H600.15V837Z" fill="#1C8782" fill-opacity="0.49"/>
<path d="M655.915 838.215L655.951 843.407L630.697 843.469L630.661 838.277L655.915 838.215Z" fill="#FE77DD" fill-opacity="0.5"/>
<path d="M655.964 845.138L656 850.33L630.746 850.392L630.71 845.199L655.964 845.138Z" fill="#F34529" fill-opacity="0.5"/>
<path d="M13.1413 874H22.1413V900H13.1413V874Z" fill="#2FD2CB" fill-opacity="0.5"/>
<path d="M25.1413 874H34.1413V900H25.1413V874Z" fill="#1C8782" fill-opacity="0.49"/>
<path d="M82.141 876L82.1779 885L56.1781 885.107L56.1412 876.107L82.141 876Z" fill="#FE77DD" fill-opacity="0.5"/>
<path d="M82.1918 888L82.2287 897L56.2289 897.107L56.192 888.107L82.1918 888Z" fill="#F34529" fill-opacity="0.5"/>
<path d="M103.729 874H112.729V900H103.729V874Z" fill="#2FD2CB" fill-opacity="0.5"/>
<path d="M115.729 874H124.729V900H115.729V874Z" fill="#1C8782" fill-opacity="0.49"/>
<path d="M11.1413 965H20.1413V991H11.1413V965Z" fill="#2FD2CB" fill-opacity="0.5"/>
<path d="M23.1413 965H32.1413V991H23.1413V965Z" fill="#1C8782" fill-opacity="0.49"/>
<path d="M80.141 967L80.1779 976L54.1781 976.107L54.1412 967.107L80.141 967Z" fill="#FE77DD" fill-opacity="0.5"/>
<path d="M80.1918 979L80.2287 988L54.2289 988.107L54.192 979.107L80.1918 979Z" fill="#F34529" fill-opacity="0.5"/>
<path d="M101.729 965H110.729V991H101.729V965Z" fill="#2FD2CB" fill-opacity="0.5"/>
<path d="M113.729 965H122.729V991H113.729V965Z" fill="#1C8782" fill-opacity="0.49"/>
<path d="M37.1411 922.001L37.1779 931.001L11.1782 931.108L11.1413 922.108L37.1411 922.001Z" fill="#FE77DD" fill-opacity="0.5"/>
<path d="M37.1918 934.001L37.2287 943.001L11.2289 943.108L11.192 934.108L37.1918 934.001Z" fill="#F34529" fill-opacity="0.5"/>
<path d="M58.7287 920.001H67.7287V946.001H58.7287V920.001Z" fill="#2FD2CB" fill-opacity="0.5"/>
<path d="M70.7287 920.001H79.7287V946.001H70.7287V920.001Z" fill="#1C8782" fill-opacity="0.49"/>
<path d="M128.141 922.107L128.178 931.107L102.178 931.213L102.141 922.214L128.141 922.107Z" fill="#FE77DD" fill-opacity="0.5"/>
<path d="M128.192 934.107L128.229 943.107L102.229 943.213L102.192 934.214L128.192 934.107Z" fill="#F34529" fill-opacity="0.5"/>
<path d="M27.254 834.154L27.2899 839.346L2.03586 839.408L2 834.216L27.254 834.154Z" fill="#FE77DD" fill-opacity="0.5"/>
<path d="M27.3033 841.077L27.3392 846.269L2.08517 846.331L2.04935 841.139L27.3033 841.077Z" fill="#F34529" fill-opacity="0.5"/>
<path d="M48.2225 833H56.9643V848H48.2225V833Z" fill="#2FD2CB" fill-opacity="0.5"/>
<path d="M59.8783 833H68.6201V848H59.8783V833Z" fill="#1C8782" fill-opacity="0.49"/>
<path d="M115.644 834.215L115.68 839.407L90.4256 839.469L90.3897 834.277L115.644 834.215Z" fill="#FE77DD" fill-opacity="0.5"/>
<path d="M115.693 841.138L115.729 846.33L90.4749 846.392L90.4391 841.199L115.693 841.138Z" fill="#F34529" fill-opacity="0.5"/>
<ellipse cx="960.5" cy="990.5" rx="147.5" ry="131.5" fill="url(#paint4_radial_2007_14)" fill-opacity="0.44"/>
<ellipse cx="397.5" cy="981.5" rx="147.5" ry="131.5" fill="url(#paint5_radial_2007_14)" fill-opacity="0.44"/>
<ellipse cx="1439.5" cy="1000.5" rx="147.5" ry="131.5" fill="url(#paint6_radial_2007_14)" fill-opacity="0.44"/>
</g>
<defs>
<linearGradient id="paint0_linear_2007_14" x1="1346" y1="517" x2="1289.5" y2="786" gradientUnits="userSpaceOnUse">
<stop stop-color="#1C5D8E"/>
<stop offset="1" stop-color="#DD6D97"/>
</linearGradient>
<linearGradient id="paint1_linear_2007_14" x1="248.5" y1="755.5" x2="166.5" y2="455" gradientUnits="userSpaceOnUse">
<stop stop-color="#DD6D97"/>
<stop offset="1" stop-color="#1D5E8F"/>
</linearGradient>
<linearGradient id="paint2_linear_2007_14" x1="1475.5" y1="355" x2="1475.5" y2="794.5" gradientUnits="userSpaceOnUse">
<stop stop-color="#EDD294"/>
<stop offset="1" stop-color="#B7359A"/>
</linearGradient>
<linearGradient id="paint3_linear_2007_14" x1="35.6531" y1="355.816" x2="35.6531" y2="795" gradientUnits="userSpaceOnUse">
<stop stop-color="#EDD294"/>
<stop offset="1" stop-color="#B7359A"/>
</linearGradient>
<radialGradient id="paint4_radial_2007_14" cx="0" cy="0" r="1" gradientUnits="userSpaceOnUse" gradientTransform="translate(960.5 990.5) rotate(90) scale(131.5 147.5)">
<stop stop-color="#5CDEE7" stop-opacity="0.5"/>
<stop offset="1" stop-color="#19486D"/>
</radialGradient>
<radialGradient id="paint5_radial_2007_14" cx="0" cy="0" r="1" gradientUnits="userSpaceOnUse" gradientTransform="translate(397.5 981.5) rotate(90) scale(131.5 147.5)">
<stop stop-color="#5CDEE7" stop-opacity="0.5"/>
<stop offset="1" stop-color="#19486D"/>
</radialGradient>
<radialGradient id="paint6_radial_2007_14" cx="0" cy="0" r="1" gradientUnits="userSpaceOnUse" gradientTransform="translate(1439.5 1000.5) rotate(90) scale(131.5 147.5)">
<stop stop-color="#5CDEE7" stop-opacity="0.5"/>
<stop offset="1" stop-color="#19486D"/>
</radialGradient>
<clipPath id="clip0_2007_14">
<rect width="1512" height="982" fill="white"/>
</clipPath>
</defs>
</svg>
