<svg width="274" height="45" viewBox="0 0 274 45" fill="none" xmlns="http://www.w3.org/2000/svg">
<path d="M19 0H251V9H19V0Z" fill="#FF80D6"/>
<path d="M247 0H256V9H247V0Z" fill="#FF80D6"/>
<path d="M9 9H258V18H9V9Z" fill="#FF80D6"/>
<path d="M256 9H265V18H256V9Z" fill="#FF80D6"/>
<path d="M0 18H268V27H0V18Z" fill="#FF80D6"/>
<path d="M265 18H274V27H265V18Z" fill="#FF80D6"/>
<path d="M9 27H264V36H9V27Z" fill="#FF80D6"/>
<path d="M256 27H265V36H256V27Z" fill="#FF80D6"/>
<path d="M18 36H256V45H18V36Z" fill="#FF80D6"/>
<path d="M247 36H256V45H247V36Z" fill="#FF80D6"/>
</svg>
